<?xml version="1.0" encoding="utf-8"?>
<!-- Generator: Adobe Illustrator 21.0.0, SVG Export Plug-In . SVG Version: 6.00 Build 0)  -->
<svg version="1.1" id="Camada_1" xmlns="http://www.w3.org/2000/svg" xmlns:xlink="http://www.w3.org/1999/xlink" x="0px" y="0px"
	 viewBox="0 0 130 62" style="enable-background:new 0 0 130 62;" xml:space="preserve">
<style type="text/css">
	.st0{fill:#1A1A1A;}
	.st1{fill:#343A40;}
	.st2{fill:#3A86BB;}
</style>
<title>GESTAO-ESTRATEGICA-2</title>
<path class="st0" d="M-265.4,156.7L-265.4,156.7C-265.4,157.1-265.4,157-265.4,156.7z"/>
<path class="st0" d="M-265.4,155.6"/>
<path class="st0" d="M-264.6,183.5L-264.6,183.5C-264.6,183.5-264.6,183.5-264.6,183.5z"/>
<path class="st1" d="M6.7,43.5c0-0.6,0-0.7,0-0.8l0,0c-0.7,0.6-1.6,1-2.5,0.9c-2.3,0-4.2-1.9-4.2-4.3c0-2.4,1.9-4.3,4.2-4.3
	C5.8,35.1,7.3,36,8,37.5l-1.6,0.4c-0.5-0.8-1.3-1.3-2.2-1.2c-1.4,0-2.5,1-2.5,2.4c0,0.1,0,0.2,0,0.3c-0.1,1.4,1,2.7,2.4,2.7
	c0.1,0,0.2,0,0.3,0c0.9,0.1,1.8-0.3,2.3-1.1v-0.6H4.5v-1.5h3.7v4.6L6.7,43.5z"/>
<path class="st1" d="M9.5,35.2h5.8v1.5h-4.2v1.7h3.1V40h-3.1V42h4.2v1.5H9.5V35.2z"/>
<path class="st1" d="M17.7,41c0.1,0.8,0.8,1.2,1.8,1.2s1.4-0.3,1.4-1c0-1-1.1-1-2.1-1.2s-2.5-0.7-2.5-2.5c0-1.7,1.2-2.4,3-2.4
	c1.4-0.2,2.8,0.7,3.2,2.1l-1.6,0.4c-0.2-0.7-0.9-1.2-1.7-1.1c-0.9,0-1.3,0.4-1.3,0.9c0,0.8,0.9,1,2,1.2c1.1,0.2,2.6,0.7,2.6,2.5
	c0,1.6-1.1,2.5-3.1,2.5c-1.4,0-3-0.4-3.4-2.2L17.7,41z"/>
<path class="st1" d="M27.5,36.8v6.7h-1.6v-6.7h-2.6v-1.6h6.8v1.5L27.5,36.8z"/>
<path class="st1" d="M4.6,49.7c0-0.7-0.1-1.5-0.1-2.1h0c-0.2,0.6-0.4,1.2-0.6,1.9L3,51.9H2.5l-0.8-2.4c-0.2-0.7-0.4-1.3-0.6-1.9h0
	c0,0.6-0.1,1.5-0.1,2.2l-0.1,2.1H0.3l0.3-5h0.8l0.8,2.4C2.5,50,2.7,50.5,2.8,51h0c0.1-0.5,0.3-1,0.5-1.7L4.2,47H5l0.3,5H4.7
	L4.6,49.7z"/>
<path class="st1" d="M7.1,47.3c0,0.2-0.2,0.4-0.4,0.4c-0.2,0-0.4-0.2-0.4-0.4c0-0.2,0.2-0.4,0.4-0.4C6.9,46.9,7.1,47.1,7.1,47.3z
	 M6.4,51.9v-3.6H7v3.6H6.4z"/>
<path class="st1" d="M8.1,49.3c0-0.4,0-0.7,0-1h0.6l0,0.6h0c0.2-0.3,0.6-0.7,1.2-0.7c0.5,0,1.2,0.3,1.2,1.5v2.1h-0.6v-2.1
	c0-0.6-0.2-1.1-0.8-1.1c-0.4,0-0.7,0.3-0.9,0.7c0,0.1,0,0.2,0,0.3v2.1H8.1V49.3z"/>
<path class="st1" d="M12.8,47.3c0,0.2-0.2,0.4-0.4,0.4c-0.2,0-0.4-0.2-0.4-0.4c0-0.2,0.2-0.4,0.4-0.4C12.7,46.9,12.8,47.1,12.8,47.3
	z M12.1,51.9v-3.6h0.6v3.6H12.1z"/>
<path class="st1" d="M13.8,51.3c0.2,0.1,0.5,0.3,0.8,0.3c0.5,0,0.7-0.2,0.7-0.5c0-0.3-0.2-0.5-0.7-0.7c-0.6-0.2-0.9-0.6-0.9-1
	c0-0.6,0.5-1,1.2-1c0.4,0,0.7,0.1,0.9,0.2L15.6,49c-0.1-0.1-0.4-0.2-0.7-0.2c-0.4,0-0.6,0.2-0.6,0.5c0,0.3,0.2,0.4,0.7,0.6
	c0.6,0.2,0.9,0.5,0.9,1.1c0,0.6-0.5,1.1-1.3,1.1c-0.4,0-0.7-0.1-1-0.2L13.8,51.3z"/>
<path class="st1" d="M17.5,47.3v1h0.9v0.5h-0.9v1.9c0,0.4,0.1,0.7,0.5,0.7c0.2,0,0.3,0,0.4,0l0,0.5C18.2,52,18.1,52,17.8,52
	c-0.3,0-0.5-0.1-0.7-0.3c-0.2-0.2-0.2-0.5-0.2-0.9v-1.9h-0.5v-0.5h0.5v-0.9L17.5,47.3z"/>
<path class="st1" d="M19.4,50.3c0,0.9,0.6,1.2,1.2,1.2c0.5,0,0.7-0.1,1-0.2l0.1,0.5c-0.2,0.1-0.6,0.2-1.2,0.2
	c-1.1,0-1.7-0.7-1.7-1.8s0.6-1.9,1.7-1.9c1.1,0,1.5,1,1.5,1.7c0,0.1,0,0.2,0,0.3H19.4z M21.3,49.8c0-0.4-0.2-1.1-0.9-1.1
	c-0.6,0-0.9,0.6-1,1.1H21.3z M21.5,46.8l-0.9,1.1h-0.5l0.6-1.1H21.5z"/>
<path class="st1" d="M22.7,49.5c0-0.4,0-0.8,0-1.1h0.6l0,0.7h0c0.2-0.5,0.5-0.8,1-0.8c0.1,0,0.1,0,0.2,0v0.6c-0.1,0-0.1,0-0.2,0
	c-0.5,0-0.8,0.3-0.9,0.8c0,0.1,0,0.2,0,0.3v1.9h-0.6V49.5z"/>
<path class="st1" d="M25.9,47.3c0,0.2-0.2,0.4-0.4,0.4c-0.2,0-0.4-0.2-0.4-0.4c0-0.2,0.2-0.4,0.4-0.4C25.7,46.9,25.9,47.1,25.9,47.3
	z M25.1,51.9v-3.6h0.6v3.6H25.1z"/>
<path class="st1" d="M30,50.1c0,1.3-0.9,1.9-1.8,1.9c-1,0-1.7-0.7-1.7-1.8c0-1.2,0.8-1.9,1.7-1.9C29.4,48.3,30,49,30,50.1z
	 M27.2,50.1c0,0.8,0.4,1.4,1.1,1.4c0.6,0,1.1-0.6,1.1-1.4c0-0.6-0.3-1.4-1.1-1.4S27.2,49.5,27.2,50.1z"/>
<path class="st1" d="M35.4,46.7V51c0,0.3,0,0.7,0,0.9h-0.6l0-0.6h0c-0.2,0.4-0.6,0.7-1.2,0.7c-0.9,0-1.5-0.7-1.5-1.8
	c0-1.2,0.7-1.9,1.6-1.9c0.5,0,0.9,0.3,1.1,0.5h0v-2.1H35.4z M34.8,49.8c0-0.1,0-0.2,0-0.3c-0.1-0.4-0.4-0.8-0.9-0.8
	c-0.7,0-1.1,0.6-1.1,1.4c0,0.7,0.3,1.3,1,1.3c0.4,0,0.8-0.3,0.9-0.8c0-0.1,0-0.2,0-0.3V49.8z"/>
<path class="st1" d="M38.4,51.9l-0.1-0.4h0c-0.2,0.3-0.6,0.5-1.1,0.5c-0.7,0-1.1-0.5-1.1-1c0-0.9,0.8-1.3,2.1-1.3v-0.1
	c0-0.3-0.1-0.8-0.8-0.8c-0.3,0-0.7,0.1-0.9,0.3l-0.1-0.4c0.3-0.2,0.7-0.3,1.2-0.3c1.1,0,1.3,0.7,1.3,1.5v1.3c0,0.3,0,0.6,0.1,0.9
	H38.4z M38.4,50.1c-0.7,0-1.5,0.1-1.5,0.8c0,0.4,0.3,0.6,0.6,0.6c0.5,0,0.7-0.3,0.9-0.6c0-0.1,0-0.1,0-0.2V50.1z"/>
<path class="st1" d="M31.7,41.9l-0.6,1.7h-1.7l3.2-8.3h1.8l3.2,8.2H36l-0.6-1.7L31.7,41.9z M31.7,34.4l-0.3-1.2
	c0.3-0.3,0.7-0.4,1.1-0.4c0.7,0,1.2,0.4,1.9,0.4c0.3,0,0.7-0.1,0.9-0.3l0.3,1.2c-0.3,0.3-0.7,0.4-1.1,0.4c-0.7,0-1.2-0.4-1.9-0.4
	C32.3,34.1,31.9,34.2,31.7,34.4L31.7,34.4z M34.1,38.6c-0.3-0.7-0.6-1.4-0.6-1.5l0,0c0,0-0.3,0.7-0.6,1.5l-0.7,1.8h2.5L34.1,38.6z"
	/>
<path class="st1" d="M42.2,35.1c2.3,0,4.2,2,4.2,4.3c0,2.4-1.9,4.3-4.3,4.2c-2.3,0-4.2-1.9-4.2-4.3c-0.1-2.3,1.7-4.2,3.9-4.3
	C41.9,35.1,42,35.1,42.2,35.1z M42.2,42.2c1.5,0,2.7-1.2,2.8-2.7c0-1.5-1.2-2.8-2.6-2.8c-1.5,0-2.7,1.2-2.8,2.7c0,0,0,0,0,0.1
	c-0.1,1.4,1,2.6,2.4,2.7C42,42.1,42.1,42.1,42.2,42.2L42.2,42.2z"/>
<path class="st1" d="M50.4,35.2h5.8v1.5h-4.1v1.7h3.1V40h-3.1V42h4.2v1.5h-5.8L50.4,35.2z"/>
<path class="st1" d="M58.7,41c0.1,0.8,0.8,1.2,1.8,1.2c1,0,1.4-0.3,1.4-1c0-1-1.1-1-2.1-1.2s-2.5-0.7-2.5-2.5c0-1.7,1.2-2.4,3-2.4
	c1.4-0.2,2.8,0.7,3.2,2.1L62,37.7c-0.2-0.7-0.9-1.2-1.7-1.1c-0.9,0-1.3,0.4-1.3,0.9c0,0.8,0.9,1,2,1.2c1.1,0.2,2.6,0.7,2.6,2.5
	c0,1.6-1.1,2.5-3.1,2.5c-1.4,0-3-0.4-3.4-2.2L58.7,41z"/>
<path class="st1" d="M68.4,36.8v6.7h-1.6v-6.7h-2.6v-1.6H71v1.5L68.4,36.8z"/>
<path class="st1" d="M74.9,40.6h-1.2v2.9h-1.6v-8.3H75c2,0,3.2,1,3.2,2.7c0.1,1.1-0.6,2-1.6,2.3l1.9,3.2h-1.9L74.9,40.6z M75.2,39.3
	c0.9,0,1.4-0.4,1.4-1.2s-0.5-1.3-1.4-1.3h-1.4v2.5L75.2,39.3z"/>
<path class="st1" d="M81.4,41.9l-0.6,1.7H79l3.3-8.3h1.8l3.3,8.2h-1.7L85,41.8L81.4,41.9z M83.8,38.6c-0.3-0.7-0.6-1.4-0.6-1.5l0,0
	c0,0-0.3,0.7-0.6,1.5L82,40.4h2.5L83.8,38.6z"/>
<path class="st1" d="M90.8,36.8v6.7h-1.6v-6.7h-2.6v-1.6h6.8v1.5L90.8,36.8z"/>
<path class="st1" d="M94.6,35.2h5.8v1.5h-4.2v1.7h3.1V40h-3.1V42h4.2v1.5h-5.8L94.6,35.2z M96.7,34.6l1.3-2l1.3,0.4l-1.1,1.6
	L96.7,34.6z"/>
<path class="st1" d="M107.7,43.5c0-0.6,0-0.7,0-0.8l0,0c-0.7,0.6-1.6,1-2.5,0.9c-2.3,0-4.2-1.9-4.2-4.3c0-2.4,1.9-4.3,4.2-4.3
	c1.6-0.1,3.1,0.9,3.8,2.3l-1.6,0.4c-0.5-0.8-1.3-1.3-2.2-1.2c-1.4,0-2.5,1-2.5,2.4c0,0.1,0,0.2,0,0.3c-0.1,1.4,1,2.7,2.4,2.7
	c0.1,0,0.2,0,0.3,0c0.9,0.1,1.8-0.3,2.3-1.1v-0.6h-2.2v-1.5h3.7v4.6L107.7,43.5z"/>
<path class="st1" d="M110.5,35.2h1.6v8.2h-1.6V35.2z"/>
<path class="st1" d="M121.3,41.1c-1,2.1-3.5,3.1-5.6,2.1c-2.1-1-3.1-3.5-2.1-5.7c0.7-1.5,2.2-2.5,3.8-2.5c1.6-0.1,3.1,0.9,3.8,2.3
	l-1.6,0.4c-0.8-1.3-2.5-1.6-3.7-0.8c-1.3,0.8-1.6,2.5-0.8,3.8c0.8,1.3,2.5,1.6,3.7,0.8c0.4-0.2,0.7-0.6,0.9-1L121.3,41.1z"/>
<path class="st1" d="M124,41.9l-0.6,1.7h-1.7l3.3-8.2h1.8l3.3,8.2h-1.7l-0.6-1.7H124z M126.4,38.6c-0.3-0.7-0.6-1.4-0.6-1.5l0,0
	c0,0-0.3,0.7-0.6,1.5l-0.7,1.8h2.5L126.4,38.6z"/>
<path class="st2" d="M38.7,31.5c0.6-0.1,1-0.2,0-0.3c-0.6-0.1-1.4-0.1-1.4-0.1h-2.5c0.1-0.2,0.1-0.3,0.1-0.5
	c0.1-0.6,0.1-1.4,0.1-1.4V8.2l0,0c-0.2-0.3-0.4-0.1-0.5,0l0,0l0,0c-0.2-0.1-0.4-0.1-0.6-0.1h-0.3l0,0C33.2,8,32.7,8,32.7,8h-3.2l0,0
	c-0.3,0.2-0.1,0.4,0,0.5l0,0l0,0l0,0v0.1c-0.1,0.6-0.1,1.4-0.1,1.4v20.9l0,0l0.1,0.1h-1.8c0.1-0.2,0.1-0.3,0.1-0.5
	c0.1-0.6,0.1-1.4,0.1-1.4v-7.8c0.3,0.2,0.4,0.2,0-0.3v-6.4l0,0c-0.2-0.3-0.4-0.1-0.5,0l0,0l0,0c-0.2-0.1-0.4-0.1-0.6-0.1
	c-0.6-0.1-1.4-0.1-1.4-0.1h-1.2h-0.1l0,0h-0.1h-1.9l0,0c-0.3,0.2-0.1,0.4,0,0.5h0.1v0.1c-0.1,0.6-0.1,1.4-0.1,1.4v14.6l0,0l0.1,0.1
	h-1.9c0.1-0.2,0.1-0.3,0.1-0.5c0.1-0.6,0.1-1.4,0.1-1.4v-8.8l0,0c-0.2-0.3-0.4-0.1-0.5,0l0,0l0,0c-0.2-0.1-0.4-0.1-0.6-0.1
	c-0.6-0.1-1.4-0.1-1.4-0.1h-3.3l0,0c-0.3,0.2-0.1,0.4,0,0.5h0.1v0.1c-0.1,0.6-0.1,1.4-0.1,1.4v9l0,0l0.1,0.1H13
	c0.1-0.2,0.1-0.3,0.1-0.5c0.1-0.6,0.1-1.4,0.1-1.4v-4.4l0,0c-0.2-0.3-0.4-0.1-0.5,0l0,0l0,0c-0.2-0.1-0.4-0.1-0.6-0.1
	c-0.6-0.1-1.4-0.1-1.4-0.1H7.6l0,0c-0.3,0.2-0.1,0.4,0,0.5h0.1V25c-0.1,0.6-0.1,1.4-0.1,1.4V29H7.4l0.1,0.2v1.2l0,0l0,0v0.1v0.3l0,0
	l0.1,0.1H3l0,0c-0.3,0.2-0.1,0.4,0,0.5h34.4C37.3,31.4,38.8,31.5,38.7,31.5z M12.1,24.9c0.2,0,0.4,0,0.6-0.1V26
	c0-0.1-0.1-0.2-0.1-0.2c0,0-0.2-0.3-0.4-0.6L12,25L12.1,24.9z M10.7,25h0.6l0.1,0.2l0.3,0.4c0.2,0.3,0.4,0.5,0.4,0.5
	c0.1,0.1,0.2,0.2,0.3,0.3c0.1,0,0.1,0.1,0.2,0.1V28l0,0c-0.1-0.3-0.3-0.6-0.4-0.8l-0.2-0.3L12,26.7l-0.3-0.4
	c-0.2-0.2-0.4-0.5-0.6-0.7c-0.2-0.2-0.4-0.4-0.6-0.5L10.7,25z M10.1,25L10.1,25c0,0.1,0,0.2,0,0.3l0,0c0.2,0.2,0.4,0.4,0.6,0.6
	c0.2,0.2,0.4,0.4,0.6,0.7l0.2,0.3l0.1,0.2l0.3,0.4c0.2,0.3,0.4,0.6,0.4,0.5s0.2,0.2,0.3,0.3V29v0.3c-0.1-0.3-0.3-0.5-0.4-0.8
	L12,28.2l-0.3-0.4c-0.3-0.4-0.6-0.9-1-1.3c-0.2-0.2-0.3-0.4-0.5-0.6l-0.6-0.6L9.4,25L10.1,25z M8.3,31.1c0-0.1,0-0.2,0-0.2l-0.2-0.3
	L8,30.5v-0.4l0,0c0.1,0.1,0.2,0.2,0.3,0.3c0.2,0.2,0.3,0.4,0.5,0.6L8.9,31L8.3,31.1z M9.3,31.1c-0.1-0.2-0.1-0.3-0.2-0.4
	C9,30.4,8.8,30.2,8.6,30c-0.1-0.1-0.2-0.2-0.3-0.3c-0.1-0.1-0.2-0.2-0.4-0.3l0,0v-0.6c0.1,0.1,0.3,0.3,0.4,0.4l0.1,0.2l0.3,0.3
	l0.2,0.2l0.3,0.4c0.2,0.3,0.5,0.5,0.5,0.5c0.1,0.1,0.3,0.2,0.4,0.3L9.3,31.1z M10.2,31.1C10.3,31,10.3,31,10.2,31.1
	c-0.1-0.2-0.2-0.4-0.3-0.5l-0.5-0.8l-0.3-0.4L8.9,29l-0.1-0.2c-0.2-0.2-0.4-0.4-0.7-0.6H8v-0.8l0.1,0.1c0.1,0.1,0.2,0.2,0.3,0.3
	c0.2,0.2,0.5,0.5,0.7,0.7c0.2,0.3,0.4,0.5,0.6,0.8l0.2,0.3l0.5,0.6c0.2,0.3,0.5,0.6,0.4,0.5c0.1,0.2,0.3,0.3,0.5,0.4
	c0.1,0,0-0.1-0.2-0.6c-0.1-0.3-0.3-0.6-0.5-0.8l-0.2-0.4l-0.3-0.4c-0.2-0.3-0.4-0.5-0.6-0.8c-0.2-0.3-0.5-0.5-0.7-0.8
	c-0.1-0.1-0.2-0.2-0.3-0.3l-0.2-0.1l-0.1-0.1L8,26.8l0,0v-0.1c0,0,0-0.5-0.1-0.9L8.2,26c0.2,0.2,0.5,0.5,0.7,0.7
	c0.2,0.2,0.4,0.5,0.6,0.8c0.4,0.5,0.8,1.1,1.2,1.6l0.2,0.3l0.5,0.6c0.2,0.3,0.5,0.6,0.4,0.5c0.1,0.2,0.3,0.3,0.5,0.4
	c0.1,0,0-0.1-0.2-0.6s-0.7-1.2-0.7-1.2l-0.3-0.4c-0.4-0.5-0.8-1.1-1.2-1.6c-0.2-0.3-0.4-0.5-0.6-0.8c-0.2-0.3-0.5-0.5-0.7-0.7
	c-0.2-0.2-0.3-0.4-0.5-0.6h0.7c0.2,0.2,0.4,0.5,0.6,0.7l0.6,0.6c0.2,0.2,0.3,0.4,0.5,0.6c0.3,0.4,0.7,0.8,1,1.3l0.2,0.3l0.5,0.6
	c0.2,0.3,0.5,0.6,0.4,0.5l0.3,0.3c0,0.4,0,0.7,0,0.6c0,0.2,0,0.4,0.1,0.5H10.2z M18,20.5h0.6v0.1l0,0l0.1,0.1L19,21
	c0.2,0.2,0.4,0.4,0.4,0.4l0.1,0.1l0.1,0.1c0.1,0.1,0.3,0.1,0.2-0.2c0-0.1-0.1-0.2-0.1-0.3c0,0-0.2-0.2-0.4-0.5l-0.2-0.2h0.2
	c0.2,0,0.4,0,0.6-0.1v2.9v-0.1c-0.1-0.2-0.3-0.5-0.5-0.8l-0.3-0.4l-0.3-0.4c-0.2-0.3-0.5-0.6-0.8-0.8L18,20.5L18,20.5z M17.5,20.5
	L17.5,20.5L17.5,20.5C17.5,20.5,17.5,20.4,17.5,20.5L17.5,20.5z M17.1,20.5L17.1,20.5l0.1,0.1l0.1,0.1l0,0l0,0l0,0l0,0l0.4,0.3
	c0.3,0.2,0.5,0.5,0.7,0.8l0.3,0.3l0.5,0.5c0.2,0.3,0.5,0.5,0.5,0.5l0.3,0.3v1.4c-0.3-0.5-0.8-1.1-0.8-1.1l-0.3-0.4L17.7,22
	c-0.2-0.2-0.4-0.4-0.6-0.7s-0.4-0.4-0.7-0.6l-0.4-0.3L17.1,20.5z M15.4,20.5C15.4,20.5,15.4,20.5,15.4,20.5L15.4,20.5
	c0.2,0.3,0.4,0.5,0.7,0.7s0.4,0.4,0.6,0.6c0.2,0.2,0.4,0.4,0.6,0.6l1.1,1.3l0.3,0.3l0.5,0.5c0.3,0.3,0.5,0.5,0.5,0.5l0.2,0.2V26
	l-0.4-0.5l-0.3-0.4l-0.3-0.4c-0.5-0.5-1-1-1.4-1.6c-0.1-0.1-0.2-0.3-0.4-0.4l-0.4-0.4l-0.8-0.7l-0.6-0.6h-0.1c0-0.3,0-0.6,0-0.6
	v-0.1L15.4,20.5z M15.2,21.8l0.3,0.3l0.8,0.7l0.4,0.3c0.1,0.1,0.2,0.2,0.4,0.4c0.5,0.5,1,1,1.4,1.6l0.3,0.3c0,0,0.3,0.3,0.6,0.5
	c0.2,0.2,0.4,0.3,0.6,0.4H20v1.2c0-0.1-0.1-0.2-0.2-0.3c-0.3-0.5-0.9-1.1-0.9-1.1l-0.3-0.4l-1.2-1.3L17,24.2L16.8,24l-0.2-0.2
	c-0.2-0.2-0.5-0.4-0.7-0.6c-0.2-0.2-0.4-0.4-0.5-0.6l0,0h-0.2L15.2,21.8L15.2,21.8z M15.1,31.1c0,0,0.1-0.1,0.1-0.1l0,0v-0.2
	l0.3,0.3L15.1,31.1z M16,31.1c0-0.1,0-0.2-0.1-0.3l-0.4-0.4l-0.3-0.3L15.2,30v-0.8l0.2,0.3l0.2,0.2l0.3,0.3c0,0,0.2,0.3,0.5,0.5
	l0.4,0.4L16,31.1z M17.1,31.1L17,30.9l-0.5-0.7l-0.3-0.4L16,29.4l-0.1-0.2c-0.2-0.2-0.3-0.5-0.5-0.7l0,0h-0.1v-0.9l0.4,0.5
	c0.3,0.4,0.7,0.8,1,1.2l0.3,0.3l0.5,0.5c0.2,0.3,0.5,0.5,0.5,0.5c0.4,0.4,0.8,0.6,0.2-0.2c-0.3-0.5-0.8-1.2-0.8-1.2l-0.3-0.4
	c-0.3-0.4-0.6-0.8-1-1.2L15.5,27l0,0h-0.2v-0.8l0.2,0.2c0.8,1,1.6,2,2.4,3l0.3,0.3c0,0,1,1.1,1,1.1l0.2,0.2L17.1,31.1z M19.5,31.1
	c-0.1-0.1-0.1-0.3-0.2-0.4c-0.3-0.5-0.7-1.2-0.7-1.2l-0.3-0.4c-0.8-1-1.6-2.1-2.4-3.1l-0.3-0.3l-0.3-0.3v-0.6l0.2,0.3
	c0.5,0.5,1,1,1.4,1.5l1.3,1.6l0.3,0.3L19,29c0.3,0.3,0.5,0.5,0.5,0.5c0.1,0.1,0.3,0.3,0.5,0.4c0.1,0,0-0.1-0.3-0.5
	c-0.2-0.2-0.4-0.5-0.5-0.7l-0.3-0.4l-0.3-0.4l-1.3-1.6c-0.5-0.6-1-1-1.4-1.5c-0.2-0.2-0.4-0.4-0.6-0.6l0,0l0,0v-0.7
	c0.1,0.1,0.2,0.3,0.4,0.4c0.2,0.2,0.5,0.4,0.7,0.6l0.1,0.1l0.1,0.2l0.3,0.3l1.2,1.3l0.3,0.3L19,27c0.3,0.2,0.5,0.5,0.5,0.5
	c0.1,0.1,0.3,0.2,0.5,0.3v1.3c0,0,0.1,1.5,0.1,1.4c0,0.2,0,0.4,0.1,0.5L19.5,31.1z M25.3,14.8h0.4c0,0,0,0.1,0,0.1l0,0l0.2,0.2
	c0.1,0.1,0.2,0.2,0.4,0.4c0.1,0.1,0.5,0.6,0.5,0.6l0.2,0.2c0.1,0.1,0.1,0.1,0.2,0.1c0.2,0.1,0.3,0.1,0.2-0.2c0-0.1-0.1-0.3-0.2-0.4
	c0,0-0.2-0.3-0.5-0.6l-0.3-0.4h0.5c0.2,0,0.4,0,0.6-0.1v2.7l0,0c-0.1-0.2-0.3-0.5-0.5-0.7l-0.3-0.4l-0.3-0.4c-0.3-0.4-0.7-0.7-1.1-1
	L25.3,14.8z M22.4,14.8L22.4,14.8L22.4,14.8l0.6,0.6c0.7,0.7,1.5,1.5,2.2,2.2l0.3,0.3l0.6,0.5c0.3,0.2,0.5,0.5,0.5,0.4
	c0.5,0.4,0.8,0.6,0.2-0.2c-0.3-0.5-0.9-1-0.9-1l-0.4-0.3c-0.7-0.7-1.5-1.4-2.2-2.2l-0.3-0.3H24c0.2,0.1,0.4,0.2,0.5,0.4
	c0.4,0.3,0.8,0.6,1.1,1l0.3,0.3l0.2,0.2l0.4,0.4c0.3,0.3,0.5,0.5,0.5,0.5l0.2,0.2v2.6l-0.1-0.1l-0.3-0.4l-0.4-0.3
	c-0.5-0.5-1.1-1-1.6-1.5L24,17.3l-0.1-0.1l-0.1-0.1L23.6,17l-0.4-0.3c-0.2-0.2-0.4-0.4-0.5-0.6l0,0h-0.1c0-0.4-0.1-1.1-0.1-1.1
	L22.4,14.8L22.4,14.8z M26.5,24.6c-0.3-0.5-0.8-1.1-0.8-1.1l-0.3-0.4c-0.7-0.8-1.4-1.6-2.1-2.4l-0.3-0.3l-0.2-0.2l-0.2-0.1l0,0v-0.9
	l0,0l0.3,0.3c1.1,0.9,2.1,1.9,3,2.9l0.3,0.3l0.5,0.5c0.3,0.3,0.5,0.5,0.5,0.5l0.1,0.1v3.3c0-0.1-0.1-0.2-0.2-0.3
	c-0.3-0.5-0.9-1.1-0.9-1.1l-0.3-0.4c-0.9-0.9-1.8-1.9-2.6-2.9c-0.2-0.2-0.3-0.5-0.5-0.7l0,0c-0.1,0-0.1,0-0.2,0v-0.8l0,0l0.3,0.3
	c0.7,0.7,1.4,1.5,2.1,2.3l0.3,0.3l0.5,0.5c0.3,0.3,0.5,0.5,0.5,0.5c0.1,0.1,0.3,0.3,0.5,0.3C26.9,25.1,26.8,25,26.5,24.6L26.5,24.6z
	 M26.6,22.5l-0.3-0.4c-0.9-1.1-1.9-2.1-3-3l-0.3-0.3l-0.4-0.3l0,0v-0.6c0.2,0.2,0.3,0.3,0.5,0.5l0.6,0.5l0.6,0.5l1.1,1l0.3,0.3
	c0,0,1.1,1,1.1,0.9c0.5,0.4,0.8,0.5,0.2-0.2c-0.3-0.5-0.9-1-0.9-1l-0.4-0.3l-1.1-1L24,18.6c-0.2-0.2-0.4-0.3-0.6-0.5
	c-0.2-0.2-0.4-0.4-0.6-0.6l0,0c-0.1,0-0.2,0-0.2,0v-0.7c0.1,0.1,0.2,0.2,0.3,0.3c0.3,0.2,0.6,0.5,0.8,0.7l0.8,0.7
	c0.5,0.5,1.1,1,1.6,1.5l0.3,0.3l0.6,0.5l0.3,0.2v2.5C26.9,22.9,26.6,22.4,26.6,22.5L26.6,22.5z M22.4,31.1c0,0,0.1-0.1,0.1-0.1l0,0
	v-0.4l0.1,0.1l0.4,0.4l0.1,0.1L22.4,31.1L22.4,31.1z M23.5,31.1c0,0,0-0.1,0-0.1c0-0.1-0.1-0.2-0.1-0.3L23,30.2l-0.4-0.4l0,0h-0.1
	v-0.4l0.3,0.4c0.2,0.2,0.4,0.5,0.6,0.6l0.3,0.3l0.3,0.2l0.2,0.1L23.5,31.1z M24.5,31.1l-0.1-0.1c-0.1-0.2-0.2-0.4-0.4-0.6l-0.3-0.3
	c-0.1-0.2-0.3-0.4-0.5-0.6c-0.2-0.2-0.3-0.4-0.5-0.6c-0.1-0.2-0.2-0.3-0.2-0.3h-0.1v-1.4c0.1,0.2,0.3,0.4,0.4,0.5l0.1,0.1l0.1,0.1
	l0.1,0.2l0.3,0.3l0.5,0.7l0.3,0.3l0.5,0.5c0.2,0.2,0.3,0.3,0.5,0.5c0.1,0.1,0.3,0.3,0.5,0.3c0.1,0,0-0.1-0.3-0.5l-0.8-1.1l-0.3-0.4
	l-0.5-0.7l-0.3-0.3l-0.1-0.2l-0.1-0.1l-0.1-0.1c-0.2-0.2-0.3-0.4-0.5-0.7l0,0c-0.1,0-0.2,0-0.3,0v-1.2c0.2,0.1,0.3,0.3,0.4,0.4
	l0.3,0.3l0.2,0.2l0.1,0.2l0.6,0.7l1.2,1.4l0.3,0.3l0.5,0.5c0.3,0.3,0.5,0.5,0.5,0.5c0.5,0.4,0.8,0.6,0.2-0.2
	c-0.3-0.5-0.8-1.1-0.8-1.1l-0.3-0.4l-1.2-1.4l-0.6-0.7L23.8,26l-0.2-0.2l-0.3-0.3c-0.2-0.2-0.4-0.4-0.7-0.6h-0.1v-1.1l0.1,0.1
	l0.1,0.1l0.1,0.1l0.3,0.3c0.7,0.8,1.4,1.6,2.2,2.3l0.3,0.3l0.5,0.5c0.3,0.3,0.5,0.5,0.5,0.5c0.5,0.4,0.8,0.6,0.2-0.2
	c-0.3-0.5-0.8-1.1-0.8-1.1l-0.3-0.4c-0.7-0.8-1.4-1.6-2.2-2.3L23,23.6L23,23.5l-0.1-0.1l-0.1-0.1h-0.1h-0.1l0,0l0,0c0,0,0,0,0-0.1
	l0,0l0,0v-1l0.3,0.4c0.8,1,1.7,2,2.6,3l0.3,0.3l0.5,0.5c0.3,0.2,0.5,0.5,0.5,0.5c0.1,0.1,0.3,0.2,0.5,0.3V29c0,0,0.1,1.5,0.1,1.4
	c0,0.2,0,0.4,0.1,0.5L24.5,31.1z M34.5,8.3V9h0l-0.3-0.3l-0.2-0.2C34.2,8.5,34.4,8.4,34.5,8.3L34.5,8.3z M32.5,8.6h0.8l0.1,0.1
	c0.1,0.1,0.2,0.2,0.3,0.4l0.3,0.3l0.2,0.2l0.2,0.1h0.1v1.2l-0.1-0.1c-0.2-0.2-0.4-0.5-0.5-0.7l-0.3-0.4l-0.4-0.3
	c-0.3-0.2-0.5-0.5-0.8-0.7l-0.1-0.1L32.5,8.6z M31.3,8.6L31.3,8.6L31.3,8.6C31.6,8.7,31.8,8.8,32,9c0.3,0.2,0.5,0.4,0.8,0.6l0.3,0.3
	l0.5,0.5c0.3,0.2,0.5,0.5,0.5,0.5l0.3,0.2v1.2l-0.5-0.6l-0.3-0.3l-0.4-0.3c-0.9-0.8-1.9-1.7-2.9-2.5l-0.1-0.1L31.3,8.6z M29.7,8.8
	l0.3,0.3c1,0.8,1.9,1.6,2.9,2.5l0.3,0.3l0.6,0.5c0.3,0.2,0.6,0.4,0.6,0.4l0.1,0.1V14L34.4,14c-0.4-0.4-1-0.9-1-0.9l-0.4-0.3l-1.3-1
	l-0.3-0.3l-0.1-0.1l-0.1-0.1l-0.2-0.1c-0.2-0.2-0.5-0.3-0.7-0.4c-0.2-0.1-0.4-0.3-0.5-0.5l0,0h-0.2v-0.2
	C29.8,10.1,29.7,9.1,29.7,8.8L29.7,8.8z M33.9,25.1c0.5,0.3,0.9,0.5,0.2-0.2l-0.6-0.6l-0.3-0.3l-0.4-0.3c-0.8-0.7-1.6-1.5-2.4-2.2
	l-0.6-0.6v-0.6l0.3,0.2l0.6,0.4L31,21l0.3,0.2c0.4,0.3,0.7,0.6,1.1,1l0.3,0.3l0.6,0.5c0.3,0.2,0.6,0.5,0.5,0.4
	c0.2,0.1,0.3,0.2,0.5,0.3c0.1,0,0-0.1-0.3-0.5l-0.6-0.7l-0.3-0.4l-0.4-0.3c-0.4-0.3-0.7-0.7-1.1-1l-0.3-0.2L31,20.3l-0.6-0.4
	c-0.2-0.2-0.4-0.3-0.6-0.5v-0.9l0.3,0.2c0.9,0.7,1.7,1.4,2.5,2.1l0.3,0.3l0.6,0.4c0.3,0.2,0.6,0.4,0.6,0.4c0.1,0.1,0.3,0.1,0.4,0.2
	v4.8l-0.1-0.1c-0.3-0.5-0.9-1-0.9-1l-0.3-0.3l-1.4-1.3l-0.7-0.7l-0.7-0.7c-0.2-0.2-0.4-0.4-0.6-0.6l0,0h-0.1v-0.7l0.3,0.3
	c0.8,0.7,1.6,1.5,2.4,2.2l0.3,0.3l0.6,0.4C33.7,24.8,34,25,33.9,25.1L33.9,25.1z M34.3,21.7l-1-0.9l-0.4-0.3
	c-0.8-0.7-1.7-1.4-2.5-2.1c-0.2-0.2-0.4-0.3-0.6-0.5v-0.8c0.2,0.2,0.3,0.3,0.5,0.4l0.3,0.2l0.3,0.2l0.6,0.5l1.2,1.1l0.3,0.3l0.6,0.4
	c0.3,0.2,0.6,0.4,0.6,0.4l0.3,0.2v1.1L34.3,21.7z M34.3,20.3l-1-1L33,19l-1.2-1.1l-0.6-0.5l-0.3-0.3l-0.3-0.2
	c-0.2-0.2-0.4-0.3-0.6-0.5h-0.2v-1l0.5,0.4c0.8,0.7,1.6,1.3,2.4,2L33,18l0.6,0.4c0.3,0.2,0.6,0.4,0.6,0.4l0.4,0.2v1.3L34.3,20.3z
	 M34.3,18.7c-0.4-0.4-1-1-1-1L33,17.4c-0.8-0.7-1.6-1.4-2.5-2l-0.7-0.5h-0.1v-0.9l0.2,0.2l0.4,0.2c0.7,0.5,1.5,1.1,2.1,1.7l0.3,0.3
	l0.6,0.4c0.3,0.2,0.6,0.4,0.6,0.4c0.2,0.1,0.3,0.2,0.5,0.3l0,0v1.5L34.3,18.7z M34.2,16.9c-0.4-0.4-1-1-1-1l-0.4-0.3
	c-0.7-0.6-1.4-1.2-2.2-1.7l-0.4-0.3c-0.1-0.1-0.2-0.2-0.3-0.2h-0.2v-0.6l0.2,0.1l0.4,0.2c0.8,0.5,1.5,1,2.3,1.6l0.3,0.3l0.6,0.4
	l0.6,0.4l0.4,0.2v1.3C34.4,17.1,34.3,17,34.2,16.9L34.2,16.9z M34.3,15.6c-0.4-0.4-1-0.9-1-0.9L33,14.3c-0.7-0.6-1.5-1.1-2.3-1.6
	l-0.4-0.2l-0.4-0.2h-0.1v-1.4l0.1,0.1c0.1,0.1,0.2,0.2,0.4,0.3c0.2,0.2,0.5,0.3,0.7,0.5l0.2,0.1l0.1,0.1l0.1,0.1l0.3,0.3l1.3,1
	l0.3,0.3l0.6,0.4l0.6,0.4l0.2,0.1v1.4L34.3,15.6z M29.7,31.1c0,0,0.1-0.1,0.1-0.1l0,0v-0.2l0.1,0.1L30,31l0.2,0.1h0.1L29.7,31.1z
	 M30.5,31.1c0,0,0.1-0.1,0-0.2c0-0.1-0.1-0.2-0.1-0.3l-0.1-0.1c-0.1-0.1-0.2-0.2-0.2-0.3l-0.1-0.1L29.8,30l0,0l0,0v-0.8l0.3,0.3
	c0.2,0.2,0.4,0.4,0.5,0.6l0.2,0.3l0.3,0.2c0.1,0.1,0.2,0.1,0.2,0.2c0.2,0.2,0.4,0.2,0.2-0.2c-0.1-0.2-0.2-0.4-0.3-0.6L31,29.8
	c-0.1-0.2-0.3-0.4-0.5-0.6c-0.2-0.2-0.3-0.4-0.4-0.6c-0.1-0.2-0.2-0.3-0.2-0.3l0,0v-0.7l0.3,0.4c0.2,0.3,0.5,0.6,0.8,0.9l0.3,0.3
	l0.5,0.5c0.3,0.2,0.5,0.5,0.5,0.5c0.5,0.4,0.8,0.6,0.2-0.2c-0.2-0.2-0.4-0.5-0.6-0.7l-0.3-0.4l-0.3-0.4c-0.3-0.3-0.5-0.6-0.7-0.9
	c-0.2-0.3-0.3-0.5-0.5-0.7l0,0c-0.1,0-0.1,0-0.2,0v-1.2c0.2,0.2,0.4,0.4,0.6,0.5l0.1,0.1l0,0l0,0l0.2,0.2l0.3,0.3l0.6,0.7
	c0.4,0.5,0.8,0.9,1.1,1.4l0.3,0.3l0.5,0.5c0.2,0.3,0.5,0.5,0.5,0.5c0.1,0.2,0.3,0.3,0.5,0.4c0.1,0,0-0.1-0.3-0.5
	c-0.3-0.4-0.8-1.1-0.8-1.1l-0.3-0.4c-0.4-0.5-0.8-1-1.2-1.4c-0.2-0.2-0.4-0.5-0.6-0.7L31,26.1l-0.2-0.2l0,0l0,0l-0.1-0.1l-0.3-0.3
	c-0.1-0.1-0.2-0.2-0.3-0.3l0,0c-0.1,0-0.2,0-0.3,0v-1l0.3,0.2l0.3,0.3l0.3,0.3l0.6,0.6c0.4,0.4,0.8,0.8,1.2,1.2l0.3,0.3l0.5,0.5
	c0.3,0.3,0.5,0.5,0.5,0.5c0.4,0.4,0.8,0.6,0.2-0.2c-0.3-0.5-0.8-1.1-0.8-1.1l-0.3-0.4c-0.4-0.4-0.8-0.8-1.2-1.2l-0.6-0.6l-0.3-0.3
	l-0.3-0.3c-0.2-0.2-0.4-0.4-0.6-0.6l0,0l0,0v-0.7l0.3,0.3l0.7,0.7l0.7,0.7l1.4,1.3l0.3,0.3c0,0,1.1,1,1.1,0.9l0.3,0.2v1.9
	c0,0,0.1,1.5,0.1,1.4c0,0.2,0,0.4,0.1,0.5H30.5z"/>
<path class="st2" d="M34.1,31.6h34.4c0.1-0.1,0.3-0.3,0-0.5l0,0h-4.6L64,31l0,0v-0.3v-0.1l0,0l0,0v-1.2l0.1-0.2H64v-2.6
	c0,0,0-0.8-0.1-1.4v-0.1h0.1c0.1-0.1,0.3-0.3,0-0.5l0,0h-3.2c0,0-0.8,0.1-1.4,0.1c-0.2,0-0.4,0-0.6,0.1l0,0l0,0
	c-0.1-0.1-0.3-0.3-0.5,0l0,0v4.4c0,0,0,0.8,0.1,1.4c0,0.2,0,0.4,0.1,0.5h-1.9l0.1-0.1l0,0v-9c0,0,0-0.8-0.1-1.4v-0.1h0.1
	c0.1-0.1,0.3-0.3,0-0.5l0,0h-3.2c0,0-0.8,0.1-1.4,0.1c-0.2,0-0.4,0-0.6,0.1l0,0l0,0c-0.1-0.1-0.3-0.3-0.5,0l0,0v9c0,0,0,0.8,0.1,1.4
	c0,0.2,0,0.4,0.1,0.5h-1.8l0.1-0.1l0,0V16.3c0,0,0-0.8-0.1-1.4v-0.1h0.1c0.1-0.1,0.3-0.3,0-0.5l0,0h-2h-0.1l0,0h-0.1h-1.2
	c0,0-0.8,0.1-1.4,0.1c-0.2,0-0.4,0-0.6,0.1l0,0l0,0c-0.1-0.1-0.3-0.3-0.5,0l0,0V21c-0.4,0.5-0.3,0.5,0,0.3v7.8c0,0,0,0.8,0.1,1.4
	c0,0.2,0,0.4,0.1,0.5h-1.8l0.1-0.1l0,0V10c0,0,0-0.8-0.1-1.4V8.6l0,0l0,0l0,0c0.1-0.1,0.3-0.3,0-0.5l0,0h-3.3c0,0-0.5,0-1.1,0.1l0,0
	h-0.3c-0.2,0-0.4,0-0.6,0.1l0,0l0,0c-0.1-0.1-0.3-0.3-0.5,0l0,0v20.9c0,0,0,0.8,0.1,1.4c0,0.2,0,0.4,0.1,0.5h-2.5
	c0,0-0.8,0.1-1.4,0.1c-1,0.1-0.6,0.2,0,0.3C32.6,31.5,34.1,31.6,34.1,31.6z M59.4,25l-0.2,0.2c-0.2,0.3-0.4,0.6-0.4,0.6
	c0,0.1-0.1,0.2-0.1,0.2v-1.2c0.2,0.1,0.4,0.1,0.6,0.1L59.4,25z M60.9,25c-0.2,0.2-0.4,0.3-0.6,0.5c-0.2,0.2-0.4,0.5-0.6,0.7
	l-0.3,0.4l-0.1,0.1l-0.2,0.3c-0.1,0.2-0.3,0.5-0.4,0.8l0,0v-1.6c0.1,0,0.1,0,0.2-0.1c0.1-0.1,0.2-0.2,0.3-0.3c0,0,0.2-0.3,0.4-0.5
	l0.3-0.4l0.1-0.2h0.6L60.9,25z M62,25l-0.3,0.3l-0.6,0.6c-0.2,0.2-0.4,0.4-0.5,0.6c-0.3,0.4-0.7,0.9-1,1.3l-0.3,0.4l-0.2,0.4
	c-0.1,0.2-0.3,0.5-0.4,0.8v-0.3v-0.7c0.1-0.1,0.2-0.2,0.3-0.3c0.1-0.1,0.2-0.3,0.4-0.5l0.3-0.4l0.1-0.2l0.2-0.3
	c0.2-0.2,0.4-0.4,0.6-0.7c0.2-0.2,0.4-0.4,0.6-0.6l0,0c0-0.1,0-0.2,0-0.2v-0.1L62,25z M62.5,31.1l0.1-0.1c0.2-0.2,0.3-0.4,0.5-0.6
	c0.1-0.1,0.2-0.2,0.3-0.3l0,0v0.4l-0.1,0.1l-0.2,0.3c0,0.1,0,0.2,0,0.2L62.5,31.1z M61.3,31.1c0.2-0.1,0.3-0.2,0.4-0.3
	c0,0,0.2-0.2,0.5-0.5l0.3-0.4l0.2-0.2l0.3-0.3l0.1-0.2c0.1-0.1,0.3-0.3,0.4-0.4v0.6l0,0c-0.1,0.1-0.3,0.2-0.4,0.3
	c-0.1,0.1-0.2,0.2-0.3,0.3c-0.2,0.2-0.4,0.4-0.5,0.6c-0.1,0.1-0.1,0.3-0.2,0.4L61.3,31.1z M58.5,31.1c0.1-0.2,0.1-0.4,0.1-0.5
	c0,0,0-0.3,0-0.6l0.3-0.3c0,0,0.2-0.3,0.4-0.5l0.5-0.6l0.2-0.3c0.3-0.4,0.6-0.9,1-1.3c0.2-0.2,0.3-0.4,0.5-0.6l0.6-0.6
	c0.2-0.2,0.4-0.4,0.6-0.7h0.7c-0.1,0.2-0.3,0.4-0.5,0.6c-0.2,0.2-0.5,0.5-0.7,0.7c-0.2,0.3-0.4,0.5-0.6,0.8
	c-0.4,0.5-0.8,1.1-1.2,1.6l-0.3,0.4c0,0-0.4,0.7-0.7,1.2c-0.3,0.5-0.3,0.6-0.2,0.6c0.2-0.1,0.3-0.2,0.5-0.4c0,0,0.2-0.2,0.4-0.5
	l0.5-0.6l0.2-0.3c0.4-0.5,0.8-1.1,1.2-1.6c0.2-0.3,0.4-0.5,0.6-0.8s0.4-0.5,0.7-0.7l0.3-0.3c0,0.4-0.1,0.9-0.1,0.9v0.1l0,0l-0.1,0.1
	l-0.1,0.1L63.1,27c-0.1,0.1-0.2,0.2-0.3,0.3c-0.3,0.2-0.5,0.5-0.7,0.8c-0.2,0.3-0.4,0.5-0.6,0.8l-0.3,0.4l-0.2,0.4
	c-0.1,0.2-0.3,0.5-0.5,0.8c-0.2,0.4-0.3,0.6-0.2,0.6c0.2-0.1,0.3-0.2,0.5-0.4c0,0,0.2-0.2,0.4-0.5l0.5-0.6l0.2-0.3
	c0.2-0.3,0.4-0.5,0.6-0.8c0.2-0.2,0.4-0.5,0.7-0.7c0.1-0.1,0.2-0.2,0.3-0.3l0.1-0.1v0.8h-0.1c-0.2,0.2-0.5,0.4-0.7,0.6L62.6,29
	l-0.3,0.4L62,29.8l-0.5,0.8c-0.1,0.1-0.2,0.3-0.3,0.4c0,0,0,0.1,0,0.1L58.5,31.1z M53.6,20.5l-0.2,0.2c-0.3,0.3-0.5,0.5-0.8,0.8
	l-0.3,0.4L52,22.3c-0.1,0.2-0.3,0.5-0.5,0.8v0.1v-2.9c0.2,0.1,0.4,0.1,0.6,0.1h0.2l-0.2,0.2c-0.2,0.2-0.4,0.5-0.4,0.5
	c0,0.1-0.1,0.2-0.1,0.3c0,0.3,0.1,0.3,0.2,0.2l0.1-0.1l0.1-0.1c0,0,0.2-0.2,0.4-0.4l0.3-0.3l0.1-0.1l0,0v-0.1L53.6,20.5L53.6,20.5z
	 M53.9,20.5L53.9,20.5L53.9,20.5C53.9,20.5,53.9,20.4,53.9,20.5L53.9,20.5z M55.3,20.5L55,20.8c-0.2,0.2-0.4,0.4-0.7,0.6
	c-0.2,0.2-0.4,0.4-0.6,0.7l-1.2,1.3l-0.3,0.4c0,0-0.5,0.6-0.8,1.1v-1.4l0.3-0.3c0,0,0.2-0.2,0.5-0.5l0.5-0.5l0.3-0.3
	c0.2-0.3,0.5-0.5,0.7-0.8l0.4-0.3l0,0l0,0l0,0l0,0l0.1-0.1l0.1-0.1l0,0L55.3,20.5z M56.3,20.5v0.1c0,0,0,0.2,0,0.6h-0.1l-0.6,0.6
	l-0.8,0.7l-0.4,0.4c-0.1,0.1-0.3,0.3-0.4,0.4c-0.5,0.5-1,1-1.4,1.6l-0.3,0.4L52,25.5L51.5,26v-0.8l0.2-0.2c0,0,0.2-0.2,0.5-0.5
	l0.5-0.5l0.3-0.3l1.1-1.3c0.2-0.2,0.4-0.5,0.6-0.6s0.4-0.4,0.6-0.6c0.2-0.2,0.4-0.4,0.7-0.6l0,0c0,0,0-0.1,0-0.1L56.3,20.5z
	 M56.2,22v0.6H56l0,0c-0.1,0.2-0.3,0.4-0.5,0.6c-0.2,0.2-0.4,0.4-0.7,0.6L54.6,24l-0.2,0.2l-0.3,0.3l-1.2,1.3l-0.5,0.4
	c0,0-0.5,0.6-0.9,1.1c-0.1,0.2-0.2,0.3-0.2,0.3v-1.2h0.1c0.2-0.1,0.4-0.3,0.6-0.4c0.3-0.2,0.6-0.5,0.6-0.5l0.3-0.3
	c0.5-0.5,1-1,1.4-1.6c0.1-0.1,0.2-0.3,0.4-0.4l0.4-0.4l0.8-0.7l0.3-0.3L56.2,22z M55.9,31.1l0.3-0.3v0.2l0,0c0,0,0.1,0.1,0.1,0.1
	L55.9,31.1z M54.7,31.1l0.4-0.4c0.3-0.3,0.5-0.5,0.5-0.5l0.3-0.3l0.2-0.2l0.2-0.3V30l-0.1,0.1l-0.3,0.3l-0.4,0.4
	c0,0.1-0.1,0.2-0.1,0.3L54.7,31.1z M52.2,31.1l0.2-0.2c0,0.1,1-1.1,1-1.1l0.3-0.3c0.8-1,1.6-2.1,2.4-3l0.2-0.2V27h-0.2l0,0l-0.6,0.7
	c-0.3,0.4-0.7,0.8-1,1.2l-0.3,0.4c0,0-0.5,0.7-0.8,1.2c-0.5,0.8-0.2,0.6,0.2,0.2c0,0,0.2-0.2,0.5-0.5l0.5-0.5l0.3-0.3
	c0.3-0.4,0.6-0.8,1-1.2l0.4-0.5v0.9h-0.1l0,0c-0.1,0.2-0.3,0.5-0.5,0.7l-0.1,0.2l-0.3,0.4l-0.3,0.4l-0.5,0.7l-0.1,0.2L52.2,31.1z
	 M51.3,31.1c0.1-0.2,0.1-0.4,0.1-0.5c0,0.1,0.1-1.4,0.1-1.4v-1.3c0.2-0.1,0.3-0.2,0.5-0.3c0,0,0.2-0.2,0.5-0.5l0.5-0.5l0.3-0.3
	l1.2-1.3l0.3-0.3l0.1-0.2l0.1-0.1c0.2-0.2,0.5-0.4,0.7-0.6c0.1-0.1,0.3-0.2,0.4-0.4V24l0,0l0,0c-0.2,0.2-0.4,0.4-0.6,0.6
	c-0.5,0.5-1,1-1.4,1.5l-1.3,1.6l-0.4,0.4l-0.3,0.4c-0.2,0.2-0.4,0.5-0.5,0.7c-0.3,0.4-0.3,0.5-0.3,0.5c0.2-0.1,0.3-0.2,0.5-0.4
	c0,0,0.2-0.2,0.5-0.5l0.5-0.5l0.3-0.3l1.3-1.6c0.4-0.5,0.9-1,1.4-1.5l0.2-0.3v0.6l-0.3,0.3L55.6,26c-0.8,1-1.6,2-2.4,3.1l-0.3,0.4
	c0,0-0.4,0.7-0.7,1.2C52,30.8,52,31,51.9,31.1L51.3,31.1z M46.4,14.8c-0.4,0.3-0.8,0.6-1.1,1L45,16.2l-0.3,0.4
	c-0.2,0.2-0.4,0.5-0.5,0.7l0,0v-2.7c0.2,0.1,0.4,0.1,0.6,0.1h0.5l-0.3,0.4c-0.3,0.3-0.5,0.6-0.5,0.6c-0.1,0.1-0.1,0.3-0.2,0.4
	c-0.1,0.3,0.1,0.3,0.2,0.2c0.1,0,0.1-0.1,0.2-0.1l0.2-0.2c0,0,0.2-0.3,0.5-0.6c0.2-0.3,0.3-0.3,0.4-0.4l0.2-0.2l0,0c0,0,0-0.1,0-0.1
	h0.4L46.4,14.8z M49,14.8v0.1c0,0,0,0.7-0.1,1.1h-0.1l0,0c-0.1,0.2-0.3,0.4-0.5,0.6L47.9,17l-0.2,0.2l-0.1,0.1l-0.1,0.1L46.6,18
	c-0.5,0.5-1.1,1-1.6,1.5l-0.4,0.3l-0.3,0.4l-0.1,0.1v-2.6l0.2-0.2c0,0,0.2-0.2,0.5-0.5l0.4-0.4l0.2-0.2l0.3-0.3
	c0.3-0.4,0.7-0.7,1.1-1c0.2-0.1,0.4-0.3,0.5-0.4h0.9L48,15.1c-0.7,0.7-1.5,1.4-2.2,2.2l-0.4,0.3c0,0-0.5,0.6-0.9,1
	c-0.6,0.8-0.2,0.6,0.2,0.2c0,0,0.2-0.2,0.5-0.4l0.6-0.5l0.3-0.3c0.7-0.7,1.5-1.4,2.2-2.2L49,14.8L49,14.8L49,14.8L49,14.8z
	 M44.7,25.2c0.2-0.1,0.4-0.2,0.5-0.3c0,0,0.2-0.2,0.5-0.5l0.5-0.5l0.3-0.3c0.7-0.8,1.4-1.6,2.1-2.3l0.3-0.3l0,0v0.8
	c-0.1,0-0.1,0-0.2,0l0,0c-0.2,0.2-0.3,0.5-0.5,0.7c-0.8,1-1.7,2-2.6,2.9l-0.3,0.4c0,0-0.5,0.6-0.9,1.1c-0.1,0.1-0.2,0.3-0.2,0.3
	v-3.3l0.1-0.1c0,0,0.2-0.2,0.5-0.5l0.5-0.5l0.3-0.3c0.9-1,1.9-2,3-2.9l0.3-0.3l0,0v0.9l0,0l-0.2,0.1l-0.2,0.2l-0.3,0.3
	c-0.8,0.7-1.5,1.6-2.1,2.4l-0.3,0.4c0,0-0.5,0.6-0.8,1.1C44.7,25.1,44.5,25.1,44.7,25.2L44.7,25.2z M44.2,23.4v-2.5l0.3-0.2l0.6-0.5
	l0.3-0.3c0.5-0.5,1.1-1,1.6-1.5l0.8-0.7c0.2-0.2,0.6-0.4,0.8-0.7c0.1-0.1,0.2-0.2,0.3-0.3v0.7c-0.1,0-0.2,0-0.2,0l0,0
	c-0.2,0.2-0.4,0.4-0.6,0.6c-0.2,0.2-0.4,0.3-0.6,0.5L46.9,19l-1.1,1l-0.4,0.3c0,0-0.5,0.6-0.9,1c-0.6,0.7-0.3,0.6,0.2,0.2
	c0,0.1,1.1-0.9,1.1-0.9l0.3-0.3l1.1-1l0.6-0.5l0.6-0.5c0.2-0.1,0.4-0.3,0.5-0.5v0.6l0,0l-0.4,0.3L48.3,19c-1.1,0.9-2.1,1.9-3,3
	l-0.3,0.4C44.9,22.4,44.4,22.9,44.2,23.4L44.2,23.4z M48.3,31.1L48.3,31.1l0.1-0.1l0.4-0.4l0.1-0.1V31l0,0c0,0,0.1,0.1,0.1,0.1
	L48.3,31.1z M47.3,31.1l0.2-0.1l0.3-0.2l0.3-0.3c0.1-0.2,0.4-0.4,0.6-0.6l0.3-0.4v0.4h-0.1l0,0l-0.4,0.4l-0.4,0.4
	C48,30.8,48,30.9,48,31c0,0,0,0.1,0,0.1L47.3,31.1z M44,31.1c0.1-0.2,0.1-0.4,0.1-0.5c0,0.1,0.1-1.4,0.1-1.4v-1.9
	c0.2-0.1,0.3-0.2,0.5-0.3c0,0,0.2-0.2,0.5-0.5l0.5-0.5l0.3-0.3c0.9-0.9,1.8-1.9,2.6-3l0.3-0.4v1l0,0l0,0c0,0,0,0,0,0.1l0,0l0,0h-0.1
	h-0.1l-0.1,0.1l-0.1,0.1l-0.1,0.1l-0.3,0.4c-0.7,0.8-1.5,1.6-2.2,2.3l-0.3,0.4c0,0-0.5,0.6-0.8,1.1c-0.6,0.8-0.2,0.6,0.2,0.2
	c0,0,0.2-0.2,0.5-0.5l0.5-0.5l0.3-0.3c0.7-0.8,1.4-1.6,2.2-2.3l0.3-0.3l0.1-0.1l0.1-0.1l0.1-0.1v1.1h-0.1c-0.2,0.2-0.5,0.4-0.7,0.6
	l-0.3,0.3L47.8,26l-0.2,0.2L47,26.9l-1.2,1.4l-0.3,0.4c0,0-0.5,0.6-0.8,1.1c-0.6,0.8-0.2,0.6,0.2,0.2c0,0,0.2-0.2,0.5-0.5l0.5-0.5
	l0.3-0.3l1.2-1.4l0.6-0.7l0.1-0.2l0.2-0.2l0.3-0.3c0.1-0.1,0.3-0.3,0.4-0.4v1.2c-0.1,0-0.2,0-0.3,0l0,0c-0.1,0.2-0.3,0.5-0.5,0.7
	l-0.1,0.1l-0.1,0.1L48,27.7l-0.3,0.3l-0.5,0.7l-0.3,0.4l-0.8,1.1c-0.3,0.4-0.3,0.5-0.3,0.5c0.2-0.1,0.4-0.2,0.5-0.3
	c0.2-0.2,0.3-0.3,0.5-0.5l0.5-0.5l0.3-0.3l0.5-0.7l0.3-0.3l0.1-0.2l0.1-0.1l0.1-0.1c0.1-0.2,0.3-0.3,0.4-0.5v1.3H49
	c0,0-0.1,0.1-0.2,0.3c-0.2,0.2-0.3,0.4-0.5,0.6c-0.2,0.2-0.4,0.4-0.5,0.6l-0.3,0.3c-0.1,0.2-0.3,0.4-0.4,0.6L47.1,31L44,31.1z
	 M37.5,8.5l-0.2,0.2L37,8.9h0V8.3C37.1,8.3,37.2,8.4,37.5,8.5L37.5,8.5z M39.1,8.6L39,8.6c-0.3,0.2-0.5,0.4-0.8,0.7l-0.4,0.3
	L37.5,10c-0.2,0.2-0.4,0.5-0.5,0.7l-0.1,0.1V9.6H37l0.2-0.1l0.2-0.2L37.7,9c0.1-0.1,0.3-0.3,0.3-0.4l0.1-0.1h0.8L39.1,8.6z
	 M41.2,8.6L41,8.7c-1,0.8-2,1.7-2.9,2.5l-0.4,0.3l-0.3,0.3l-0.5,0.6v-1.3l0.3-0.2c0,0,0.2-0.2,0.5-0.5l0.5-0.5l0.3-0.3
	c0.2-0.2,0.5-0.4,0.8-0.6c0.2-0.2,0.5-0.3,0.7-0.4l0,0l0,0L41.2,8.6z M41.7,8.8c0,0.4-0.1,1.3-0.1,1.3v0.1h-0.2l0,0
	c-0.1,0.2-0.3,0.4-0.5,0.5c-0.2,0.2-0.4,0.3-0.7,0.4l-0.2,0.1L40,11.4L40,11.4l-0.3,0.3l-1.3,1L38,13c0,0-0.6,0.5-1,0.9L36.9,14
	v-1.3l0.1-0.1c0,0,0.3-0.2,0.6-0.4l0.6-0.5l0.3-0.3c0.9-0.8,1.9-1.7,2.9-2.5L41.7,8.8L41.7,8.8z M38.1,24.6l0.5-0.5l0.3-0.3
	c0.8-0.7,1.6-1.5,2.4-2.2l0.3-0.3v0.7h0l0,0c-0.2,0.2-0.4,0.4-0.6,0.6l-0.7,0.7L39.6,24l-1.4,1.3l-0.3,0.3c0,0-0.5,0.6-0.9,1
	l-0.1,0.1V22c0.1-0.1,0.3-0.1,0.4-0.2c0,0,0.3-0.2,0.6-0.4l0.6-0.4l0.3-0.3c0.9-0.7,1.7-1.5,2.5-2.1l0.3-0.2v0.9
	c-0.2,0.2-0.4,0.4-0.6,0.5l-0.6,0.4l-0.3,0.2l-0.3,0.2c-0.4,0.3-0.8,0.7-1.1,1L38.4,22L38,22.4l-0.6,0.7c-0.3,0.4-0.4,0.5-0.3,0.5
	c0.2-0.1,0.4-0.2,0.5-0.3c0,0,0.3-0.2,0.5-0.4l0.6-0.5l0.3-0.3c0.4-0.3,0.7-0.7,1.1-1l0.3-0.2l0.3-0.2l0.6-0.4l0.3-0.2v0.6l-0.6,0.6
	c-0.8,0.7-1.6,1.5-2.4,2.2l-0.4,0.3l-0.3,0.3l-0.6,0.6c-0.7,0.7-0.3,0.5,0.2,0.2C37.4,25,37.7,24.8,38.1,24.6L38.1,24.6z M36.9,21.9
	v-1.1l0.3-0.2c0,0,0.3-0.2,0.6-0.4l0.6-0.4l0.3-0.3l1.2-1.1l0.6-0.5l0.3-0.2l0.3-0.2c0.2-0.1,0.3-0.3,0.5-0.4v0.8
	c-0.2,0.2-0.4,0.4-0.6,0.5c-0.9,0.7-1.7,1.4-2.5,2.1l-0.4,0.3l-1,0.9L36.9,21.9z M36.9,20.5v-1.3l0.4-0.2c0,0,0.3-0.2,0.6-0.4
	l0.6-0.4l0.3-0.3c0.8-0.7,1.6-1.4,2.4-2l0.5-0.4v1h-0.2c-0.2,0.2-0.4,0.4-0.6,0.5l-0.3,0.2l-0.3,0.3L39.6,18L38.4,19L38,19.4l-1,1
	L36.9,20.5z M36.9,18.9v-1.5l0,0c0.2-0.1,0.4-0.1,0.5-0.3c0,0,0.3-0.2,0.6-0.4l0.6-0.4l0.3-0.3c0.7-0.6,1.4-1.2,2.1-1.7l0.4-0.2
	l0.2-0.2v0.9h-0.1l-0.7,0.5c-0.8,0.7-1.6,1.4-2.5,2L38,17.7c0,0-0.6,0.6-1,1L36.9,18.9z M36.9,17.3V16l0.4-0.2l0.6-0.4l0.6-0.4
	l0.3-0.3c0.7-0.6,1.5-1.1,2.3-1.6l0.4-0.2l0.2-0.1v0.6h-0.2c-0.1,0.1-0.2,0.2-0.3,0.2l-0.4,0.3c-0.8,0.5-1.5,1.1-2.2,1.7l-0.4,0.3
	c0,0-0.6,0.6-1,1C37.1,17,37,17.1,36.9,17.3L36.9,17.3z M36.9,15.7v-1.4l0.2-0.1l0.6-0.4l0.6-0.4l0.3-0.3l1.3-1l0.3-0.3l0.1-0.1
	l0.1-0.1l0.2-0.1c0.2-0.1,0.4-0.3,0.7-0.5c0.1-0.1,0.3-0.2,0.4-0.3l0.1-0.1v1.4h-0.1l-0.4,0.2l-0.4,0.2c-0.8,0.5-1.6,1-2.3,1.6
	l-0.4,0.3c0,0-0.6,0.5-1,0.9L36.9,15.7z M41.2,31.1h0.1l0.2-0.1l0.1-0.1l0.1-0.1V31l0,0c0,0,0.1,0.1,0.1,0.1L41.2,31.1z M36.7,31.1
	c0.1-0.2,0.1-0.4,0.1-0.5c0,0.1,0.1-1.4,0.1-1.4v-1.9l0.3-0.2c0,0.1,1.1-0.9,1.1-0.9l0.3-0.3l1.4-1.3l0.7-0.7l0.7-0.7l0.3-0.3v0.7
	l0,0l0,0c-0.2,0.2-0.4,0.4-0.6,0.6l-0.3,0.3l-0.3,0.3l-0.6,0.6c-0.4,0.4-0.8,0.8-1.2,1.2l-0.3,0.4c0,0-0.5,0.6-0.8,1.1
	c-0.6,0.8-0.2,0.6,0.2,0.2c0,0,0.2-0.2,0.5-0.5l0.5-0.5l0.3-0.3c0.4-0.4,0.8-0.8,1.2-1.2l0.6-0.6l0.3-0.3l0.3-0.3l0.3-0.2v1
	c-0.1,0-0.2,0-0.3,0l0,0c-0.1,0.1-0.2,0.2-0.3,0.3l-0.3,0.3l-0.1,0.1l0,0l0,0L40.6,26l-0.3,0.3c-0.2,0.2-0.4,0.5-0.6,0.7
	c-0.4,0.5-0.8,0.9-1.2,1.4l-0.3,0.4c0,0-0.5,0.7-0.8,1.1c-0.3,0.5-0.3,0.5-0.3,0.5c0.2-0.1,0.4-0.2,0.5-0.4c0,0,0.2-0.2,0.5-0.5
	l0.5-0.5l0.3-0.3c0.4-0.5,0.8-0.9,1.1-1.4l0.6-0.7l0.3-0.3l0.2-0.2l0,0l0,0l0.1-0.1c0.2-0.2,0.4-0.3,0.6-0.5v1.2c-0.1,0-0.1,0-0.2,0
	l0,0c-0.2,0.2-0.3,0.5-0.5,0.7c-0.2,0.2-0.5,0.6-0.7,0.9L40,28.8l-0.3,0.4c-0.2,0.2-0.4,0.5-0.6,0.7c-0.6,0.8-0.2,0.6,0.2,0.2
	c0,0,0.2-0.2,0.5-0.5l0.5-0.5l0.3-0.3c0.3-0.3,0.5-0.6,0.8-0.9l0.3-0.4v0.7l0,0c0,0-0.1,0.1-0.2,0.3c-0.1,0.2-0.3,0.4-0.4,0.6
	c-0.2,0.2-0.4,0.4-0.5,0.6L40.4,30c-0.1,0.2-0.2,0.4-0.3,0.6c-0.2,0.4,0,0.4,0.2,0.2c0.1-0.1,0.2-0.1,0.2-0.2l0.3-0.2l0.2-0.3
	c0.1-0.2,0.3-0.4,0.5-0.6v-0.3v0.6l0,0l0,0l-0.1,0.1l-0.1,0.1c-0.1,0.1-0.2,0.2-0.2,0.3L41,30.4c-0.1,0.1-0.1,0.2-0.1,0.3
	c-0.1,0.1,0,0.2,0,0.2L36.7,31.1z"/>
<path class="st2" d="M126.6,31.5c0.6-0.1,1-0.2,0-0.3c-0.6-0.1-1.4-0.1-1.4-0.1h-2.5c0.1-0.2,0.1-0.3,0.1-0.5
	c0.1-0.6,0.1-1.4,0.1-1.4V8.3l0,0c-0.2-0.3-0.4-0.1-0.5,0l0,0l0,0c-0.2-0.1-0.4-0.1-0.6-0.1h-0.3l0,0c-0.5-0.1-1.1-0.1-1.1-0.1h-3.3
	l0,0c-0.3,0.2-0.1,0.4,0,0.5l0,0l0,0l0,0v0.1c-0.1,0.6-0.1,1.4-0.1,1.4v20.9l0,0l0.1,0.1h-1.8c0.1-0.2,0.1-0.3,0.1-0.5
	c0.1-0.6,0.1-1.4,0.1-1.4v-7.8c0.3,0.2,0.4,0.2,0-0.3v-6.4l0,0c-0.2-0.3-0.4-0.1-0.5,0l0,0l0,0c-0.2-0.1-0.4-0.1-0.6-0.1
	c-0.6-0.1-1.4-0.1-1.4-0.1h-1.2h-0.1l0,0H112h-1.9l0,0c-0.3,0.2-0.1,0.4,0,0.5h0.1v0.1c-0.1,0.6-0.1,1.4-0.1,1.4v14.6l0,0l0.1,0.1
	h-1.8c0.1-0.2,0.1-0.3,0.1-0.5c0.1-0.6,0.1-1.4,0.1-1.4v-8.8l0,0c-0.2-0.3-0.4-0.1-0.5,0l0,0l0,0c-0.2-0.1-0.4-0.1-0.6-0.1
	c-0.6-0.1-1.4-0.1-1.4-0.1h-3.2l0,0c-0.3,0.2-0.1,0.4,0,0.5h0.1v0.1c-0.1,0.6-0.1,1.4-0.1,1.4v9l0,0l0.1,0.1h-1.8
	c0.1-0.2,0.1-0.3,0.1-0.5c0.1-0.6,0.1-1.4,0.1-1.4v-4.4l0,0c-0.2-0.3-0.4-0.1-0.5,0l0,0l0,0c-0.2-0.1-0.4-0.1-0.6-0.1
	c-0.6-0.1-1.4-0.1-1.4-0.1h-3.2l0,0c-0.3,0.2-0.1,0.4,0,0.5h0.1v0.1c-0.1,0.6-0.1,1.4-0.1,1.4V29h-0.1l0.1,0.2v1.2l0,0l0,0v0.1v0.3
	l0,0l0.1,0.1h-4.6l0,0c-0.3,0.2-0.1,0.4,0,0.5h34.4C125.5,31.4,126.6,31.6,126.6,31.5z M100,25c0.2,0,0.4,0,0.6-0.1V26
	c0-0.1-0.1-0.2-0.1-0.2c0,0-0.2-0.3-0.4-0.6L99.9,25L100,25z M98.6,25.1h0.6l0.1,0.2l0.3,0.4c0.2,0.3,0.4,0.5,0.4,0.5
	c0.1,0.1,0.2,0.2,0.3,0.3c0.1,0,0.1,0.1,0.2,0.1V28l0,0c-0.1-0.3-0.3-0.6-0.4-0.8l-0.2-0.3l-0.1-0.1l-0.3-0.4
	c-0.2-0.2-0.4-0.5-0.6-0.7c-0.2-0.2-0.4-0.4-0.6-0.5L98.6,25.1z M98,25.1L98,25.1c0,0.1,0,0.2,0,0.3l0,0c0.2,0.2,0.4,0.4,0.6,0.6
	c0.2,0.2,0.4,0.4,0.6,0.7l0.2,0.3l0.1,0.2l0.3,0.4c0.2,0.3,0.4,0.6,0.4,0.5s0.2,0.2,0.3,0.3v0.7v0.3c-0.1-0.3-0.3-0.5-0.4-0.8
	l-0.2-0.4l-0.3-0.4c-0.3-0.4-0.6-0.9-1-1.3c-0.2-0.2-0.3-0.4-0.5-0.6l-0.6-0.6l-0.3-0.3L98,25.1z M96.2,31.1c0-0.1,0-0.2,0-0.2
	L96,30.6l-0.1-0.1v-0.4l0,0c0.1,0.1,0.2,0.2,0.3,0.3c0.2,0.2,0.3,0.4,0.5,0.6l0.1,0.1L96.2,31.1z M97.2,31.1
	c-0.1-0.2-0.1-0.3-0.2-0.4c-0.2-0.2-0.3-0.4-0.5-0.6c-0.1-0.1-0.2-0.2-0.3-0.3c-0.1-0.1-0.2-0.2-0.4-0.3l0,0v-0.6
	c0.1,0.1,0.3,0.3,0.4,0.4l0.1,0.2l0.3,0.3l0.2,0.2l0.3,0.4c0.2,0.3,0.5,0.5,0.5,0.5c0.1,0.1,0.3,0.2,0.4,0.3L97.2,31.1z M98.1,31.1
	C98.1,31.1,98.1,31.1,98.1,31.1c-0.1-0.2-0.2-0.4-0.3-0.5l-0.5-0.8l-0.3-0.4l-0.3-0.4l-0.1-0.2c-0.2-0.2-0.4-0.4-0.7-0.6h-0.1v-0.8
	l0.1,0.1c0.1,0.1,0.2,0.2,0.3,0.3c0.2,0.2,0.5,0.5,0.7,0.7c0.2,0.3,0.4,0.5,0.6,0.8l0.2,0.3l0.5,0.6c0.2,0.3,0.5,0.6,0.4,0.5
	c0.1,0.2,0.3,0.3,0.5,0.4c0.1,0,0-0.1-0.2-0.6c-0.1-0.3-0.3-0.6-0.5-0.8l-0.2-0.4L97.9,29c-0.2-0.3-0.4-0.5-0.6-0.8
	c-0.2-0.3-0.5-0.5-0.7-0.8c-0.1-0.1-0.2-0.2-0.3-0.3L96.1,27L96,26.9l-0.1-0.1l0,0v-0.1c0,0,0-0.5-0.1-0.9l0.3,0.3
	c0.2,0.2,0.5,0.5,0.7,0.7c0.2,0.2,0.4,0.5,0.6,0.8c0.4,0.5,0.8,1.1,1.2,1.6l0.2,0.3l0.5,0.6c0.2,0.3,0.5,0.6,0.4,0.5
	c0.1,0.2,0.3,0.3,0.5,0.4c0.1,0,0-0.1-0.2-0.6s-0.7-1.2-0.7-1.2l-0.3-0.4c-0.4-0.5-0.8-1.1-1.2-1.6c-0.2-0.3-0.4-0.5-0.6-0.8
	c-0.2-0.3-0.5-0.5-0.7-0.7c-0.2-0.2-0.3-0.4-0.5-0.6h0.6c0.2,0.2,0.4,0.5,0.6,0.7l0.6,0.6c0.2,0.2,0.3,0.4,0.5,0.6
	c0.3,0.4,0.7,0.8,1,1.3l0.2,0.3l0.5,0.6c0.2,0.3,0.5,0.6,0.4,0.5l0.3,0.3c0,0.4,0,0.7,0,0.6c0,0.2,0,0.4,0.1,0.5H98.1z M105.8,20.5
	h0.6v0.1l0,0l0.1,0.1l0.3,0.3c0.2,0.2,0.4,0.4,0.4,0.4l0.1,0.1l0.1,0.1c0.1,0.1,0.3,0.1,0.2-0.2c0-0.1-0.1-0.2-0.1-0.3
	c0,0-0.2-0.2-0.4-0.5l-0.2-0.2h0.2c0.2,0,0.4,0,0.6-0.1v2.9v-0.1c-0.1-0.2-0.3-0.5-0.5-0.8l-0.3-0.4l-0.3-0.4
	c-0.2-0.3-0.5-0.6-0.8-0.8L105.8,20.5L105.8,20.5z M105.4,20.5L105.4,20.5L105.4,20.5C105.4,20.5,105.4,20.5,105.4,20.5L105.4,20.5z
	 M104.9,20.5L104.9,20.5l0.1,0.1l0.1,0.1l0,0l0,0l0,0l0,0l0.4,0.3c0.3,0.2,0.5,0.5,0.7,0.8l0.3,0.3l0.5,0.5c0.2,0.3,0.5,0.5,0.5,0.5
	l0.3,0.3v1.4c-0.3-0.5-0.8-1.1-0.8-1.1l-0.3-0.4l-1.1-1.3c-0.2-0.2-0.4-0.4-0.6-0.7c-0.2-0.2-0.4-0.4-0.7-0.6l-0.4-0.3L104.9,20.5z
	 M103.3,20.5C103.3,20.6,103.3,20.6,103.3,20.5L103.3,20.5c0.2,0.3,0.4,0.5,0.7,0.7s0.4,0.4,0.6,0.6c0.2,0.2,0.4,0.4,0.6,0.6
	l1.1,1.3l0.3,0.3l0.5,0.5c0.3,0.3,0.5,0.5,0.5,0.5l0.2,0.2V26l-0.4-0.5l-0.3-0.4l-0.3-0.4c-0.5-0.5-1-1-1.4-1.6
	c-0.1-0.1-0.2-0.3-0.4-0.4l-0.4-0.4l-0.8-0.7l-0.6-0.6H103c0-0.3,0-0.6,0-0.6v-0.1L103.3,20.5z M103.1,21.9l0.3,0.3l0.8,0.7l0.4,0.4
	c0.1,0.1,0.2,0.2,0.4,0.4c0.5,0.5,1,1,1.4,1.6l0.3,0.3c0,0,0.3,0.3,0.6,0.5c0.2,0.2,0.4,0.3,0.6,0.4h0.1v1.2c0-0.1-0.1-0.2-0.2-0.3
	c-0.3-0.5-0.9-1.1-0.9-1.1l-0.3-0.4l-1.2-1.3l-0.3-0.3l-0.2-0.2l-0.2-0.2c-0.2-0.2-0.5-0.4-0.7-0.6c-0.2-0.2-0.4-0.4-0.5-0.6l0,0
	h-0.2L103.1,21.9L103.1,21.9z M103,31.1c0,0,0.1-0.1,0.1-0.1l0,0v-0.2l0.3,0.3L103,31.1z M103.9,31.1c0-0.1,0-0.2-0.1-0.3l-0.4-0.4
	l-0.3-0.3l-0.1-0.1v-0.8l0.2,0.3l0.2,0.2l0.3,0.3c0,0,0.2,0.3,0.5,0.5l0.4,0.4L103.9,31.1z M105,31.1l-0.1-0.2l-0.5-0.7l-0.3-0.4
	l-0.3-0.4l-0.1-0.2c-0.2-0.2-0.3-0.5-0.5-0.7l0,0h-0.1v-0.9l0.4,0.5c0.3,0.4,0.7,0.8,1,1.2l0.3,0.3l0.5,0.5c0.2,0.3,0.5,0.5,0.5,0.5
	c0.4,0.4,0.8,0.6,0.2-0.2c-0.3-0.5-0.8-1.2-0.8-1.2l-0.3-0.4c-0.3-0.4-0.6-0.8-1-1.2l-0.6-0.7l0,0h-0.2v-0.8l0.2,0.2
	c0.8,1,1.6,2,2.4,3l0.3,0.3c0,0,1,1.1,1,1.1l0.2,0.2L105,31.1z M107.3,31.1c-0.1-0.1-0.1-0.3-0.2-0.4c-0.3-0.5-0.7-1.2-0.7-1.2
	l-0.3-0.4c-0.8-1-1.6-2.1-2.4-3.1l-0.3-0.3l-0.3-0.3v-0.6l0.2,0.3c0.5,0.5,1,1,1.4,1.5l1.3,1.6l0.3,0.3l0.5,0.5
	c0.3,0.3,0.5,0.5,0.5,0.5c0.1,0.1,0.3,0.3,0.5,0.4c0.1,0,0-0.1-0.3-0.5c-0.2-0.2-0.4-0.5-0.5-0.7l-0.3-0.4l-0.3-0.4l-1.3-1.6
	c-0.5-0.6-1-1-1.4-1.5c-0.2-0.2-0.4-0.4-0.6-0.6l0,0l0,0v-0.7c0.1,0.1,0.2,0.3,0.4,0.4c0.2,0.2,0.5,0.4,0.7,0.6l0.1,0.1l0.1,0.2
	l0.3,0.3l1.2,1.3l0.3,0.3l0.5,0.5c0.3,0.2,0.5,0.5,0.5,0.5c0.1,0.1,0.3,0.2,0.5,0.3v1.3c0,0,0.1,1.5,0.1,1.4c0,0.2,0,0.4,0.1,0.5
	L107.3,31.1z M113.1,14.9h0.4c0,0,0,0.1,0,0.1l0,0l0.2,0.2c0.1,0.1,0.2,0.2,0.4,0.4c0.1,0.1,0.5,0.6,0.5,0.6l0.2,0.2
	c0.1,0.1,0.1,0.1,0.2,0.1c0.2,0.1,0.3,0.1,0.2-0.2c0-0.1-0.1-0.3-0.2-0.4c0,0-0.2-0.3-0.5-0.6l-0.3-0.4h0.5c0.2,0,0.4,0,0.6-0.1v2.7
	l0,0c-0.1-0.2-0.3-0.5-0.5-0.7l-0.3-0.4L114,16c-0.3-0.4-0.7-0.7-1.1-1L113.1,14.9z M110.3,14.9L110.3,14.9L110.3,14.9l0.6,0.6
	c0.7,0.7,1.5,1.5,2.2,2.2l0.3,0.3l0.6,0.5c0.3,0.2,0.5,0.5,0.5,0.4c0.5,0.4,0.8,0.6,0.2-0.2c-0.3-0.5-0.9-1-0.9-1l-0.4-0.3
	c-0.7-0.7-1.5-1.4-2.2-2.2l-0.3-0.3h0.9c0.2,0.1,0.4,0.2,0.5,0.4c0.4,0.3,0.8,0.6,1.1,1l0.3,0.3l0.2,0.2l0.4,0.4
	c0.3,0.3,0.5,0.5,0.5,0.5l0.2,0.2v2.6l-0.1-0.1l-0.3-0.4l-0.4-0.3c-0.5-0.5-1.1-1-1.6-1.5l-0.8-0.7l-0.1-0.1l-0.1-0.1l-0.2-0.2
	l-0.4-0.3c-0.2-0.2-0.4-0.4-0.5-0.6l0,0h-0.1c0-0.4-0.1-1.1-0.1-1.1L110.3,14.9L110.3,14.9z M114.3,24.7c-0.3-0.5-0.8-1.1-0.8-1.1
	l-0.3-0.4c-0.7-0.8-1.4-1.6-2.1-2.4l-0.3-0.3l-0.2-0.2l-0.2-0.1l0,0v-0.9l0,0l0.3,0.3c1.1,0.9,2.1,1.9,3,2.9l0.3,0.3l0.5,0.5
	c0.3,0.3,0.5,0.5,0.5,0.5l0.1,0.1v3.3c0-0.1-0.1-0.2-0.2-0.3c-0.3-0.5-0.9-1.1-0.9-1.1l-0.3-0.4c-0.9-0.9-1.8-1.9-2.6-2.9
	c-0.2-0.2-0.3-0.5-0.5-0.7l0,0c-0.1,0-0.1,0-0.2,0v-0.8l0,0l0.3,0.3c0.7,0.7,1.4,1.5,2.1,2.3l0.3,0.3l0.5,0.5
	c0.3,0.3,0.5,0.5,0.5,0.5c0.1,0.1,0.3,0.3,0.5,0.3C114.7,25.2,114.7,25,114.3,24.7L114.3,24.7z M114.4,22.5l-0.3-0.4
	c-0.9-1.1-1.9-2.1-3-3l-0.3-0.3l-0.4-0.3l0,0V18c0.2,0.2,0.3,0.3,0.5,0.5l0.6,0.5l0.6,0.5l1.1,1l0.3,0.3c0,0,1.1,1,1.1,0.9
	c0.5,0.4,0.8,0.5,0.2-0.2c-0.3-0.5-0.9-1-0.9-1l-0.4-0.3l-1.1-1l-0.6-0.5c-0.2-0.2-0.4-0.3-0.6-0.5c-0.2-0.2-0.4-0.4-0.6-0.6l0,0
	c-0.1,0-0.2,0-0.2,0v-0.7c0.1,0.1,0.2,0.2,0.3,0.3c0.3,0.2,0.6,0.5,0.8,0.7l0.8,0.7c0.5,0.5,1.1,1,1.6,1.5l0.3,0.3l0.6,0.5l0.3,0.2
	v2.5C114.8,23,114.5,22.5,114.4,22.5L114.4,22.5z M110.3,31.1c0,0,0.1-0.1,0.1-0.1l0,0v-0.4l0.1,0.1l0.4,0.4l0.1,0.1L110.3,31.1
	L110.3,31.1z M111.3,31.1c0,0,0-0.1,0-0.1c0-0.1-0.1-0.2-0.1-0.3l-0.4-0.4l-0.4-0.4l0,0h-0.1v-0.4l0.3,0.4c0.2,0.2,0.4,0.5,0.6,0.6
	l0.3,0.3l0.3,0.2l0.2,0.1L111.3,31.1z M112.3,31.1l-0.1-0.1c-0.1-0.2-0.2-0.4-0.4-0.6l-0.3-0.3c-0.1-0.2-0.3-0.4-0.5-0.6
	c-0.2-0.2-0.3-0.4-0.5-0.6c-0.1-0.2-0.2-0.3-0.2-0.3h-0.1v-1.4c0.1,0.2,0.3,0.4,0.4,0.5l0.1,0.1l0.1,0.1l0.1,0.2l0.3,0.3l0.5,0.7
	l0.3,0.3l0.5,0.5c0.2,0.2,0.3,0.3,0.5,0.5c0.1,0.1,0.3,0.3,0.5,0.3c0.1,0,0-0.1-0.3-0.5l-0.8-1.1l-0.3-0.4l-0.5-0.7l-0.3-0.3
	l-0.1-0.2l-0.1-0.1l-0.1-0.1c-0.2-0.2-0.3-0.4-0.5-0.7l0,0c-0.1,0-0.2,0-0.3,0v-1.2c0.2,0.1,0.3,0.3,0.4,0.4l0.3,0.3l0.2,0.2
	l0.1,0.2l0.6,0.7l1.2,1.4l0.3,0.3l0.5,0.5c0.3,0.3,0.5,0.5,0.5,0.5c0.5,0.4,0.8,0.6,0.2-0.2c-0.3-0.5-0.8-1.1-0.8-1.1l-0.3-0.4
	l-1.1-1.4l-0.6-0.7l-0.2-0.2l-0.2-0.2l-0.3-0.3c-0.2-0.2-0.4-0.4-0.7-0.6h-0.1v-1.1l0.1,0.1l0.1,0.1l0.1,0.1l0.3,0.3
	c0.7,0.8,1.4,1.6,2.2,2.3l0.3,0.3l0.5,0.5c0.3,0.3,0.5,0.5,0.5,0.5c0.5,0.4,0.8,0.6,0.2-0.2c-0.3-0.5-0.8-1.1-0.8-1.1l-0.3-0.4
	c-0.7-0.8-1.4-1.6-2.2-2.3l-0.3-0.4l-0.1-0.1l-0.1-0.1l-0.1-0.1h-0.1h-0.1l0,0l0,0c0,0,0,0,0-0.1l0,0l0,0v-1l0.3,0.4
	c0.8,1,1.7,2,2.6,3l0.3,0.3l0.5,0.5c0.3,0.2,0.5,0.5,0.5,0.5c0.1,0.1,0.3,0.2,0.5,0.3v1.8c0,0,0.1,1.5,0.1,1.4c0,0.2,0,0.4,0.1,0.5
	L112.3,31.1z M122.4,8.4V9h0L122,8.7l-0.2-0.2C122.1,8.5,122.3,8.5,122.4,8.4z M120.4,8.6h0.8l0.1,0.1c0.1,0.1,0.2,0.2,0.3,0.4
	l0.3,0.3l0.2,0.2l0.2,0.1h0.1v1.2l-0.1-0.1c-0.2-0.2-0.4-0.5-0.5-0.7l-0.3-0.4l-0.4-0.3c-0.3-0.2-0.5-0.5-0.8-0.7l-0.1-0.1
	L120.4,8.6z M119.3,8.6L119.3,8.6L119.3,8.6c0.2,0.1,0.5,0.3,0.7,0.4c0.3,0.2,0.5,0.4,0.8,0.6l0.3,0.3l0.5,0.5
	c0.3,0.2,0.5,0.5,0.5,0.5l0.3,0.2v1.2l-0.5-0.6l-0.3-0.3l-0.4-0.3c-0.9-0.8-1.9-1.7-2.9-2.5l-0.1-0.1L119.3,8.6z M117.6,8.9l0.3,0.3
	c1,0.8,1.9,1.6,2.9,2.5l0.3,0.3l0.6,0.5c0.3,0.2,0.6,0.4,0.6,0.4l0.1,0.1v1.3l-0.1-0.1c-0.4-0.4-1-0.9-1-0.9l-0.4-0.3l-1.3-1
	l-0.3-0.3l-0.1-0.1l-0.1-0.1l-0.2-0.1c-0.2-0.2-0.5-0.3-0.7-0.4c-0.2-0.1-0.4-0.3-0.5-0.5l0,0h-0.2v-0.1
	C117.7,10.1,117.7,9.2,117.6,8.9L117.6,8.9z M121.8,25.1c0.5,0.3,0.9,0.5,0.2-0.2l-0.6-0.6l-0.3-0.3l-0.4-0.3
	c-0.8-0.7-1.6-1.5-2.4-2.2l-0.6-0.6v-0.6l0.3,0.2l0.6,0.4l0.3,0.2l0.3,0.2c0.4,0.3,0.7,0.6,1.1,1l0.3,0.3l0.6,0.5
	c0.3,0.2,0.6,0.5,0.5,0.4c0.2,0.1,0.3,0.2,0.5,0.3c0.1,0,0-0.1-0.3-0.5l-0.6-0.7l-0.3-0.4l-0.4-0.3c-0.4-0.3-0.7-0.7-1.1-1l-0.3-0.2
	l-0.3-0.2l-0.6-0.4c-0.2-0.2-0.4-0.3-0.6-0.5v-0.9l0.3,0.2c0.9,0.7,1.7,1.4,2.5,2.1l0.3,0.3l0.6,0.4c0.3,0.2,0.6,0.4,0.6,0.4
	c0.1,0.1,0.3,0.1,0.4,0.2V27l-0.1-0.1c-0.3-0.5-0.9-1-0.9-1l-0.3-0.3l-1.4-1.3l-0.7-0.7l-0.7-0.7c-0.2-0.2-0.4-0.4-0.6-0.6l0,0h-0.1
	v-0.7l0.3,0.3c0.8,0.7,1.6,1.5,2.4,2.2l0.3,0.3l0.6,0.4C121.6,24.9,121.8,25.1,121.8,25.1L121.8,25.1z M122.2,21.7l-1-0.9l-0.4-0.3
	c-0.8-0.7-1.7-1.4-2.5-2.1c-0.2-0.2-0.4-0.3-0.6-0.5V17c0.2,0.2,0.3,0.3,0.5,0.4l0.3,0.2l0.3,0.2l0.6,0.5l1.2,1.1l0.3,0.3l0.6,0.4
	c0.3,0.2,0.6,0.4,0.6,0.4l0.3,0.2v1.1L122.2,21.7z M122.3,20.4l-1-1l-0.4-0.3l-1.2-1.1l-0.6-0.5l-0.3-0.3l-0.3-0.2
	c-0.2-0.2-0.4-0.3-0.6-0.5h-0.2v-1l0.5,0.4c0.8,0.7,1.6,1.3,2.4,2l0.3,0.3l0.6,0.4c0.3,0.2,0.6,0.4,0.6,0.4l0.4,0.2v1.3L122.3,20.4z
	 M122.3,18.8c-0.4-0.4-1-1-1-1l-0.4-0.3c-0.8-0.7-1.6-1.4-2.5-2l-0.7-0.5h-0.1V14l0.2,0.2l0.4,0.2c0.7,0.5,1.5,1.1,2.1,1.7l0.3,0.3
	l0.6,0.4c0.3,0.2,0.6,0.4,0.6,0.4c0.2,0.1,0.3,0.2,0.5,0.3l0,0V19L122.3,18.8z M122.1,16.9c-0.4-0.4-1-1-1-1l-0.4-0.3
	c-0.7-0.6-1.4-1.2-2.2-1.7l-0.4-0.3c-0.1-0.1-0.2-0.2-0.3-0.2h-0.2v-0.6l0.2,0.1l0.4,0.2c0.8,0.5,1.5,1,2.3,1.6l0.3,0.3l0.6,0.4
	l0.6,0.4l0.4,0.2v1.3C122.3,17.1,122.2,17,122.1,16.9L122.1,16.9z M122.3,15.6c-0.4-0.4-1-0.9-1-0.9l-0.4-0.3
	c-0.7-0.6-1.5-1.1-2.3-1.6l-0.4-0.2l-0.4-0.2h-0.1v-1.4l0.1,0.1c0.1,0.1,0.2,0.2,0.4,0.3c0.2,0.2,0.5,0.3,0.7,0.5l0.2,0.1l0.1,0.1
	l0.1,0.1l0.3,0.3l1.3,1l0.3,0.3l0.6,0.4l0.6,0.4l0.2,0.1v1.4L122.3,15.6z M117.6,31.1c0,0,0.1-0.1,0.1-0.1l0,0v-0.2l0.1,0.1l0.1,0.1
	l0.2,0.1h0.1L117.6,31.1z M118.4,31.1c0,0,0.1-0.1,0-0.2c0-0.1-0.1-0.2-0.1-0.3l-0.1-0.1c-0.1-0.1-0.2-0.2-0.2-0.3l-0.1-0.1
	l-0.1-0.1l0,0l0,0v-0.7l0.3,0.3c0.2,0.2,0.4,0.4,0.5,0.6l0.2,0.3l0.3,0.2c0.1,0.1,0.2,0.1,0.2,0.2c0.2,0.2,0.4,0.2,0.2-0.2
	c-0.1-0.2-0.2-0.4-0.3-0.6l-0.2-0.3c-0.1-0.2-0.3-0.4-0.5-0.6s-0.3-0.4-0.4-0.6c-0.1-0.2-0.2-0.3-0.2-0.3l0,0v-0.7l0.3,0.4
	c0.2,0.3,0.5,0.6,0.8,0.9l0.3,0.3l0.5,0.5c0.3,0.2,0.5,0.5,0.5,0.5c0.5,0.4,0.8,0.6,0.2-0.2c-0.2-0.2-0.4-0.5-0.6-0.7l-0.3-0.4
	l-0.3-0.4c-0.3-0.3-0.5-0.6-0.7-0.9s-0.3-0.5-0.5-0.7l0,0c-0.1,0-0.1,0-0.2,0v-1.2c0.2,0.2,0.4,0.4,0.6,0.5l0.1,0.1l0,0l0,0l0.2,0.2
	l0.3,0.3l0.6,0.7c0.4,0.5,0.8,0.9,1.1,1.4l0.3,0.3l0.5,0.5c0.2,0.3,0.5,0.5,0.5,0.5c0.1,0.2,0.3,0.3,0.5,0.4c0.1,0,0-0.1-0.3-0.5
	c-0.3-0.4-0.8-1.1-0.8-1.1l-0.3-0.4c-0.4-0.5-0.8-1-1.2-1.4c-0.2-0.2-0.4-0.5-0.6-0.7l-0.3-0.3l-0.2-0.2l0,0l0,0l-0.1-0.1l-0.3-0.3
	c-0.1-0.1-0.2-0.2-0.3-0.3l0,0c-0.1,0-0.2,0-0.3,0v-1l0.3,0.2l0.3,0.3l0.3,0.3l0.6,0.6c0.4,0.4,0.8,0.8,1.2,1.2l0.3,0.3l0.5,0.5
	c0.3,0.3,0.5,0.5,0.5,0.5c0.4,0.4,0.8,0.6,0.2-0.2c-0.3-0.5-0.8-1.1-0.8-1.1l-0.3-0.4c-0.4-0.4-0.8-0.8-1.2-1.2l-0.6-0.6l-0.3-0.3
	l-0.3-0.3c-0.2-0.2-0.4-0.4-0.6-0.6l0,0l0,0v-0.7l0.3,0.3l0.7,0.7l0.7,0.7l1.4,1.3l0.3,0.3c0,0,1.1,1,1.1,0.9l0.3,0.2v1.9
	c0,0,0.1,1.5,0.1,1.4c0,0.2,0,0.4,0.1,0.5L118.4,31.1z"/>
<path class="st2" d="M63.8,31.6h34.4c0.1-0.1,0.3-0.3,0-0.5l0,0h-4.6l0.1-0.1l0,0v-0.3v-0.1l0,0l0,0v-1.2l0.1-0.2h-0.1v-2.6
	c0,0,0-0.8-0.1-1.4v-0.1h0.1c0.1-0.1,0.3-0.3,0-0.5l0,0h-3.2c0,0-0.8,0.1-1.4,0.1c-0.2,0-0.4,0-0.6,0.1l0,0l0,0
	c-0.1-0.1-0.3-0.3-0.5,0l0,0v4.4c0,0,0,0.8,0.1,1.4c0,0.2,0,0.4,0.1,0.5h-1.8l0.1-0.1l0,0v-9c0,0,0-0.8-0.1-1.4v-0.1h0.1
	c0.1-0.1,0.3-0.3,0-0.5l0,0h-3.2c0,0-0.8,0.1-1.4,0.1c-0.2,0-0.4,0-0.6,0.1l0,0l0,0c-0.1-0.1-0.3-0.3-0.5,0l0,0v9c0,0,0,0.8,0.1,1.4
	c0,0.2,0,0.4,0.1,0.5h-1.8l0.1-0.1l0,0V16.3c0,0,0-0.8-0.1-1.4v-0.1h0.1c0.1-0.1,0.3-0.3,0-0.5l0,0h-1.9h-0.1l0,0h-0.1h-1.4
	c0,0-0.8,0.1-1.4,0.1c-0.2,0-0.4,0-0.6,0.1l0,0l0,0c-0.1-0.1-0.3-0.3-0.5,0l0,0V21c-0.4,0.5-0.3,0.5,0,0.3v7.8c0,0,0,0.8,0.1,1.4
	c0,0.2,0,0.4,0.1,0.5h-1.8l0.1-0.1l0,0V10c0,0,0-0.8-0.1-1.4V8.6l0,0l0,0l0,0c0.1-0.1,0.3-0.3,0-0.5l0,0h-3.2c0,0-0.5,0-1.1,0.1l0,0
	h-0.3c-0.2,0-0.4,0-0.6,0.1l0,0l0,0c-0.1-0.1-0.3-0.3-0.5,0l0,0v20.9c0,0,0,0.8,0.1,1.4c0,0.2,0,0.4,0.1,0.5h-2.6
	c0,0-0.8,0.1-1.4,0.1c-1,0.1-0.6,0.2,0,0.3C62.3,31.5,63.8,31.6,63.8,31.6z M89.1,25l-0.2,0.2c-0.2,0.3-0.4,0.6-0.4,0.6
	c0,0.1-0.1,0.2-0.1,0.2v-1.2c0.2,0.1,0.4,0.1,0.6,0.1L89.1,25z M90.5,25c-0.2,0.2-0.4,0.3-0.6,0.5c-0.2,0.2-0.4,0.5-0.6,0.7
	l-0.3,0.4L89,26.8l-0.2,0.3c-0.1,0.2-0.3,0.5-0.4,0.8l0,0v-1.6c0.1,0,0.1,0,0.2-0.1c0.1-0.1,0.2-0.2,0.3-0.3c0,0,0.2-0.3,0.4-0.5
	l0.3-0.4l0.1-0.2h0.6L90.5,25z M91.7,25l-0.3,0.3l-0.6,0.6c-0.2,0.2-0.4,0.4-0.5,0.6c-0.3,0.4-0.7,0.9-1,1.3L89,28.2l-0.2,0.4
	c-0.1,0.2-0.3,0.5-0.4,0.8v-0.3v-0.7c0.1-0.1,0.2-0.2,0.3-0.3c0.1-0.1,0.2-0.3,0.4-0.5l0.3-0.4l0.1-0.2l0.2-0.3
	c0.2-0.2,0.4-0.4,0.6-0.7c0.2-0.2,0.4-0.4,0.6-0.6l0,0c0-0.1,0-0.2,0-0.2v-0.1L91.7,25z M92.2,31.1l0.1-0.1c0.2-0.2,0.3-0.4,0.5-0.6
	c0.1-0.1,0.2-0.2,0.3-0.3l0,0v0.4L93,30.6l-0.2,0.3c0,0.1,0,0.2,0,0.2L92.2,31.1z M90.9,31.1c0.2-0.1,0.3-0.2,0.4-0.3
	c0,0,0.2-0.2,0.5-0.5l0.3-0.4l0.2-0.2l0.3-0.3l0.1-0.2c0.1-0.1,0.3-0.3,0.4-0.4v0.6l0,0c-0.1,0.1-0.3,0.2-0.4,0.3
	c-0.1,0.1-0.2,0.2-0.3,0.3c-0.2,0.2-0.4,0.4-0.5,0.6c-0.1,0.1-0.1,0.3-0.2,0.4L90.9,31.1z M88.2,31.1c0.1-0.2,0.1-0.4,0.1-0.5
	c0,0,0-0.3,0-0.6l0.3-0.3c0,0,0.2-0.3,0.4-0.5l0.5-0.6l0.2-0.3c0.3-0.4,0.6-0.9,1-1.3c0.2-0.2,0.3-0.4,0.5-0.6l0.6-0.6
	c0.2-0.2,0.4-0.4,0.6-0.7H93c-0.1,0.2-0.3,0.4-0.5,0.6c-0.2,0.2-0.5,0.5-0.7,0.7c-0.2,0.3-0.4,0.5-0.6,0.8c-0.4,0.5-0.8,1.1-1.2,1.6
	l-0.3,0.4c0,0-0.4,0.7-0.7,1.2c-0.3,0.5-0.3,0.6-0.2,0.6c0.2-0.1,0.3-0.2,0.5-0.4c0,0,0.2-0.2,0.4-0.5l0.5-0.6l0.2-0.3
	c0.4-0.5,0.8-1.1,1.2-1.6c0.2-0.3,0.4-0.5,0.6-0.8c0.2-0.2,0.4-0.5,0.7-0.7l0.3-0.3c0,0.4-0.1,0.9-0.1,0.9v0.1l0,0L93,26.8l-0.1,0.1
	L92.7,27c-0.1,0.1-0.2,0.2-0.3,0.3c-0.3,0.2-0.5,0.5-0.7,0.8c-0.2,0.3-0.4,0.5-0.6,0.8l-0.3,0.4l-0.2,0.4c-0.1,0.2-0.3,0.5-0.5,0.8
	c-0.2,0.4-0.3,0.6-0.2,0.6c0.2-0.1,0.3-0.2,0.5-0.4c0,0,0.2-0.2,0.4-0.5l0.5-0.6l0.2-0.3c0.2-0.3,0.4-0.5,0.6-0.8
	c0.2-0.2,0.4-0.5,0.7-0.7c0.1-0.1,0.2-0.2,0.3-0.3l0.1-0.1v0.8H93c-0.2,0.2-0.5,0.4-0.7,0.6L92.2,29l-0.3,0.4l-0.3,0.4l-0.5,0.8
	c-0.1,0.1-0.2,0.3-0.3,0.4c0,0,0,0.1,0,0.1L88.2,31.1z M83.2,20.5L83,20.7c-0.3,0.3-0.5,0.5-0.8,0.8l-0.3,0.4l-0.3,0.4
	c-0.1,0.2-0.3,0.5-0.5,0.8v0.1v-2.9c0.2,0.1,0.4,0.1,0.6,0.1h0.2l-0.2,0.2c-0.2,0.2-0.4,0.5-0.4,0.5c0,0.1-0.1,0.2-0.1,0.3
	c0,0.3,0.1,0.3,0.2,0.2l0.1-0.1l0.1-0.1c0,0,0.2-0.2,0.4-0.4l0.3-0.3l0.1-0.1l0,0v-0.1L83.2,20.5L83.2,20.5z M83.6,20.5L83.6,20.5
	L83.6,20.5C83.6,20.5,83.6,20.4,83.6,20.5L83.6,20.5z M85,20.5l-0.4,0.3c-0.2,0.2-0.4,0.4-0.7,0.6c-0.2,0.2-0.4,0.4-0.6,0.7
	l-1.1,1.3l-0.3,0.4c0,0-0.5,0.6-0.8,1.1v-1.4l0.3-0.3c0,0,0.2-0.2,0.5-0.5l0.5-0.5l0.3-0.3c0.2-0.3,0.5-0.5,0.7-0.8l0.4-0.3l0,0l0,0
	l0,0l0,0l0.1-0.1l0.1-0.1l0,0L85,20.5z M86,20.5v0.1c0,0,0,0.2,0,0.6h-0.1l-0.6,0.6l-0.8,0.7l-0.4,0.4c-0.1,0.1-0.3,0.3-0.4,0.4
	c-0.5,0.5-1,1-1.4,1.6l-0.3,0.4l-0.3,0.4L81.2,26v-0.8l0.2-0.2c0,0,0.2-0.2,0.5-0.5l0.5-0.5l0.3-0.3l1.1-1.3
	c0.2-0.2,0.4-0.5,0.6-0.6s0.4-0.4,0.6-0.6s0.4-0.4,0.7-0.6l0,0c0,0,0-0.1,0-0.1L86,20.5z M85.9,22v0.6h-0.2l0,0
	c-0.1,0.2-0.3,0.4-0.5,0.6c-0.2,0.2-0.4,0.4-0.7,0.6L84.3,24l-0.2,0.2l-0.3,0.3l-1.2,1.3l-0.3,0.4c0,0-0.5,0.6-0.9,1.1
	c-0.1,0.2-0.2,0.3-0.2,0.3v-1.2h0.1c0.2-0.1,0.4-0.3,0.6-0.4c0.3-0.2,0.6-0.5,0.6-0.5l0.3-0.3c0.5-0.5,1-1,1.4-1.6
	c0.1-0.1,0.2-0.3,0.4-0.4l0.4-0.4l0.8-0.7l0.3-0.3L85.9,22z M85.6,31.1l0.3-0.3v0.2l0,0c0,0,0.1,0.1,0.1,0.1L85.6,31.1z M84.3,31.1
	l0.4-0.4c0.3-0.3,0.5-0.5,0.5-0.5l0.3-0.3l0.2-0.2l0.2-0.3V30l-0.1,0.1l-0.3,0.3l-0.4,0.4c0,0.1-0.1,0.2-0.1,0.3L84.3,31.1z
	 M81.8,31.1l0.2-0.2c0,0.1,1-1.1,1-1.1l0.3-0.3c0.8-1,1.6-2.1,2.4-3l0.2-0.2V27h-0.2l0,0l-0.6,0.7c-0.3,0.4-0.7,0.8-1,1.2l-0.3,0.4
	c0,0-0.5,0.7-0.8,1.2c-0.5,0.8-0.2,0.6,0.2,0.2c0,0,0.2-0.2,0.5-0.5l0.5-0.5l0.3-0.3c0.3-0.4,0.6-0.8,1-1.2l0.4-0.5v0.9h-0.1l0,0
	c-0.1,0.2-0.3,0.5-0.5,0.7l-0.1,0.2L85,29.8l-0.3,0.4l-0.5,0.7l-0.1,0.2L81.8,31.1z M80.9,31.1c0.1-0.2,0.1-0.4,0.1-0.5
	c0,0.1,0.1-1.4,0.1-1.4v-1.3c0.2-0.1,0.3-0.2,0.5-0.3c0,0,0.2-0.2,0.5-0.5l0.5-0.5l0.3-0.3l1.2-1.3l0.3-0.3l0.1-0.2l0.1-0.1
	c0.2-0.2,0.5-0.4,0.7-0.6c0.1-0.1,0.3-0.2,0.4-0.4V24l0,0l0,0c-0.2,0.2-0.4,0.4-0.6,0.6c-0.5,0.5-1,1-1.4,1.5l-1.3,1.6l-0.3,0.4
	l-0.3,0.4c-0.2,0.2-0.4,0.5-0.5,0.7c-0.3,0.4-0.3,0.5-0.3,0.5c0.2-0.1,0.3-0.2,0.5-0.4c0,0,0.2-0.2,0.5-0.5l0.5-0.5l0.3-0.3l1.3-1.6
	c0.4-0.5,0.9-1,1.4-1.5l0.2-0.3v0.6l-0.3,0.3L85.3,26c-0.8,1-1.6,2-2.4,3.1l-0.3,0.4c0,0-0.4,0.7-0.7,1.2c-0.1,0.1-0.2,0.3-0.2,0.4
	L80.9,31.1z M76.1,14.8c-0.4,0.3-0.8,0.6-1.1,1l-0.3,0.4l-0.3,0.4c-0.2,0.2-0.4,0.5-0.5,0.7l0,0v-2.7c0.2,0.1,0.4,0.1,0.6,0.1h0.5
	l-0.3,0.4c-0.3,0.3-0.5,0.6-0.5,0.6c-0.1,0.1-0.1,0.3-0.2,0.4c-0.1,0.3,0.1,0.3,0.2,0.2c0.1,0,0.1-0.1,0.2-0.1l0.2-0.2
	c0,0,0.2-0.3,0.5-0.6c0.2-0.3,0.3-0.3,0.4-0.4l0.2-0.2l0,0c0,0,0-0.1,0-0.1h0.4L76.1,14.8z M78.7,14.8v0.1c0,0,0,0.7-0.1,1.1h-0.1
	l0,0c-0.1,0.2-0.3,0.4-0.5,0.6L77.5,17l-0.2,0.2l-0.1,0.1l-0.1,0.1L76.3,18c-0.5,0.5-1.1,1-1.6,1.5l-0.4,0.3L74,20.2l-0.1,0.1v-2.6
	l0.2-0.2c0,0,0.2-0.2,0.5-0.5l0.4-0.4l0.2-0.2l0.3-0.3c0.3-0.4,0.7-0.7,1.1-1c0.2-0.1,0.4-0.3,0.5-0.4H78l-0.3,0.3
	c-0.7,0.7-1.5,1.4-2.2,2.2l-0.4,0.3c0,0-0.5,0.6-0.9,1c-0.6,0.8-0.2,0.6,0.2,0.2c0,0,0.2-0.2,0.5-0.4l0.6-0.5l0.3-0.3
	c0.7-0.7,1.5-1.4,2.2-2.2L78.7,14.8L78.7,14.8L78.7,14.8L78.7,14.8z M74.3,25.2c0.2-0.1,0.4-0.2,0.5-0.3c0,0,0.2-0.2,0.5-0.5
	l0.5-0.5l0.3-0.3c0.7-0.8,1.4-1.6,2.1-2.3l0.3-0.3l0,0v0.8c-0.1,0-0.1,0-0.2,0l0,0c-0.2,0.2-0.3,0.5-0.5,0.7c-0.8,1-1.7,2-2.6,2.9
	l-0.3,0.4c0,0-0.5,0.6-0.9,1.1c-0.1,0.1-0.2,0.3-0.2,0.3v-3.3l0.1-0.1c0,0,0.2-0.2,0.5-0.5l0.5-0.5l0.3-0.3c0.9-1,1.9-2,3-2.9
	l0.3-0.3l0,0v0.9l0,0l-0.2,0.1l-0.2,0.2l-0.3,0.3c-0.8,0.7-1.5,1.6-2.1,2.4l-0.3,0.4c0,0-0.5,0.6-0.8,1.1
	C74.3,25.1,74.2,25.1,74.3,25.2L74.3,25.2z M73.8,23.4v-2.5l0.3-0.2l0.6-0.5l0.3-0.3c0.5-0.5,1.1-1,1.6-1.5l0.8-0.7
	c0.2-0.2,0.6-0.4,0.8-0.7c0.1-0.1,0.2-0.2,0.3-0.3v0.7c-0.1,0-0.2,0-0.2,0l0,0c-0.2,0.2-0.4,0.4-0.6,0.6c-0.2,0.2-0.4,0.3-0.6,0.5
	L76.6,19l-1.1,1l-0.4,0.3c0,0-0.5,0.6-0.9,1c-0.6,0.7-0.3,0.6,0.2,0.2c0,0.1,1.1-0.9,1.1-0.9l0.3-0.3l1.1-1l0.6-0.5l0.6-0.5
	c0.2-0.1,0.4-0.3,0.5-0.5v0.6l0,0l-0.4,0.3L77.9,19c-1.1,0.9-2.1,1.9-3,3l-0.3,0.4C74.6,22.4,74.1,22.9,73.8,23.4L73.8,23.4z
	 M78,31.1L78,31.1l0.1-0.1l0.4-0.4l0.1-0.1V31l0,0c0,0,0.1,0.1,0.1,0.1L78,31.1z M77,31.1l0.2-0.1l0.3-0.2l0.3-0.3
	c0.1-0.2,0.4-0.4,0.6-0.6l0.3-0.4v0.4h-0.1l0,0l-0.4,0.4l-0.4,0.4c-0.1,0.1-0.1,0.2-0.1,0.3c0,0,0,0.1,0,0.1L77,31.1z M73.6,31.1
	c0.1-0.2,0.1-0.4,0.1-0.5c0,0.1,0.1-1.4,0.1-1.4v-1.9c0.2-0.1,0.3-0.2,0.5-0.3c0,0,0.2-0.2,0.5-0.5l0.5-0.5l0.3-0.3
	c0.9-0.9,1.8-1.9,2.6-3l0.3-0.4v1l0,0l0,0c0,0,0,0,0,0.1l0,0l0,0h-0.1h-0.1l-0.1,0.1l-0.1,0.1l-0.1,0.1l-0.3,0.4
	c-0.7,0.8-1.5,1.6-2.2,2.3l-0.3,0.4c0,0-0.5,0.6-0.8,1.1c-0.6,0.8-0.2,0.6,0.2,0.2c0,0,0.2-0.2,0.5-0.5l0.5-0.5l0.3-0.3
	c0.7-0.8,1.4-1.6,2.2-2.3l0.3-0.3l0.1-0.1l0.1-0.1l0.1-0.1v1.1h-0.3c-0.2,0.2-0.5,0.4-0.7,0.6l-0.3,0.3L77.3,26l-0.2,0.2l-0.6,0.7
	l-1.2,1.4L75,28.6c0,0-0.5,0.6-0.8,1.1c-0.6,0.8-0.2,0.6,0.2,0.2c0,0,0.2-0.2,0.5-0.5l0.5-0.5l0.3-0.3l1.2-1.4l0.6-0.7l0.1-0.2
	l0.2-0.2l0.3-0.3c0.1-0.1,0.3-0.3,0.4-0.4v1.2c-0.1,0-0.2,0-0.3,0l0,0c-0.1,0.2-0.3,0.5-0.5,0.7l-0.1,0.1l-0.1,0.1l-0.1,0.2
	l-0.3,0.3l-0.5,0.7l-0.3,0.4l-0.8,1.1c-0.3,0.4-0.3,0.5-0.3,0.5c0.2-0.1,0.4-0.2,0.5-0.3c0.2-0.2,0.3-0.3,0.5-0.5l0.5-0.5l0.3-0.3
	l0.5-0.7l0.3-0.3l0.1-0.2l0.1-0.1l0.1-0.1c0.1-0.2,0.3-0.3,0.4-0.5v1.3h-0.1c0,0-0.1,0.1-0.2,0.3c-0.2,0.2-0.3,0.4-0.5,0.6
	c-0.2,0.2-0.4,0.4-0.5,0.6L77,30.3c-0.1,0.2-0.3,0.4-0.4,0.6L76.6,31L73.6,31.1z M67.1,8.5L67,8.6l-0.3,0.3h0V8.3
	C66.7,8.4,66.9,8.4,67.1,8.5L67.1,8.5z M68.8,8.6l-0.1,0.1c-0.3,0.2-0.5,0.4-0.8,0.7l-0.4,0.3L67.2,10c-0.2,0.2-0.4,0.5-0.5,0.7
	l-0.1,0.1V9.6h0.1l0.2-0.1L67,9.3L67.3,9c0.1-0.1,0.3-0.3,0.3-0.4l0.1-0.1h0.8L68.8,8.6z M70.8,8.6l-0.1,0.1c-1,0.8-2,1.7-2.9,2.5
	l-0.4,0.3l-0.3,0.3l-0.5,0.6v-1.3l0.3-0.2c0,0,0.2-0.2,0.5-0.5l0.5-0.5l0.3-0.3C68.5,9.4,68.7,9.2,69,9c0.2-0.2,0.5-0.3,0.7-0.4l0,0
	l0,0L70.8,8.6z M71.4,8.8c0,0.4-0.1,1.3-0.1,1.3v0.1h-0.2l0,0c-0.1,0.2-0.3,0.4-0.5,0.5c-0.2,0.2-0.4,0.3-0.7,0.4l-0.2,0.1l-0.1,0.1
	l-0.1,0.1l-0.3,0.3l-1.3,1L67.7,13c0,0-0.6,0.5-1,0.9L66.6,14v-1.3l0.1-0.1c0,0,0.3-0.2,0.6-0.4l0.6-0.5l0.3-0.3
	C69.1,10.6,70,9.8,71,9L71.4,8.8L71.4,8.8z M67.7,24.6l0.6-0.4l0.3-0.3c0.8-0.7,1.6-1.5,2.4-2.2l0.3-0.3v0.7h-0.1l0,0
	c-0.2,0.2-0.4,0.4-0.6,0.6L70,23.4l-0.7,0.7l-1.4,1.3l-0.3,0.3c0,0-0.5,0.6-0.9,1l-0.1,0.1V22c0.1-0.1,0.3-0.1,0.4-0.2
	c0,0,0.3-0.2,0.6-0.4l0.6-0.4l0.3-0.3c0.9-0.7,1.7-1.5,2.5-2.1l0.3-0.2v0.9c-0.2,0.2-0.4,0.4-0.6,0.5l-0.6,0.4l-0.3,0.2l-0.3,0.2
	c-0.4,0.3-0.8,0.7-1.1,1L68,22.1l-0.3,0.4l-0.6,0.7c-0.3,0.4-0.4,0.5-0.3,0.5c0.2-0.1,0.4-0.2,0.5-0.3c0,0,0.3-0.2,0.5-0.4l0.6-0.5
	l0.3-0.3c0.4-0.3,0.7-0.7,1.1-1l0.3-0.2l0.3-0.2l0.6-0.4l0.3-0.2v0.6l-0.6,0.6c-0.8,0.7-1.6,1.5-2.4,2.2L68,23.8l-0.3,0.3L67,24.8
	c-0.7,0.7-0.3,0.5,0.2,0.2C67.1,25,67.4,24.8,67.7,24.6L67.7,24.6z M66.6,21.9v-1.1l0.3-0.2c0,0,0.3-0.2,0.6-0.4l0.6-0.4l0.3-0.3
	l1.2-1.1l0.6-0.5l0.3-0.2l0.3-0.2c0.2-0.1,0.3-0.3,0.5-0.4v0.8c-0.2,0.2-0.4,0.4-0.6,0.5c-0.9,0.7-1.7,1.4-2.5,2.1l-0.4,0.3l-1,0.9
	L66.6,21.9z M66.6,20.5v-1.3l0.4-0.2c0,0,0.3-0.2,0.6-0.4l0.6-0.4l0.3-0.3c0.8-0.7,1.6-1.4,2.4-2l0.5-0.4v1h-0.2
	c-0.2,0.2-0.4,0.4-0.6,0.5l-0.3,0.2l-0.3,0.3L69.2,18L68,19l-0.4,0.3l-1,1L66.6,20.5z M66.6,18.9v-1.5l0,0c0.2-0.1,0.4-0.1,0.5-0.3
	c0,0,0.3-0.2,0.6-0.4l0.6-0.4l0.3-0.3c0.7-0.6,1.4-1.2,2.1-1.7l0.4-0.2l0.2-0.2v0.9h-0.1l-0.7,0.5c-0.8,0.7-1.6,1.4-2.5,2l-0.4,0.3
	c0,0-0.6,0.6-1,1L66.6,18.9z M66.6,17.3V16l0.4-0.2l0.6-0.4l0.6-0.4l0.3-0.3c0.7-0.6,1.5-1.1,2.3-1.6l0.4-0.2l0.2-0.1v0.6h-0.2
	c-0.1,0.1-0.2,0.2-0.3,0.2l-0.4,0.3c-0.8,0.5-1.5,1.1-2.2,1.7l-0.4,0.3c0,0-0.6,0.6-1,1C66.7,17,66.6,17.1,66.6,17.3L66.6,17.3z
	 M66.6,15.7v-1.4l0.2-0.1l0.6-0.4l0.6-0.4l0.3-0.3l1.3-1l0.3-0.3l0.1-0.1l0.1-0.1l0.2-0.1c0.2-0.1,0.4-0.3,0.7-0.5
	c0.1-0.1,0.3-0.2,0.4-0.3l0.1-0.1v1.4h-0.1l-0.4,0.2l-0.4,0.2c-0.8,0.5-1.6,1-2.3,1.6l-0.4,0.3c0,0-0.6,0.5-1,0.9L66.6,15.7z
	 M70.8,31.1h0.1l0.2-0.1l0.1-0.1l0.1-0.1V31l0,0c0,0,0.1,0.1,0.1,0.1L70.8,31.1z M66.4,31.1c0.1-0.2,0.1-0.4,0.1-0.5
	c0,0.1,0.1-1.4,0.1-1.4v-1.9l0.3-0.2c0,0.1,1.1-0.9,1.1-0.9l0.3-0.3l1.4-1.3l0.7-0.7l0.7-0.7l0.3-0.3v0.7l0,0l0,0
	c-0.2,0.2-0.4,0.4-0.6,0.6l-0.3,0.3l-0.3,0.3l-0.6,0.6c-0.4,0.4-0.8,0.8-1.2,1.2L68,26.8c0,0-0.5,0.6-0.8,1.1
	c-0.6,0.8-0.2,0.6,0.2,0.2c0,0,0.2-0.2,0.5-0.5l0.5-0.5l0.3-0.3c0.4-0.4,0.8-0.8,1.2-1.2l0.6-0.6l0.3-0.3l0.3-0.3l0.3-0.2v1
	c-0.1,0-0.2,0-0.3,0l0,0c-0.1,0.1-0.2,0.2-0.3,0.3l-0.3,0.3l-0.1,0.1l0,0l0,0L70.2,26l-0.3,0.3c-0.2,0.2-0.4,0.5-0.6,0.7
	c-0.4,0.5-0.8,0.9-1.2,1.4l-0.3,0.4c0,0-0.5,0.7-0.8,1.1c-0.3,0.5-0.3,0.5-0.3,0.5c0.2-0.1,0.4-0.2,0.5-0.4c0,0,0.2-0.2,0.5-0.5
	l0.5-0.5l0.3-0.3c0.4-0.5,0.8-0.9,1.1-1.4l0.6-0.7l0.3-0.3l0.2-0.2l0,0l0,0l0.1-0.1c0.2-0.2,0.4-0.3,0.6-0.5v1.2c-0.1,0-0.1,0-0.2,0
	l0,0c-0.2,0.2-0.3,0.5-0.5,0.7s-0.5,0.6-0.7,0.9l-0.3,0.4l-0.3,0.4c-0.2,0.2-0.4,0.5-0.6,0.7c-0.6,0.8-0.2,0.6,0.2,0.2
	c0,0,0.2-0.2,0.5-0.5l0.5-0.5l0.3-0.3c0.3-0.3,0.5-0.6,0.8-0.9l0.3-0.4v0.7l0,0c0,0-0.1,0.1-0.2,0.3c-0.1,0.2-0.3,0.4-0.4,0.6
	c-0.2,0.2-0.4,0.4-0.5,0.6L70.1,30c-0.1,0.2-0.2,0.4-0.3,0.6c-0.2,0.4,0,0.4,0.2,0.2c0.1-0.1,0.2-0.1,0.2-0.2l0.3-0.2l0.2-0.3
	c0.1-0.2,0.3-0.4,0.5-0.6l0.3-0.3v0.6l0,0l0,0l-0.1,0.1L71.3,30c-0.1,0.1-0.2,0.2-0.2,0.3l-0.1,0.1c-0.1,0.1-0.1,0.2-0.1,0.3
	c-0.1,0.1,0,0.2,0,0.2L66.4,31.1z"/>
<path class="st1" d="M45,51.8c-0.2,0.1-0.7,0.2-1.3,0.2c-1.4,0-2.4-0.9-2.4-2.5c0-1.6,1-2.6,2.6-2.6c0.6,0,1,0.1,1.2,0.2l-0.2,0.5
	c-0.2-0.1-0.6-0.2-1-0.2c-1.1,0-1.9,0.7-1.9,2c0,1.2,0.7,2,1.9,2c0.4,0,0.8-0.1,1-0.2L45,51.8z"/>
<path class="st1" d="M46.5,47.3c0,0.2-0.2,0.4-0.4,0.4c-0.2,0-0.4-0.2-0.4-0.4c0-0.2,0.2-0.4,0.4-0.4C46.3,46.9,46.5,47.1,46.5,47.3
	z M45.8,51.9v-3.6h0.6v3.6H45.8z"/>
<path class="st1" d="M50.5,46.7V51c0,0.3,0,0.7,0,0.9H50l0-0.6h0c-0.2,0.4-0.6,0.7-1.2,0.7c-0.9,0-1.5-0.7-1.5-1.8
	c0-1.2,0.7-1.9,1.6-1.9c0.5,0,0.9,0.3,1.1,0.5h0v-2.1H50.5z M49.9,49.8c0-0.1,0-0.2,0-0.3c-0.1-0.4-0.4-0.8-0.9-0.8
	c-0.7,0-1.1,0.6-1.1,1.4c0,0.7,0.3,1.3,1,1.3c0.4,0,0.8-0.3,0.9-0.8c0-0.1,0-0.2,0-0.3V49.8z"/>
<path class="st1" d="M53.5,51.9l-0.1-0.4h0c-0.2,0.3-0.6,0.5-1.1,0.5c-0.7,0-1.1-0.5-1.1-1c0-0.9,0.8-1.3,2.1-1.3v-0.1
	c0-0.3-0.1-0.8-0.8-0.8c-0.3,0-0.7,0.1-0.9,0.3l-0.1-0.4c0.3-0.2,0.7-0.3,1.2-0.3c1.1,0,1.3,0.7,1.3,1.5v1.3c0,0.3,0,0.6,0.1,0.9
	H53.5z M53.4,50.1c-0.7,0-1.5,0.1-1.5,0.8c0,0.4,0.3,0.6,0.6,0.6c0.5,0,0.7-0.3,0.9-0.6c0-0.1,0-0.1,0-0.2V50.1z"/>
<path class="st1" d="M58.1,46.7V51c0,0.3,0,0.7,0,0.9h-0.6l0-0.6h0c-0.2,0.4-0.6,0.7-1.2,0.7c-0.9,0-1.5-0.7-1.5-1.8
	c0-1.2,0.7-1.9,1.6-1.9c0.5,0,0.9,0.3,1.1,0.5h0v-2.1H58.1z M57.5,49.8c0-0.1,0-0.2,0-0.3c-0.1-0.4-0.4-0.8-0.9-0.8
	c-0.7,0-1.1,0.6-1.1,1.4c0,0.7,0.3,1.3,1,1.3c0.4,0,0.8-0.3,0.9-0.8c0-0.1,0-0.2,0-0.3V49.8z"/>
<path class="st1" d="M61.1,51.9l-0.1-0.4h0C60.9,51.7,60.5,52,60,52c-0.7,0-1.1-0.5-1.1-1c0-0.9,0.8-1.3,2.1-1.3v-0.1
	c0-0.3-0.1-0.8-0.8-0.8c-0.3,0-0.7,0.1-0.9,0.3l-0.1-0.4c0.3-0.2,0.7-0.3,1.2-0.3c1.1,0,1.3,0.7,1.3,1.5v1.3c0,0.3,0,0.6,0.1,0.9
	H61.1z M61,50.1c-0.7,0-1.5,0.1-1.5,0.8c0,0.4,0.3,0.6,0.6,0.6c0.5,0,0.7-0.3,0.9-0.6c0-0.1,0-0.1,0-0.2V50.1z"/>
<path class="st1" d="M62.7,49.3c0-0.4,0-0.7,0-1h0.6l0,0.6h0c0.2-0.3,0.6-0.7,1.2-0.7c0.5,0,1.2,0.3,1.2,1.5v2.1h-0.6v-2.1
	c0-0.6-0.2-1.1-0.8-1.1c-0.4,0-0.7,0.3-0.9,0.7c0,0.1,0,0.2,0,0.3v2.1h-0.6V49.3z"/>
<path class="st1" d="M67.4,47.3c0,0.2-0.2,0.4-0.4,0.4c-0.2,0-0.4-0.2-0.4-0.4c0-0.2,0.2-0.4,0.4-0.4C67.3,46.9,67.4,47.1,67.4,47.3
	z M66.7,51.9v-3.6h0.6v3.6H66.7z"/>
<path class="st1" d="M70.4,51.9l-0.1-0.4h0c-0.2,0.3-0.6,0.5-1.1,0.5c-0.7,0-1.1-0.5-1.1-1c0-0.9,0.8-1.3,2.1-1.3v-0.1
	c0-0.3-0.1-0.8-0.8-0.8c-0.3,0-0.7,0.1-0.9,0.3l-0.1-0.4c0.3-0.2,0.7-0.3,1.2-0.3c1.1,0,1.3,0.7,1.3,1.5v1.3c0,0.3,0,0.6,0.1,0.9
	H70.4z M70.3,50.1c-0.7,0-1.5,0.1-1.5,0.8c0,0.4,0.3,0.6,0.6,0.6c0.5,0,0.7-0.3,0.9-0.6c0-0.1,0-0.1,0-0.2V50.1z"/>
</svg>
