<?xml version="1.0" encoding="utf-8"?>
<!-- Generator: Adobe Illustrator 21.0.0, SVG Export Plug-In . SVG Version: 6.00 Build 0)  -->
<svg version="1.1" id="Camada_1" xmlns="http://www.w3.org/2000/svg" xmlns:xlink="http://www.w3.org/1999/xlink" x="0px" y="0px"
	 viewBox="0 0 130 36.3" style="enable-background:new 0 0 130 36.3;" xml:space="preserve">
<style type="text/css">
	.st0{fill:#1A1A1A;}
	.st1{fill:#3A86BB;}
	.st2{fill:#363C3F;}
	.st3{fill:none;}
</style>
<title>GESTAO-ESTRATEGICA</title>
<path class="st0" d="M-265.4,143.9L-265.4,143.9C-265.4,144.3-265.4,144.2-265.4,143.9z"/>
<path class="st0" d="M-265.4,142.8"/>
<path class="st0" d="M-264.6,170.6L-264.6,170.6C-264.6,170.6-264.6,170.6-264.6,170.6z"/>
<g>
	<g>
		<path class="st1" d="M14.5,19.5L15,20l0.3,0.3c0.1,0.1,0.2,0.2,0.3,0.3c0.3,0.4,0.7,0.7,1,1.1l0.2,0.2l0.2,0.2l0.3,0.4V22
			l-0.1-0.1c0,0-0.2-0.2-0.4-0.3l-0.4-0.4l-0.2-0.2L15.5,20c-0.1-0.2-0.3-0.3-0.4-0.4c-0.1-0.1-0.3-0.3-0.5-0.4
			c-0.2-0.1-0.3-0.3-0.5-0.4c0,0,0,0,0-0.1l-0.2,0v0.1c0,0,0,0.2,0,0.4H14L14.5,19.5z"/>
		<path class="st1" d="M14,25.9C14,26,14,26,14,25.9l0.2,0.1L14,25.8V25.9z"/>
		<path class="st1" d="M15.4,19.3c0.2,0.2,0.3,0.3,0.4,0.5l0.8,0.9l0.2,0.3c0,0,0.3,0.4,0.6,0.7v-1l-0.2-0.2c0,0-0.2-0.2-0.3-0.3
			l-0.4-0.4l-0.2-0.2c-0.2-0.2-0.3-0.4-0.5-0.5l-0.3-0.2l0,0l-0.1-0.1l-0.7,0l0.3,0.2C15.1,19,15.2,19.2,15.4,19.3z"/>
		<path class="st1" d="M14.6,20.6c0.2,0.1,0.3,0.3,0.5,0.4l0.1,0.1l0.1,0.1l0.2,0.2l0.9,0.9l0.2,0.2c0,0,0.4,0.4,0.6,0.7
			c0.1,0.1,0.1,0.2,0.2,0.2v-0.8h0c-0.1-0.1-0.3-0.2-0.4-0.3c-0.2-0.2-0.4-0.3-0.4-0.3l-0.2-0.2c-0.3-0.4-0.7-0.7-1-1.1
			c-0.1-0.1-0.2-0.2-0.3-0.3l-0.3-0.2l-0.6-0.5l-0.2-0.2v0.5h0.1C14.3,20.4,14.4,20.5,14.6,20.6z"/>
		<path class="st1" d="M14.4,25.3l-0.2-0.2l-0.1-0.2L14,24.7v0.5l0.1,0.1l0.2,0.2l0.3,0.3c0,0.1,0.1,0.1,0.1,0.2l0.5,0l-0.3-0.3
			C14.6,25.5,14.4,25.3,14.4,25.3z"/>
		<path class="st1" d="M22.1,18.5l-0.2-0.2c-0.4-0.3-0.8-0.7-1.2-1l-0.6-0.5c-0.2-0.2-0.4-0.3-0.6-0.5c-0.1-0.1-0.2-0.1-0.2-0.2v0.5
			c0.1,0,0.1,0,0.2,0c0.1,0.1,0.3,0.3,0.4,0.4c0.1,0.1,0.3,0.2,0.4,0.3l0.4,0.4l0.8,0.7l0.3,0.2c0,0,0.4,0.4,0.6,0.7
			c0.4,0.5,0.2,0.4-0.2,0.1c0,0.1-0.8-0.6-0.8-0.6l-0.2-0.2L20.5,18l-0.4-0.4l-0.4-0.3c-0.1-0.1-0.3-0.2-0.4-0.3v0.4l0.3,0.2
			l0.3,0.2c0.8,0.6,1.5,1.3,2.1,2.1l0.2,0.2l0,0c0,0,0.3,0.3,0.5,0.7V19l-0.2-0.2L22.1,18.5z"/>
		<path class="st1" d="M17.5,24.6v-0.9c-0.1-0.1-0.2-0.1-0.3-0.2c0,0-0.2-0.1-0.4-0.3l-0.4-0.3l-0.2-0.2l-0.9-0.9l-0.2-0.2L15,21.4
			l-0.1-0.1c-0.2-0.1-0.3-0.3-0.5-0.4c-0.1-0.1-0.2-0.2-0.3-0.3v0.5c0.1,0.2,0.3,0.3,0.4,0.4c0.3,0.4,0.7,0.7,1,1.1l0.9,1.1l0.2,0.3
			l0.2,0.3c0.1,0.2,0.3,0.3,0.4,0.5c0.2,0.3,0.2,0.4,0.2,0.4c-0.1-0.1-0.3-0.1-0.4-0.2c0,0-0.2-0.2-0.4-0.3l-0.4-0.4L16.2,24l-1-1.1
			c-0.3-0.4-0.7-0.7-1-1L14,21.6v0.4l0.2,0.2l0.2,0.2c0.6,0.7,1.2,1.4,1.7,2.1l0.2,0.3c0,0,0.3,0.5,0.5,0.8c0.1,0.1,0.1,0.2,0.2,0.3
			l0.5,0c0-0.1-0.1-0.2-0.1-0.4C17.5,25.7,17.5,24.6,17.5,24.6z"/>
		<path class="st1" d="M16.1,25.1L16,24.9c-0.6-0.7-1.1-1.4-1.7-2.1l-0.1-0.1v0.5h0.1l0.4,0.5c0.3,0.3,0.5,0.5,0.7,0.8l0.2,0.3
			c0,0,0.3,0.5,0.5,0.8c0.4,0.6,0.1,0.4-0.2,0.1c0,0-0.2-0.2-0.3-0.3l-0.4-0.4l-0.2-0.2c-0.2-0.3-0.5-0.5-0.7-0.8l-0.3-0.3v0.6h0.1
			c0.1,0.2,0.2,0.3,0.3,0.5l0.1,0.1l0.2,0.3l0.2,0.3l0.4,0.5l0.1,0.1H17l-0.2-0.2C16.9,25.9,16.1,25.1,16.1,25.1z"/>
		<path class="st1" d="M10.4,22.4c0.1,0.1,0.3,0.3,0.4,0.4c0.3,0.3,0.5,0.6,0.7,0.9l0.2,0.3l0.2,0.3c0.1,0.2,0.2,0.4,0.3,0.5v-0.2
			v-0.5C12.2,24,12,23.9,12,23.9c0,0-0.1-0.2-0.3-0.4l-0.2-0.3l-0.1-0.1l-0.2-0.2c-0.1-0.2-0.3-0.3-0.4-0.5
			c-0.1-0.1-0.3-0.3-0.4-0.4c0-0.1,0-0.1,0-0.2v0l-0.6,0L10,22L10.4,22.4z"/>
		<path class="st1" d="M22,21.7c0,0-0.2-0.1-0.4-0.3L21.3,21l-0.2-0.2c-0.5-0.6-1-1.1-1.5-1.6l-0.2-0.2v0.6c0,0,0.1,0,0.1,0
			c0.1,0.2,0.2,0.3,0.4,0.5c0.6,0.7,1.2,1.4,1.9,2l0.2,0.2c0,0,0.4,0.4,0.6,0.7c0.1,0.1,0.2,0.2,0.2,0.2V21l-0.1,0
			c0,0-0.2-0.2-0.4-0.3l-0.4-0.4l-0.2-0.2c-0.7-0.7-1.4-1.4-2.1-2l-0.2-0.2v0.6l0.1,0.1l0.1,0.1l0.2,0.2c0.6,0.5,1.1,1.1,1.5,1.6
			l0.2,0.3c0,0,0.3,0.5,0.6,0.8l0,0c0.2,0.3,0.3,0.4,0.2,0.4C22.2,21.8,22.1,21.8,22,21.7z"/>
		<path class="st1" d="M11.5,22.7l0.2,0.3l0.1,0.1l0.1,0.2c0.1,0.2,0.2,0.4,0.3,0.6v-1.1c0,0-0.1,0-0.1,0c-0.1-0.1-0.2-0.1-0.2-0.2
			c0,0-0.2-0.2-0.3-0.4l-0.2-0.2l-0.1-0.1h-0.4l-0.1,0.1c0.1,0.1,0.3,0.2,0.4,0.4C11.2,22.4,11.4,22.6,11.5,22.7z"/>
		<path class="st1" d="M12.2,22.3c0,0.1,0,0.1,0.1,0.2v-0.8c-0.1,0-0.3,0.1-0.4,0.1l-0.1,0l0.1,0.1C12,22.1,12.2,22.3,12.2,22.3z"/>
		<path class="st1" d="M28,24.7v-1.3l-0.2-0.2c0,0.1-0.8-0.6-0.8-0.6l-0.2-0.2l-1-0.9L25.4,21l-0.5-0.5l-0.2-0.2v0.5
			c0.1,0.1,0.3,0.3,0.4,0.4l0.2,0.2l0.2,0.2l0.4,0.4c0.3,0.3,0.6,0.6,0.9,0.9l0.2,0.2c0,0,0.4,0.4,0.6,0.8c0.4,0.5,0.2,0.4-0.2,0.1
			c0,0-0.2-0.2-0.4-0.3l-0.4-0.3l-0.2-0.2c-0.3-0.3-0.6-0.6-0.8-0.8l-0.4-0.4L25,21.7l-0.2-0.2l-0.2-0.2V22c0.1,0,0.1,0,0.2,0
			c0.1,0.1,0.1,0.1,0.2,0.2l0.2,0.2l0.1,0.1l0.1,0.1l0.2,0.2c0.2,0.2,0.3,0.3,0.4,0.5c0.3,0.3,0.6,0.7,0.8,1l0.2,0.3
			c0,0,0.4,0.5,0.6,0.8c0.2,0.3,0.2,0.4,0.2,0.4c-0.1-0.1-0.3-0.1-0.4-0.2c0,0-0.2-0.2-0.4-0.3l-0.4-0.4l-0.2-0.2
			c-0.3-0.3-0.5-0.7-0.8-1l-0.4-0.5l-0.2-0.2L25,22.7l-0.1,0c-0.1-0.1-0.3-0.2-0.4-0.4v0.9c0,0,0.1,0,0.1,0c0.1,0.2,0.2,0.3,0.4,0.5
			c0.2,0.2,0.4,0.4,0.5,0.6l0.2,0.2l0.2,0.3c0.1,0.1,0.3,0.3,0.4,0.5c0.4,0.5,0.2,0.4-0.2,0.1c0,0-0.2-0.1-0.4-0.3l-0.4-0.3
			l-0.2-0.2c-0.2-0.2-0.4-0.4-0.6-0.6l-0.2-0.3v0.5c0,0,0.1,0.1,0.1,0.2c0.1,0.1,0.2,0.3,0.3,0.4c0.1,0.1,0.3,0.3,0.4,0.4l0.2,0.2
			c0.1,0.1,0.2,0.3,0.2,0.4c0.2,0.3,0,0.2-0.2,0.1c-0.1,0-0.1-0.1-0.2-0.1l-0.2-0.2l-0.2-0.2c-0.1-0.1-0.2-0.3-0.4-0.4l-0.2-0.2v0.5
			l0,0.1l0.1,0.1c0.1,0.1,0.1,0.1,0.2,0.2l0.1,0.1c0,0.1,0.1,0.1,0.1,0.2C25,26,25,26,25,26h3.2c0,0,0,0,0,0h0c0,0,0-0.1,0-0.1
			c0-0.1,0-0.1,0-0.2C28.1,25.7,28,24.7,28,24.7z"/>
		<path class="st1" d="M12.3,25.2L12.1,25c0,0-0.2-0.2-0.3-0.4l-0.3-0.4L11.3,24c-0.2-0.3-0.5-0.6-0.7-0.9c-0.1-0.1-0.2-0.3-0.4-0.4
			l-0.4-0.4c-0.1-0.1-0.3-0.3-0.4-0.5H8.9C9,22,9.1,22.2,9.2,22.3c0.2,0.2,0.3,0.3,0.5,0.5c0.2,0.2,0.3,0.4,0.5,0.5
			c0.3,0.4,0.6,0.7,0.8,1.1l0.2,0.3c0,0,0.3,0.5,0.5,0.8s0.2,0.4,0.2,0.4c-0.1-0.1-0.2-0.2-0.3-0.3c0,0-0.2-0.2-0.3-0.4l-0.3-0.4
			l-0.2-0.2c-0.3-0.4-0.5-0.7-0.8-1.1c-0.1-0.2-0.3-0.4-0.4-0.5S9.1,22.7,9,22.5l-0.2-0.2c0,0.3,0,0.6,0,0.6V23l0.1,0l0.1,0l0.1,0.1
			c0.1,0.1,0.2,0.1,0.3,0.2c0.2,0.2,0.4,0.3,0.5,0.5c0.2,0.2,0.3,0.4,0.5,0.5l0.2,0.3l0.2,0.3c0.1,0.2,0.2,0.4,0.3,0.5
			c0.2,0.3,0.2,0.4,0.2,0.4c-0.1-0.1-0.2-0.2-0.3-0.3c0,0-0.2-0.2-0.3-0.4L10.2,25L10,24.7c-0.2-0.2-0.3-0.4-0.5-0.5
			c-0.2-0.2-0.3-0.3-0.5-0.5C9,23.6,9,23.6,8.9,23.5l-0.1,0v0.6h0.1c0.2,0.1,0.3,0.3,0.5,0.4l0.1,0.1l0.2,0.3l0.2,0.3l0.4,0.5
			c0.1,0.1,0.1,0.2,0.2,0.3c0,0,0,0,0,0.1h1.9c0-0.1-0.1-0.2-0.1-0.4C12.3,25.7,12.3,25.4,12.3,25.2z"/>
		<path class="st1" d="M16.7,19.4l0.2,0.3l0.2,0.3c0.1,0.2,0.2,0.4,0.4,0.5v-1.9c-0.1,0-0.3,0.1-0.4,0.1h-0.2l0.1,0.1
			c0.1,0.2,0.3,0.3,0.3,0.3c0,0.1,0.1,0.2,0.1,0.2c0,0.2-0.1,0.2-0.2,0.1l-0.1-0.1L17,19.3c0,0-0.1-0.2-0.3-0.3l-0.2-0.2l-0.1-0.1
			v-0.1H16l0,0l0.2,0.1C16.3,19.1,16.5,19.2,16.7,19.4z"/>
		<path class="st1" d="M9,25.5c-0.1-0.1-0.1-0.1-0.2-0.2v0.3l0.1,0.1l0.2,0.2c0,0.1,0,0.1,0,0.2l0.4,0l-0.1-0.1
			C9.3,25.8,9.1,25.6,9,25.5z"/>
		<path class="st1" d="M9.8,25.4l-0.2-0.3l-0.1-0.1l-0.2-0.2l-0.1-0.1c-0.1-0.1-0.2-0.2-0.3-0.3v0.4C8.9,24.9,9,25,9.1,25.1
			c0.1,0.1,0.2,0.1,0.2,0.2c0.1,0.1,0.3,0.3,0.4,0.4c0,0.1,0.1,0.2,0.1,0.3l0.6,0c-0.1-0.1-0.2-0.1-0.3-0.2
			C10.1,25.8,9.9,25.6,9.8,25.4z"/>
		<path class="st1" d="M27,11l0.3,0.2l0.2,0.2c0.1,0.2,0.3,0.3,0.4,0.5l0.1,0.1v-0.8h-0.1l-0.1-0.1L27.6,11l-0.3-0.2
			c-0.1-0.1-0.2-0.2-0.3-0.2L27,10.5h-0.6l-0.2,0l0.1,0.1C26.6,10.7,26.8,10.9,27,11z"/>
		<path class="st1" d="M24.5,11.5v0.1h0.1c0.1,0.1,0.2,0.3,0.4,0.4c0.1,0.1,0.3,0.2,0.5,0.3l0.1,0.1l0.1,0l0.1,0l0.2,0.2l0.9,0.7
			l0.3,0.2c0,0,0.4,0.4,0.7,0.6l0.1,0v-0.9l-0.1,0c0,0-0.2-0.1-0.4-0.3L27,12.7l-0.2-0.2c-0.7-0.6-1.3-1.2-2.1-1.7l-0.2-0.2
			C24.5,11,24.5,11.5,24.5,11.5z"/>
		<path class="st1" d="M24.8,14l0.3,0.2c0.5,0.4,1.1,0.8,1.6,1.2l0.3,0.2c0,0,0.4,0.4,0.7,0.7l0,0c0.1,0.1,0.1,0.2,0.2,0.3v-0.9
			l-0.3-0.1l-0.4-0.3l-0.4-0.3l-0.2-0.2c-0.5-0.4-1.1-0.8-1.6-1.1l-0.3-0.2l-0.2-0.1v0.4h0.1C24.7,13.9,24.7,13.9,24.8,14z"/>
		<path class="st1" d="M27.1,16.1l-0.4-0.3l-0.2-0.2c-0.5-0.4-1-0.8-1.5-1.2l-0.3-0.2l-0.2-0.1v0.6h0.1l0.5,0.4
			c0.6,0.4,1.2,0.9,1.8,1.4l0.3,0.2c0,0,0.4,0.4,0.7,0.7l0.1,0.1v-1.1c-0.1,0-0.3-0.1-0.4-0.2C27.5,16.4,27.3,16.3,27.1,16.1z"/>
		<path class="st1" d="M27,12.2l0.3,0.2l0.2,0.2l0.4,0.4v-0.8l-0.2-0.2c0,0-0.2-0.2-0.4-0.3l-0.4-0.3l-0.2-0.2
			c-0.2-0.2-0.4-0.3-0.5-0.4c-0.2-0.1-0.3-0.2-0.5-0.3l-0.8,0l0.1,0.1C25.6,11.1,26.3,11.7,27,12.2z"/>
		<path class="st1" d="M27.9,10.8L27.9,10.8l0-0.5l0,0c-0.1,0.1-0.3,0.1-0.4,0.1l0.1,0.1L27.9,10.8z"/>
		<path class="st1" d="M25.1,16.2l0.2,0.2l0.2,0.2L26,17l0.9,0.7l0.3,0.2l0.7,0.7l0.1,0.1v-0.9l-0.3-0.2c0,0-0.2-0.1-0.4-0.3
			L26.8,17l-0.2-0.2c-0.6-0.5-1.2-0.9-1.8-1.4l-0.3-0.3v0.7h0.1C24.7,16,24.9,16.1,25.1,16.2z"/>
		<path class="st1" d="M24.6,26l-0.1-0.1l-0.1,0V26c0,0,0,0-0.1,0.1l0.4,0h-0.1L24.6,26z"/>
		<path class="st1" d="M26.7,18.7l0.3,0.2l0.7,0.6l0.2,0.1v-0.8l-0.3-0.1c0,0-0.2-0.1-0.4-0.3l-0.4-0.3L26.6,18l-0.9-0.7l-0.4-0.4
			l-0.2-0.2l-0.2-0.2c-0.1-0.1-0.2-0.2-0.4-0.3v0.6c0.1,0.1,0.3,0.3,0.4,0.4C25.5,17.7,26.1,18.2,26.7,18.7z"/>
		<path class="st1" d="M20.1,25.7l-0.2-0.2c-0.1-0.1-0.3-0.3-0.4-0.4l-0.2-0.3v0.3h0l0.3,0.3l0.3,0.3c0,0.1,0.1,0.1,0.1,0.2
			c0,0,0,0.1,0,0.1l0.5,0l-0.1-0.1L20.1,25.7z"/>
		<path class="st1" d="M27.3,14.1l-0.4-0.3l-0.2-0.2L25.8,13l-0.2-0.2l-0.1,0l-0.1,0l-0.1-0.1c-0.2-0.1-0.3-0.2-0.5-0.3
			c-0.1-0.1-0.2-0.1-0.3-0.2l0,0v1h0.1l0.3,0.2l0.3,0.2c0.6,0.3,1.1,0.7,1.7,1.1l0.3,0.2c0,0,0.4,0.4,0.7,0.7l0.1,0.1v-1l-0.2-0.1
			L27.3,14.1z"/>
		<path class="st1" d="M19.4,15.7c0.1,0.2,0.2,0.3,0.4,0.4l0.3,0.2l0.2,0.1l0.1,0.1l0.1,0.1l0.6,0.5c0.4,0.3,0.8,0.7,1.2,1l0.3,0.2
			l0.2,0.2l0.1,0.1v-1.8l-0.2-0.2c0,0-0.2-0.2-0.4-0.3l-0.3-0.2l-0.1-0.1l-0.2-0.2c-0.2-0.3-0.5-0.5-0.8-0.7
			c-0.1-0.1-0.3-0.2-0.4-0.2h-0.7l0.2,0.2c0.5,0.5,1.1,1,1.6,1.5l0.3,0.2c0,0,0.4,0.4,0.6,0.7c0.4,0.5,0.2,0.4-0.2,0.1
			c0,0-0.2-0.1-0.4-0.3l-0.4-0.3l-0.2-0.2c-0.5-0.5-1.1-1-1.6-1.5l-0.4-0.4l0,0v0.1C19.2,14.9,19.3,15.4,19.4,15.7L19.4,15.7z"/>
		<path class="st1" d="M19.3,25.7L19.3,25.7l-0.1,0.2c0,0,0,0-0.1,0.1l0,0h0.5L19.6,26L19.3,25.7z"/>
		<path class="st1" d="M22.8,24.6v-1.3c-0.1-0.1-0.2-0.1-0.3-0.2c0,0-0.2-0.1-0.4-0.3l-0.4-0.3l-0.2-0.2c-0.7-0.6-1.3-1.3-1.9-2
			l-0.2-0.3v0.7c0,0,0,0,0,0h0h0.1l0.1,0.1l0.1,0l0.1,0l0.2,0.2c0.5,0.5,1,1.1,1.6,1.6l0.2,0.2c0,0,0.4,0.4,0.6,0.8
			c0.4,0.5,0.2,0.4-0.2,0.1c0,0-0.2-0.1-0.4-0.3l-0.4-0.4l-0.2-0.2c-0.5-0.5-1-1.1-1.6-1.6l-0.2-0.2l-0.1,0l-0.1,0l0,0v0.8h0.1
			c0.2,0.1,0.3,0.3,0.5,0.4l0.2,0.2l0.1,0.1l0.1,0.1l0.4,0.5l0.9,1l0.2,0.3c0,0,0.4,0.4,0.6,0.8c0.4,0.5,0.2,0.4-0.2,0.1
			c0,0-0.2-0.1-0.4-0.3l-0.4-0.4l-0.2-0.2l-0.9-1L20,22.9l-0.1-0.1l-0.1-0.1l-0.2-0.2c-0.1-0.1-0.2-0.2-0.3-0.3V23
			c0.1,0,0.1,0,0.2,0c0.1,0.2,0.2,0.3,0.4,0.5l0.1,0.1l0.1,0.1l0.1,0.1l0.2,0.2l0.4,0.5l0.2,0.3l0.6,0.8c0.2,0.3,0.3,0.4,0.2,0.4
			c-0.1-0.1-0.3-0.1-0.4-0.2c-0.1-0.1-0.2-0.2-0.4-0.3l-0.4-0.4l-0.2-0.2l-0.4-0.5l-0.2-0.2l-0.1-0.1l0-0.1l-0.1-0.1
			c-0.1-0.1-0.2-0.2-0.3-0.4v0.9h0.1c0,0,0.1,0.1,0.1,0.2c0.1,0.2,0.2,0.3,0.4,0.4c0.1,0.2,0.3,0.3,0.4,0.4l0.2,0.2
			c0.1,0.1,0.2,0.3,0.3,0.4l0.1,0.1l2.2-0.1c0-0.1-0.1-0.2-0.1-0.4C22.8,25.6,22.8,24.6,22.8,24.6z"/>
		<path class="st1" d="M22.1,15.8l0.2,0.3c0.1,0.2,0.3,0.3,0.4,0.5v-1.9c-0.1,0-0.3,0.1-0.4,0.1h-0.3l0.2,0.3
			c0.2,0.2,0.4,0.4,0.4,0.4c0,0.1,0.1,0.2,0.1,0.3c0.1,0.2-0.1,0.2-0.2,0.1c0,0-0.1-0.1-0.1-0.1l-0.1-0.1c0,0-0.3-0.3-0.3-0.4
			c-0.1-0.1-0.2-0.2-0.3-0.3l-0.1-0.1c0,0,0-0.1,0-0.1h-0.3l-0.2,0c0.3,0.2,0.5,0.4,0.8,0.7L22.1,15.8z"/>
		<path class="st1" d="M27.2,19.4l-0.4-0.3l-0.2-0.2c-0.6-0.5-1.2-1-1.8-1.5l-0.2-0.2v0.6c0.1,0.1,0.3,0.2,0.5,0.4l0.4,0.3l0.2,0.2
			l0.2,0.2c0.3,0.2,0.5,0.5,0.8,0.7l0.3,0.2l0.2,0.2l0.4,0.5c0.2,0.2,0.3,0.3,0.2,0.3c-0.1,0-0.3-0.1-0.4-0.2c0,0-0.2-0.1-0.4-0.3
			l-0.4-0.3l-0.2-0.2c-0.3-0.2-0.5-0.5-0.8-0.7L25.4,19l-0.2-0.2l-0.4-0.3l-0.2-0.2v0.4l0.5,0.4c0.6,0.5,1.1,1,1.7,1.5l0.3,0.2
			l0.2,0.2l0.5,0.4c0.5,0.5,0.2,0.4-0.1,0.2l0,0c0,0-0.2-0.1-0.4-0.2l-0.4-0.3l-0.2-0.2c-0.6-0.5-1.2-1-1.7-1.5l-0.2-0.2v0.5h0.1
			c0.1,0.1,0.3,0.3,0.4,0.4l0.5,0.5l0.5,0.5l1,0.9l0.3,0.2c0,0,0.4,0.4,0.6,0.7l0.1,0.1v-3.3c-0.1,0-0.2-0.1-0.3-0.1
			C27.6,19.7,27.4,19.6,27.2,19.4z"/>
	</g>
	<g>
		<path class="st2" d="M69.4,22.3h-1.3v2.3l1.3,0c0.8,0,1.4-0.3,1.4-1.2C70.8,22.7,70.3,22.3,69.4,22.3z"/>
		<path class="st2" d="M77.5,11c0,0-0.3,0.7-0.5,1.4l-0.7,1.7h2.4L78,12.4C77.7,11.7,77.5,11.1,77.5,11z"/>
		<path class="st2" d="M85.4,15.7c0.1,0,0.1,0,0.2,0v0c1.4,0,2.6-1.1,2.6-2.5s-1.1-2.6-2.5-2.6c-1.4,0-2.6,1.1-2.6,2.5
			c0,0,0,0,0,0.1C83.1,14.5,84.1,15.7,85.4,15.7z"/>
		<path class="st2" d="M77.1,22.7c0,0-0.3,0.7-0.5,1.4l-0.7,1.7h2.4L77.7,24C77.4,23.4,77.1,22.7,77.1,22.7z"/>
		<path class="st2" d="M117.7,22.7c0,0-0.3,0.7-0.5,1.4l-0.7,1.7h2.4l-0.7-1.7C118,23.4,117.7,22.7,117.7,22.7z"/>
	</g>
	<g>
		<polygon class="st3" points="70.1,17.3 71.7,17.3 71.7,11 74.1,11 74.1,9.5 67.7,9.5 67.7,11 70.1,11 		"/>
		<path class="st3" d="M64.1,16.1c-1,0-1.6-0.4-1.8-1.2l-1.5,0.4c0.4,1.7,1.9,2.1,3.2,2.1c1.8,0,2.9-0.8,2.9-2.3
			c0-1.7-1.4-2.2-2.5-2.3c-1.1-0.2-1.9-0.4-1.9-1.1c0-0.5,0.4-0.9,1.2-0.9c0.7-0.1,1.4,0.3,1.6,1l1.5-0.4c-0.4-1.3-1.7-2.1-3-2
			c-1.7,0-2.8,0.7-2.8,2.3c0,1.6,1.4,2.1,2.4,2.3c1,0.2,2,0.2,2,1.1C65.5,15.7,65.1,16.1,64.1,16.1z"/>
		<polygon class="st3" points="76.6,9.5 73.5,17.3 75.1,17.3 75.7,15.7 79.2,15.7 79.7,17.2 81.4,17.2 78.3,9.5 		"/>
		<polygon class="st3" points="60.1,15.8 56.1,15.8 56.1,14 59.1,14 59.1,12.6 56.1,12.6 56.1,11 60.1,11 60.1,9.5 54.5,9.5 
			54.5,17.2 60.1,17.2 		"/>
		<path class="st3" d="M53.3,17.3V13h-3.5v1.4h2V15c-0.5,0.7-1.4,1-2.2,1c-0.1,0-0.2,0-0.3,0C48,15.9,47,14.7,47,13.4
			c0-0.1,0-0.2,0-0.3c0-1.3,1.1-2.3,2.4-2.3c0.9,0,1.7,0.4,2.1,1.2l1.5-0.4c-0.6-1.4-2.1-2.2-3.6-2.2c-2.2,0-4,1.8-4,4
			c0,2.2,1.8,4,4,4c0.9,0,1.7-0.3,2.4-0.9c0,0.1,0,0.2,0,0.7L53.3,17.3z"/>
		<polygon class="st3" points="47.5,25.6 50.5,25.6 50.5,24.2 47.5,24.2 47.5,22.6 51.4,22.6 51.4,21.1 45.9,21.1 45.9,28.9 
			51.5,28.9 51.5,27.4 47.5,27.4 		"/>
		<path class="st3" d="M30.9,26.1C30.5,26,30,26,30,26h-1.8c0,0,0-0.1,0-0.1c0-0.1,0-0.2,0-0.2c0.1-0.4,0.1-1,0.1-1V10.2
			c-0.2-0.2-0.3-0.1-0.4,0c-0.1,0-0.3-0.1-0.4-0.1h-0.2c-0.4,0-0.8-0.1-0.8-0.1h-2.3c-0.2,0.2-0.1,0.3,0,0.3v0c-0.1,0.4-0.1,1-0.1,1
			v14.4l0.1,0.1h-1.3c0-0.1,0.1-0.2,0.1-0.4c0.1-0.4,0.1-1,0.1-1v-5.4c0.2,0.1,0.3,0.1,0-0.2v-4.4c-0.2-0.2-0.3-0.1-0.4,0
			c-0.1,0-0.3-0.1-0.4-0.1c-0.4-0.1-1-0.1-1-0.1h-0.8h0h-0.1H19c-0.2,0.2-0.1,0.3,0,0.3h0.1v0.1c-0.1,0.4-0.1,1-0.1,1v10.1l0.1,0.1
			h-1.4c0-0.1,0.1-0.2,0.1-0.4c0.1-0.4,0.1-1,0.1-1v-6.1c-0.2-0.2-0.3-0.1-0.4,0c-0.1,0-0.3-0.1-0.4-0.1c-0.4-0.1-1-0.1-1-0.1h-2.4
			c-0.2,0.2-0.1,0.3,0,0.3h0.1v0.1c-0.1,0.4-0.1,1-0.1,1v6.2l0.1,0.1h-1.3c0-0.1,0.1-0.2,0.1-0.4c0.1-0.4,0.1-1,0.1-1v-3
			c-0.2-0.2-0.3-0.1-0.4,0c-0.1,0-0.3-0.1-0.4-0.1c-0.4-0.1-1-0.1-1-0.1H8.5c-0.2,0.2-0.1,0.3,0,0.3h0.1v0.1c-0.1,0.4-0.1,1-0.1,1
			v1.8H8.4l0.1,0.2v0.9v0v0.2l0.1,0.1H5.2c-0.2,0.2-0.1,0.3,0,0.3h24.7c0,0,1,0.1,1,0.1C31.4,26.2,31.6,26.1,30.9,26.1z"/>
		<polygon class="st3" points="92.4,19.1 91.2,18.7 90,20.6 91.3,20.6 		"/>
		<path class="st3" d="M75.7,8.8L75.7,8.8C75.7,8.8,75.6,8.8,75.7,8.8L75.7,8.8z"/>
		<path class="st3" d="M76.6,8.5c0.7,0,1.1,0.3,1.8,0.3c0.4,0,0.7-0.1,1-0.3l-0.2-1.1c-0.3,0.2-0.6,0.3-0.9,0.3
			c-0.7,0-1.1-0.3-1.8-0.3c-0.4,0-0.7,0.1-1,0.4l0.2,1.1C75.9,8.6,76.3,8.4,76.6,8.5z"/>
		<path class="st3" d="M85.6,17.4c2.2,0,4-1.8,4.1-4c0-2.2-1.8-4-4-4c-0.1,0-0.2,0-0.3,0c-2.1,0.1-3.8,1.9-3.7,4
			C81.6,15.6,83.4,17.4,85.6,17.4z"/>
		<path class="st3" d="M56,24.4c-1.1-0.2-1.9-0.4-1.9-1.1c0-0.5,0.4-0.9,1.2-0.9c0.7-0.1,1.4,0.3,1.6,1l1.5-0.4
			c-0.4-1.3-1.7-2.1-3-2c-1.7,0-2.8,0.7-2.8,2.3s1.4,2.1,2.4,2.3s2,0.2,2,1.1c0,0.6-0.4,0.9-1.4,0.9c-1,0-1.6-0.4-1.8-1.2l-1.5,0.4
			c0.4,1.7,1.9,2.1,3.2,2.1c1.8,0,2.9-0.8,2.9-2.3C58.4,25.1,57,24.6,56,24.4z"/>
		<path class="st3" d="M111,27.1c-1.2,0.8-2.8,0.4-3.6-0.8c-0.8-1.2-0.4-2.8,0.8-3.5c1.2-0.8,2.8-0.4,3.6,0.8l1.5-0.4
			c-0.6-1.4-2.1-2.2-3.6-2.2c-1.6,0-3,0.9-3.6,2.3c-0.9,2,0,4.4,2,5.3c2,0.9,4.4,0,5.3-2l-1.5-0.4C111.6,26.6,111.3,26.9,111,27.1z"
			/>
		<rect x="103.1" y="21.1" class="st3" width="1.5" height="7.7"/>
		<polygon class="st3" points="59,22.6 61.5,22.6 61.5,28.9 63,28.9 63,22.6 65.5,22.6 65.5,21.1 59,21.1 		"/>
		<path class="st3" d="M98.3,26h2.1v0.6c-0.5,0.7-1.4,1-2.2,1c-0.1,0-0.2,0-0.3,0c-1.3-0.1-2.4-1.2-2.3-2.6c0-0.1,0-0.2,0-0.3
			c0-1.3,1.1-2.3,2.4-2.3c0.9,0,1.7,0.4,2.1,1.2l1.5-0.4c-0.6-1.4-2.1-2.2-3.6-2.2c-2.2,0-4,1.8-4,4s1.8,4,4,4
			c0.9,0,1.7-0.3,2.4-0.9c0,0.1,0,0.2,0,0.7l1.4,0v-4.3h-3.5V26z"/>
		<polygon class="st3" points="116.8,21.2 113.7,28.9 115.4,28.9 115.9,27.3 119.4,27.3 120,28.9 121.7,28.9 118.6,21.2 		"/>
		<polygon class="st3" points="89.5,25.6 92.5,25.6 92.5,24.2 89.5,24.2 89.5,22.6 93.4,22.6 93.4,21.1 88,21.1 87.9,28.9 
			93.5,28.9 93.5,27.4 89.5,27.4 		"/>
		<polygon class="st3" points="76.2,21.1 73.1,28.9 74.8,28.9 75.4,27.3 78.9,27.3 79.4,28.9 81.1,28.9 78,21.1 		"/>
		<path class="st3" d="M72.3,23.7c0-1.6-1.1-2.5-3-2.5h-2.7v7.7h1.5v-2.7h1.1l1.5,2.7h1.8l-1.8-3C71.7,25.6,72.4,24.7,72.3,23.7z"/>
		<polygon class="st3" points="80.4,22.6 82.8,22.6 82.8,28.9 84.4,28.9 84.4,22.6 86.9,22.6 86.9,21.1 80.4,21.1 		"/>
		<path class="st1" d="M32.4,0.1H4.6C2.1,0.1,0,2.1,0,4.6v27.2c0,2.5,2.1,4.5,4.6,4.5h27.8h4.7v-3.5V3.6V0.1H32.4z M30.9,26.3
			c0,0-1-0.1-1-0.1H5.2c-0.1-0.1-0.2-0.2,0-0.3h3.3l-0.1-0.1v-0.2v0v-0.9l-0.1-0.2h0.1v-1.8c0,0,0-0.6,0.1-1v-0.1H8.5
			c-0.1-0.1-0.2-0.2,0-0.3h2.4c0,0,0.6,0,1,0.1c0.1,0,0.3,0,0.4,0.1c0-0.1,0.2-0.2,0.4,0v3c0,0,0,0.6-0.1,1c0,0.1,0,0.2-0.1,0.4h1.3
			l-0.1-0.1v-6.2c0,0,0-0.6,0.1-1v-0.1h-0.1c-0.1-0.1-0.2-0.2,0-0.3h2.4c0,0,0.6,0,1,0.1c0.1,0,0.3,0,0.4,0.1c0-0.1,0.2-0.2,0.4,0
			v6.1c0,0,0,0.6-0.1,1c0,0.1,0,0.2-0.1,0.4h1.4L19,25.8V15.7c0,0,0-0.6,0.1-1v-0.1H19c-0.1-0.1-0.2-0.2,0-0.3h1.4h0.1h0h0.8
			c0,0,0.6,0,1,0.1c0.1,0,0.3,0,0.4,0.1c0.1-0.1,0.2-0.2,0.4,0v4.4c0.3,0.4,0.2,0.4,0,0.2v5.4c0,0,0,0.6-0.1,1c0,0.1,0,0.2-0.1,0.4
			h1.3l-0.1-0.1V11.4c0,0,0-0.6,0.1-1v0c-0.1-0.1-0.2-0.2,0-0.3h2.3c0,0,0.4,0,0.8,0.1h0.2c0.1,0,0.3,0,0.4,0.1
			c0.1-0.1,0.2-0.2,0.4,0v14.4c0,0,0,0.6-0.1,1c0,0.1,0,0.2,0,0.2c0,0,0,0.1,0,0.1H30c0,0,0.6,0,1,0.1
			C31.6,26.1,31.4,26.2,30.9,26.3z"/>
		<path class="st1" d="M40.6,0.1h-0.4v0C40.3,0.1,40.5,0.1,40.6,0.1z"/>
		<path class="st1" d="M40.2,36.2h0.4C40.5,36.2,40.3,36.2,40.2,36.2L40.2,36.2z"/>
		<path class="st2" d="M126.5,0.1H41.8h-1.2c-0.2,0-0.3,0-0.4,0v0V0h-3v0.1v3.5v29.2v3.5v0.1h3v-0.1v0c0.1,0,0.3,0,0.4,0h1.2h84.8
			c1.9,0,3.5-1.6,3.5-3.5V3.6C130,1.6,128.4,0.1,126.5,0.1z M91.2,18.7l1.2,0.4l-1,1.5l-1.4,0L91.2,18.7z M85.3,9.4
			c0.1,0,0.2,0,0.3,0c2.2,0,4,1.8,4,4c0,2.2-1.8,4-4.1,4c-2.2,0-4-1.8-4-4C81.5,11.3,83.2,9.5,85.3,9.4z M76.4,7.3
			c0.7,0,1.1,0.3,1.8,0.3c0.3,0,0.6-0.1,0.9-0.3l0.2,1.1c-0.3,0.2-0.6,0.4-1,0.3c-0.7,0-1.1-0.3-1.8-0.3c-0.3,0-0.7,0.1-0.9,0.3l0,0
			h0c0,0,0,0,0,0l-0.2-1.1C75.7,7.4,76.1,7.3,76.4,7.3z M81.4,17.2h-1.6l-0.6-1.5l-3.5,0l-0.6,1.5h-1.6l3.1-7.7h1.7L81.4,17.2z
			 M67.7,9.5h6.5V11l-2.5,0v6.3h-1.5V11h-2.5V9.5z M63.5,14c-1-0.2-2.4-0.7-2.4-2.3c0-1.6,1.1-2.3,2.8-2.3c1.4-0.2,2.6,0.7,3,2
			l-1.5,0.4c-0.2-0.7-0.9-1.1-1.6-1c-0.9,0-1.2,0.3-1.2,0.9c0,0.8,0.8,0.9,1.9,1.1c1.1,0.2,2.5,0.7,2.5,2.3c0,1.5-1.1,2.3-2.9,2.3
			c-1.3,0-2.8-0.4-3.2-2.1l1.5-0.4c0.1,0.8,0.8,1.2,1.8,1.2c1,0,1.4-0.3,1.4-0.9C65.5,14.2,64.5,14.2,63.5,14z M54.5,9.5h5.5V11h-4
			v1.6h3V14h-3v1.8h4v1.4h-5.5V9.5z M51.5,28.9h-5.5l0-7.7h5.5v1.4h-3.9v1.6h3v1.4h-3v1.8h4V28.9z M49.5,17.4c-2.2,0-4-1.8-4-4
			c0-2.2,1.8-4,4-4c1.5-0.1,2.9,0.8,3.6,2.2L51.6,12c-0.4-0.8-1.3-1.2-2.1-1.2c-1.3,0-2.4,1-2.4,2.3c0,0.1,0,0.2,0,0.3
			C47,14.7,48,15.9,49.3,16c0.1,0,0.2,0,0.3,0c0.9,0,1.7-0.3,2.2-1v-0.6h-2V13h3.5v4.3l-1.4,0c0-0.6,0-0.7,0-0.7
			C51.3,17.1,50.4,17.4,49.5,17.4z M55.5,29c-1.3,0-2.8-0.4-3.2-2.1l1.5-0.4c0.1,0.8,0.8,1.2,1.8,1.2c1,0,1.4-0.3,1.4-0.9
			c0-0.9-1-0.9-2-1.1s-2.4-0.7-2.4-2.3s1.1-2.3,2.8-2.3c1.4-0.2,2.6,0.7,3,2l-1.5,0.4c-0.2-0.7-0.9-1.1-1.6-1
			c-0.9,0-1.2,0.3-1.2,0.9c0,0.8,0.8,0.9,1.9,1.1c1.1,0.2,2.5,0.7,2.5,2.3C58.4,28.3,57.3,29,55.5,29z M65.5,22.6l-2.4,0v6.3h-1.5
			v-6.3H59v-1.4h6.4V22.6z M70.8,28.8l-1.5-2.7h-1.1v2.7h-1.5v-7.7h2.7c1.9,0,3,0.9,3,2.5c0.1,1-0.6,1.9-1.6,2.2l1.8,3H70.8z
			 M79.4,28.9l-0.6-1.5l-3.5,0l-0.6,1.5h-1.6l3.1-7.7H78l3.1,7.7H79.4z M86.9,22.6l-2.5,0v6.3h-1.5v-6.3h-2.4v-1.4h6.5V22.6z
			 M93.5,28.9h-5.5l0-7.7h5.5v1.4h-4v1.6h3v1.4h-3v1.8h4V28.9z M101.8,28.9l-1.4,0c0-0.6,0-0.7,0-0.7C99.8,28.7,99,29,98.1,29
			c-2.2,0-4-1.8-4-4s1.8-4,4-4c1.5-0.1,2.9,0.8,3.6,2.2l-1.5,0.4c-0.4-0.8-1.3-1.2-2.1-1.2c-1.3,0-2.4,1-2.4,2.3c0,0.1,0,0.2,0,0.3
			c-0.1,1.3,0.9,2.5,2.3,2.6c0.1,0,0.2,0,0.3,0c0.9,0,1.7-0.3,2.2-1V26h-2.1v-1.4h3.5V28.9z M104.6,28.9h-1.5v-7.7h1.5V28.9z
			 M108,28.6c-2-0.9-2.9-3.3-2-5.3c0.6-1.4,2.1-2.3,3.6-2.3c1.5-0.1,2.9,0.8,3.6,2.2l-1.5,0.4c-0.8-1.2-2.4-1.5-3.6-0.8
			c-1.2,0.8-1.5,2.4-0.8,3.5c0.8,1.2,2.4,1.5,3.6,0.8c0.4-0.2,0.7-0.6,0.9-0.9l1.5,0.4C112.4,28.6,110.1,29.5,108,28.6z M120,28.9
			l-0.6-1.5h-3.5l-0.6,1.5h-1.6l3.1-7.7h1.7l3.1,7.7H120z"/>
	</g>
</g>
</svg>
