<svg id="Layer_1" data-name="Layer 1" xmlns="http://www.w3.org/2000/svg" viewBox="0 0 492.93 138.58"><defs><style>.cls-1{fill:#fff;}</style></defs><title>logo-patria-amada</title><path class="cls-1" d="M237.53,67C252,67,259,73,259,83a13.31,13.31,0,0,1-9.24,12.37c6.68,1.77,12.49,7.86,12.49,15.46,0,9.81-7.08,17.23-23.4,17.23-8,0-14.36-.18-21.73-.26l-.59-.62V67.88l.59-.62C224.26,67.18,231,67,237.53,67ZM226.82,92.36h10.32c9.24,0,11.3-4.95,11.3-9.1,0-4.33-1.87-9.1-11.11-9.1-2.75,0-7.37,0-10.52-.09Zm0,7.24V121c4.13,0,8.26-.09,11.9-.09,10.62,0,12.78-6.1,12.78-10.6s-2.85-10.69-13.37-10.69Z" transform="translate(-17.74 -16.35)"/><path class="cls-1" d="M301.52,101.2c3.24,1.06,5.6,4.06,7,7.51L312.83,119c1,2.39,2.16,4.77,4.42,6.36-1.37,1.85-4.42,2.92-7.08,2.92-3.93,0-5.31-1.95-6.88-5.74l-4.92-11.93c-1.67-4.06-3.83-7.24-9.93-7.24h-8.06v24.3a33.63,33.63,0,0,1-5.21.35,32.37,32.37,0,0,1-5.11-.35V67.88l.59-.62C278,67.18,285.1,67,291.78,67c13.67,0,22.32,6.36,22.32,18.11C314.1,93.24,308.69,99.16,301.52,101.2Zm-21.14-5.3c3.83-.09,8.16-.18,10.91-.18,9.64,0,12-5.48,12-10.6,0-5.39-2.36-10.69-12-10.69-2.85,0-7.57,0-10.91-.09Z" transform="translate(-17.74 -16.35)"/><path class="cls-1" d="M337.78,113l-5.21,14.76a23.9,23.9,0,0,1-4.52.35,21.67,21.67,0,0,1-5.11-.62l-.29-.44,22.22-59.73a44.58,44.58,0,0,1,6-.35,42.2,42.2,0,0,1,5.9.35l22,59.73a12.75,12.75,0,0,1-6.1,1.24c-3.24,0-4.92-1.06-6.19-4.95L362.86,113c-1.67,0-5.11.09-5.9.09H343.49C342.7,113.13,339.45,113,337.78,113Zm2.65-7.6c1.58,0,4.23-.09,5-.09h9.83c.69,0,3.34.09,4.92.09l-4.52-12.81c-1.77-5.13-3.83-11.31-5.21-16H350c-1,4-2.75,9.54-3.84,12.81Z" transform="translate(-17.74 -16.35)"/><path class="cls-1" d="M388.11,115c5.7,3.36,13,6,19.76,6,8,0,12.49-3.45,12.58-8.31,0-4.15-3.24-7.33-8.95-9.54l-11.6-4.51c-8.26-3.18-13.47-7.78-13.47-15.29,0-9.63,9-17.14,22.22-17.14A52.55,52.55,0,0,1,429.5,70.8a10.62,10.62,0,0,1-3.84,7.34c-5.11-2.3-11.8-4.16-16.81-4.16-7.28,0-11.8,3.62-11.8,8.31,0,3.89,3.34,6.1,8.16,8l11.41,4.42c8.45,3.18,14.75,8.57,14.75,16.44,0,10.16-7.86,17.76-24.09,17.76a46.09,46.09,0,0,1-23.6-6.63A11.36,11.36,0,0,1,388.11,115Z" transform="translate(-17.74 -16.35)"/><path class="cls-1" d="M443.59,67.36A33.63,33.63,0,0,1,448.8,67a34.5,34.5,0,0,1,5.21.35V127.7a34.5,34.5,0,0,1-5.21.35,33.63,33.63,0,0,1-5.21-.35Z" transform="translate(-17.74 -16.35)"/><path class="cls-1" d="M509.86,119.57a25.55,25.55,0,0,1-.29,3.71c-.59,3-3,4.51-6.79,4.51H477.12c-3.54,0-6.1-2-6.1-5.83V67.53l.69-.53h3.93c4.33,0,5.9,1.86,5.9,6v46.92c3-.26,6.09-.35,8.75-.35Z" transform="translate(-17.74 -16.35)"/><path class="cls-1" d="M226.55,47.07h-4.1V57.18a17.37,17.37,0,0,1-3,.22,17.73,17.73,0,0,1-3-.22V27l.31-.27c3.56-.09,6.55-.18,9.75-.18,6.14,0,10.55,3.34,10.55,10.29C237.11,43.55,232.7,47.07,226.55,47.07Zm-4.1-4.54c1.47,0,3.07-.09,3.74-.09,4,0,4.76-3.25,4.76-5.61s-.8-5.61-4.76-5.61c-1.11,0-2.4,0-3.74,0Z" transform="translate(-17.74 -16.35)"/><path class="cls-1" d="M244.23,50.28l-2.09,6.95a11.77,11.77,0,0,1-2.58.22,9.39,9.39,0,0,1-2.85-.4l-.22-.31,9.93-30a29.72,29.72,0,0,1,3.47-.22,22.17,22.17,0,0,1,3.43.27l9.75,30a7.64,7.64,0,0,1-3.43.76c-1.91,0-2.85-.67-3.56-3.21l-1.25-4.05c-.67,0-1.74,0-2.18,0h-6.23C246,50.32,244.94,50.32,244.23,50.28Zm1.47-4.72c.62,0,1.56,0,2,0h3.83c.4,0,1.25,0,1.87,0L252.07,41c-.75-2.54-1.74-6-2.4-8.64h-.27c-.45,2.27-1.38,5.48-2,7.52Z" transform="translate(-17.74 -16.35)"/><path class="cls-1" d="M269.26,35c0-1.2,0-2,0-3.3h0l-2.67,0h-4.94a12.84,12.84,0,0,1-.22-2.49,13.2,13.2,0,0,1,.22-2.49h21.28a9.51,9.51,0,0,1,.31,2.32c0,2-1,2.67-3.2,2.67h-2.09l-2.67,0h0c0,1.25,0,2.09,0,3.3V57.18a18.22,18.22,0,0,1-3,.22,18,18,0,0,1-3-.22Z" transform="translate(-17.74 -16.35)"/><path class="cls-1" d="M302.42,44.09a5.91,5.91,0,0,1,3.3,3.92l1.65,4.5a7.32,7.32,0,0,0,2.09,3.25,5.07,5.07,0,0,1-4,1.78c-2.18,0-2.94-1.2-3.79-3.52l-1.87-5.3c-.67-1.78-1.56-3.2-4.14-3.2H293V57.18a17.76,17.76,0,0,1-3,.22,17.53,17.53,0,0,1-2.94-.22V27l.31-.27c3.56-.09,6.95-.18,10.15-.18,6.19,0,10.46,3.07,10.46,9.39A8.48,8.48,0,0,1,302.42,44.09ZM293,40.88c1.56-.09,3.25-.13,4.1-.13,3.87,0,4.76-2.36,4.76-4.81s-.89-4.81-4.76-4.81c-1.07,0-2.72,0-4.1,0Z" transform="translate(-17.74 -16.35)"/><path class="cls-1" d="M314.27,26.77a17.71,17.71,0,0,1,3-.22,18,18,0,0,1,3,.22V57.18a17.71,17.71,0,0,1-3,.22,17.4,17.4,0,0,1-3-.22Z" transform="translate(-17.74 -16.35)"/><path class="cls-1" d="M332.43,50.28l-2.09,6.95a11.79,11.79,0,0,1-2.58.22,9.39,9.39,0,0,1-2.85-.4l-.22-.31,9.93-30a29.72,29.72,0,0,1,3.47-.22,22.1,22.1,0,0,1,3.43.27l9.75,30a7.64,7.64,0,0,1-3.43.76c-1.91,0-2.85-.67-3.56-3.21L343,50.28c-.67,0-1.74,0-2.18,0h-6.23C334.17,50.32,333.15,50.32,332.43,50.28Zm1.47-4.72c.62,0,1.56,0,2,0h3.83c.4,0,1.25,0,1.87,0L340.27,41c-.75-2.54-1.74-6-2.4-8.64h-.27c-.45,2.27-1.38,5.48-2,7.52Z" transform="translate(-17.74 -16.35)"/><path class="cls-1" d="M370.06,50.28,368,57.22a11.77,11.77,0,0,1-2.58.22,9.39,9.39,0,0,1-2.85-.4l-.22-.31,9.93-30a29.72,29.72,0,0,1,3.47-.22,22.17,22.17,0,0,1,3.43.27l9.75,30a7.64,7.64,0,0,1-3.43.76c-1.91,0-2.85-.67-3.56-3.21l-1.25-4.05c-.67,0-1.74,0-2.18,0h-6.23C371.79,50.32,370.77,50.32,370.06,50.28Zm1.47-4.72c.62,0,1.56,0,2,0h3.83c.4,0,1.25,0,1.87,0L377.89,41c-.75-2.54-1.74-6-2.4-8.64h-.27c-.45,2.27-1.38,5.48-2,7.52Z" transform="translate(-17.74 -16.35)"/><path class="cls-1" d="M394.72,26.81a26.94,26.94,0,0,1,4-.31,23.38,23.38,0,0,1,3.79.31l3.43,12.34c.31,1.25,1.42,5.83,1.69,7.61h.31c.27-1.78,1.38-6.37,1.69-7.61L413,26.81a24.61,24.61,0,0,1,3.78-.31,27.48,27.48,0,0,1,4.05.31l2.36,30.28a13.23,13.23,0,0,1-3,.31,16.64,16.64,0,0,1-2.63-.18l-.85-14.29c-.18-2.76-.35-6.86-.35-9.66h-.31l-5.21,19.37a21.12,21.12,0,0,1-6.1,0l-5.21-19.37h-.31c0,2.8-.18,6.9-.36,9.66L398,57.22a17.19,17.19,0,0,1-2.67.18,13.12,13.12,0,0,1-3-.31Z" transform="translate(-17.74 -16.35)"/><path class="cls-1" d="M434.44,50.28l-2.09,6.95a11.77,11.77,0,0,1-2.58.22,9.39,9.39,0,0,1-2.85-.4l-.22-.31,9.93-30a29.72,29.72,0,0,1,3.47-.22,22.17,22.17,0,0,1,3.43.27l9.75,30a7.64,7.64,0,0,1-3.43.76c-1.91,0-2.85-.67-3.56-3.21L445,50.28c-.67,0-1.74,0-2.18,0h-6.23C436.18,50.32,435.15,50.32,434.44,50.28Zm1.47-4.72c.62,0,1.56,0,2,0h3.83c.4,0,1.25,0,1.87,0L442.28,41c-.75-2.54-1.74-6-2.4-8.64h-.27c-.45,2.27-1.38,5.48-2,7.52Z" transform="translate(-17.74 -16.35)"/><path class="cls-1" d="M476.38,55.17c-2,1.6-5.57,2.23-8,2.23-3.74,0-6.63-.09-10.51-.18l-.31-.27V27l.31-.27c3.83-.13,6.77-.18,10.51-.18,2.4,0,6,.62,8,2.23,4.1,3.3,4.85,8,4.85,13.18S480.52,51.88,476.38,55.17Zm-8-23.91c-1.69,0-3.07,0-4.85,0V52.72c1.78,0,3.16,0,4.85,0,5.83,0,6.68-5.84,6.68-10.73S474.24,31.26,468.41,31.26Z" transform="translate(-17.74 -16.35)"/><path class="cls-1" d="M491,50.28l-2.09,6.95a11.79,11.79,0,0,1-2.58.22,9.39,9.39,0,0,1-2.85-.4l-.22-.31,9.93-30a29.72,29.72,0,0,1,3.47-.22,22.1,22.1,0,0,1,3.43.27l9.75,30a7.64,7.64,0,0,1-3.43.76c-1.91,0-2.85-.67-3.56-3.21l-1.25-4.05c-.67,0-1.74,0-2.18,0h-6.23C492.77,50.32,491.74,50.32,491,50.28Zm1.47-4.72c.62,0,1.56,0,2,0h3.83c.4,0,1.25,0,1.87,0L498.87,41c-.75-2.54-1.74-6-2.4-8.64h-.27c-.45,2.27-1.38,5.48-2,7.52Z" transform="translate(-17.74 -16.35)"/><path class="cls-1" d="M255.17,16.35a5.59,5.59,0,0,1,2.39,3.18l-7.37,4.38a3.31,3.31,0,0,1-1.65-2Z" transform="translate(-17.74 -16.35)"/><path class="cls-1" d="M223.85,146.21l3.4,0q2.29,0,2.29,2.16V154a19.28,19.28,0,0,1-5.86.89,6.89,6.89,0,0,1-2.76-.52,5.33,5.33,0,0,1-2-1.49,6.52,6.52,0,0,1-1.22-2.39,11.52,11.52,0,0,1-.41-3.21,9.37,9.37,0,0,1,.57-3.43,7.09,7.09,0,0,1,1.54-2.44A6.3,6.3,0,0,1,221.6,140a7.18,7.18,0,0,1,2.62-.49,9.71,9.71,0,0,1,5.28,1.56,2.31,2.31,0,0,1-.16.7,4.51,4.51,0,0,1-.35.69,3.25,3.25,0,0,1-.48.61,4,4,0,0,1-.55.47,6.61,6.61,0,0,0-3.64-1.17q-3.53,0-3.53,4.94t3.61,4.91q.5,0,1,0c.31,0,.62-.07.92-.13v-1.45q0-.5,0-.87c0-.24,0-.45,0-.63h-1.08a1.81,1.81,0,0,1-1.29-.36,1.53,1.53,0,0,1-.36-1.12A4.7,4.7,0,0,1,223.85,146.21Z" transform="translate(-17.74 -16.35)"/><path class="cls-1" d="M241.16,153.57q-2.32-1.93-2.32-6.34a11.38,11.38,0,0,1,.44-3.34,6.69,6.69,0,0,1,1.28-2.41,5.34,5.34,0,0,1,2-1.47,6.91,6.91,0,0,1,2.68-.5,7,7,0,0,1,2.69.5,5.29,5.29,0,0,1,2,1.48,6.82,6.82,0,0,1,1.28,2.42,12.68,12.68,0,0,1,0,6.65A6.69,6.69,0,0,1,250,153a5.32,5.32,0,0,1-2,1.47,7,7,0,0,1-2.69.5A6.23,6.23,0,0,1,241.16,153.57Zm1.75-3a2.29,2.29,0,0,0,2.36,1.69,2.23,2.23,0,0,0,1.44-.44,3.06,3.06,0,0,0,.87-1.13,5.24,5.24,0,0,0,.42-1.53,13.23,13.23,0,0,0,.11-1.67q0-.76-.05-1.69a7.05,7.05,0,0,0-.31-1.74,3.27,3.27,0,0,0-.82-1.36,2.26,2.26,0,0,0-1.65-.55,2.21,2.21,0,0,0-1.59.53,3.27,3.27,0,0,0-.82,1.31,6.48,6.48,0,0,0-.34,1.66c0,.58-.06,1.1-.06,1.55a14.39,14.39,0,0,0,.1,1.77A9.07,9.07,0,0,0,242.92,150.59Z" transform="translate(-17.74 -16.35)"/><path class="cls-1" d="M266.57,151.71l2.83-11.88a5.7,5.7,0,0,1,1.34-.13,5.32,5.32,0,0,1,1.77.24l.13.17-4,14.5a23.72,23.72,0,0,1-2.48.13,3.81,3.81,0,0,1-1.8-.31,2,2,0,0,1-.83-1.24l-3.59-13.05a5.2,5.2,0,0,1,1.93-.5,1.89,1.89,0,0,1,1.34.41,2.74,2.74,0,0,1,.67,1.3l1.67,6.17q.39,1.45.82,3.94C266.36,151.62,266.44,151.71,266.57,151.71Z" transform="translate(-17.74 -16.35)"/><path class="cls-1" d="M285.31,150.24l0,1.56v0c.66,0,1.19,0,1.6,0h5a8.89,8.89,0,0,1-.07,1.23q-.26,1.67-2.21,1.67h-5.76a2,2,0,0,1-1.46-.54,2,2,0,0,1-.53-1.47V140l.15-.15h9.33a6.76,6.76,0,0,1,.13,1.36,4.34,4.34,0,0,1-.3,1.54h-5.89l0,1.56v1.51l1.47,0h3.3a4.53,4.53,0,0,1,.19,1.38,5,5,0,0,1-.19,1.43h-4.76Z" transform="translate(-17.74 -16.35)"/><path class="cls-1" d="M312.32,144.4a4.18,4.18,0,0,1-.22,1.35,4.46,4.46,0,0,1-.57,1.15,4.09,4.09,0,0,1-.84.89,3.87,3.87,0,0,1-1,.57,2.94,2.94,0,0,1,1.67,2l.65,1.84a3.16,3.16,0,0,0,1.08,1.6,2.41,2.41,0,0,1-1,.72,3.43,3.43,0,0,1-1.43.29,1.62,1.62,0,0,1-1.21-.44,4.13,4.13,0,0,1-.8-1.55l-.78-2.27a2.35,2.35,0,0,0-.64-1,1.79,1.79,0,0,0-1.2-.35h-.89v5.41a9.65,9.65,0,0,1-1.73.13,9.27,9.27,0,0,1-1.71-.13V139.94l.15-.15,3.17-.07,2,0a7.54,7.54,0,0,1,2.16.29,4.48,4.48,0,0,1,1.66.88,3.94,3.94,0,0,1,1.06,1.47A5.21,5.21,0,0,1,312.32,144.4Zm-7.16-2.12v4.26q1,0,1.67,0a2.61,2.61,0,0,0,1.11-.26,1.52,1.52,0,0,0,.64-.64,2.64,2.64,0,0,0,.22-1.2q0-2.11-2-2.11h-.9Z" transform="translate(-17.74 -16.35)"/><path class="cls-1" d="M334.1,139.68l.15.15v14.72a9.4,9.4,0,0,1-2,.2,14.94,14.94,0,0,1-2.09-.13l-3.4-7.75q-.61-1.32-1.23-3.05l-.07,0q.26,3.16.26,6.47v4.31a8.7,8.7,0,0,1-1.62.13,8.34,8.34,0,0,1-1.6-.13V139.89a8.68,8.68,0,0,1,2-.2,14.77,14.77,0,0,1,2.07.13l3.35,7.73q.91,2.14,1.34,3.29l.09,0q-.26-3-.26-6.38v-2.64a2.33,2.33,0,0,1,.45-1.61,1.93,1.93,0,0,1,1.47-.49Z" transform="translate(-17.74 -16.35)"/><path class="cls-1" d="M346.39,153.57q-2.32-1.93-2.32-6.34a11.38,11.38,0,0,1,.44-3.34,6.69,6.69,0,0,1,1.28-2.41,5.34,5.34,0,0,1,2-1.47,6.91,6.91,0,0,1,2.68-.5,7,7,0,0,1,2.69.5,5.29,5.29,0,0,1,2,1.48,6.82,6.82,0,0,1,1.28,2.42,12.68,12.68,0,0,1,0,6.65,6.69,6.69,0,0,1-1.28,2.41,5.32,5.32,0,0,1-2,1.47,7,7,0,0,1-2.69.5A6.23,6.23,0,0,1,346.39,153.57Zm1.75-3a2.29,2.29,0,0,0,2.36,1.69,2.23,2.23,0,0,0,1.44-.44,3.06,3.06,0,0,0,.87-1.13,5.24,5.24,0,0,0,.42-1.53,13.23,13.23,0,0,0,.11-1.67q0-.76-.05-1.69a7.05,7.05,0,0,0-.31-1.74,3.27,3.27,0,0,0-.82-1.36,2.26,2.26,0,0,0-1.65-.55,2.21,2.21,0,0,0-1.59.53,3.27,3.27,0,0,0-.82,1.31,6.48,6.48,0,0,0-.34,1.66c0,.58-.06,1.1-.06,1.55a14.39,14.39,0,0,0,.1,1.77A9.07,9.07,0,0,0,348.14,150.59Z" transform="translate(-17.74 -16.35)"/><path class="cls-1" d="M382.4,142.77l0,1.69v1.36h4.65a5.91,5.91,0,0,1,0,2.84h-4.65v6a11.43,11.43,0,0,1-3.44,0V140l.15-.13h9.26a5.93,5.93,0,0,1,.13,1.35,1.52,1.52,0,0,1-.45,1.2,2.09,2.09,0,0,1-1.4.39Z" transform="translate(-17.74 -16.35)"/><path class="cls-1" d="M401.4,150.24l0,1.56v0c.66,0,1.19,0,1.6,0h5a8.89,8.89,0,0,1-.07,1.23q-.26,1.67-2.21,1.67H400a2,2,0,0,1-1.46-.54,2,2,0,0,1-.53-1.47V140l.15-.15h9.33a6.76,6.76,0,0,1,.13,1.36,4.34,4.34,0,0,1-.3,1.54h-5.89l0,1.56v1.51l1.47,0h3.3a4.53,4.53,0,0,1,.19,1.38,5,5,0,0,1-.19,1.43H401.4Z" transform="translate(-17.74 -16.35)"/><path class="cls-1" d="M427.38,153.66a4.42,4.42,0,0,1-1.82.82,11,11,0,0,1-2.49.26l-1.94,0-3.17-.06-.15-.15V139.94l.15-.15,2.61-.07,2.85,0a7.17,7.17,0,0,1,3.07.58,5,5,0,0,1,2,1.6,6.37,6.37,0,0,1,1,2.39,13.73,13.73,0,0,1,.3,3,12.54,12.54,0,0,1-.5,3.74A5.4,5.4,0,0,1,427.38,153.66Zm-4-1.62q2.86,0,2.86-4.8t-2.86-4.83h-1.22l-.92,0v9.67l.92,0Z" transform="translate(-17.74 -16.35)"/><path class="cls-1" d="M443.09,150.24l0,1.56v0c.66,0,1.19,0,1.6,0h5a8.89,8.89,0,0,1-.07,1.23q-.26,1.67-2.21,1.67h-5.76a2,2,0,0,1-1.46-.54,2,2,0,0,1-.53-1.47V140l.15-.15h9.33a6.76,6.76,0,0,1,.13,1.36,4.34,4.34,0,0,1-.3,1.54h-5.89l0,1.56v1.51l1.47,0h3.3a4.53,4.53,0,0,1,.19,1.38,5,5,0,0,1-.19,1.43h-4.76Z" transform="translate(-17.74 -16.35)"/><path class="cls-1" d="M470.1,144.4a4.18,4.18,0,0,1-.22,1.35,4.46,4.46,0,0,1-.57,1.15,4.09,4.09,0,0,1-.84.89,3.87,3.87,0,0,1-1,.57,2.94,2.94,0,0,1,1.67,2l.65,1.84a3.16,3.16,0,0,0,1.08,1.6,2.41,2.41,0,0,1-1,.72,3.43,3.43,0,0,1-1.43.29,1.62,1.62,0,0,1-1.21-.44,4.13,4.13,0,0,1-.8-1.55l-.78-2.27a2.35,2.35,0,0,0-.64-1,1.79,1.79,0,0,0-1.2-.35h-.89v5.41a9.65,9.65,0,0,1-1.73.13,9.27,9.27,0,0,1-1.71-.13V139.94l.15-.15,3.17-.07,2,0A7.54,7.54,0,0,1,467,140a4.48,4.48,0,0,1,1.66.88,3.94,3.94,0,0,1,1.06,1.47A5.21,5.21,0,0,1,470.1,144.4Zm-7.16-2.12v4.26q1,0,1.67,0a2.61,2.61,0,0,0,1.11-.26,1.52,1.52,0,0,0,.64-.64,2.64,2.64,0,0,0,.22-1.2q0-2.11-2-2.11h-.9Z" transform="translate(-17.74 -16.35)"/><path class="cls-1" d="M483.82,151.52l-.87,0-.93,3.14a6.29,6.29,0,0,1-1.45.13,5,5,0,0,1-1.69-.24l-.11-.17,4.76-14.52a13.12,13.12,0,0,1,2-.13,10.87,10.87,0,0,1,2,.15l4.67,14.54a3.52,3.52,0,0,1-1.71.41,2.45,2.45,0,0,1-1.58-.39,3.15,3.15,0,0,1-.78-1.49l-.41-1.43-.84,0Zm-.07-2.73.87,0H487l-.37-1.34q-.52-1.82-1.19-4.46h-.13q-.17.93-1,4.13Z" transform="translate(-17.74 -16.35)"/><path class="cls-1" d="M506.92,151.69h3.76a8.78,8.78,0,0,1-.11,1.48,1.68,1.68,0,0,1-.69,1.06,2.47,2.47,0,0,1-1.54.44h-4.89a1.87,1.87,0,0,1-2-2V139.83l.15-.15h1.27q2,0,2,2.21v9.89Q505.83,151.69,506.92,151.69Z" transform="translate(-17.74 -16.35)"/><rect class="cls-1" y="10.22" width="181.13" height="128.2"/><polygon class="cls-1" points="0 10.2 0 79.9 72.08 21.75 181.13 69.84 181.13 10.2 0 10.2"/><path class="cls-1" d="M17.74,96.26v49.42A172.9,172.9,0,0,1,34.27,133.5,66.93,66.93,0,0,1,140.55,90.71a277.86,277.86,0,0,1,58.32-4.51l-109-48.1Z" transform="translate(-17.74 -16.35)"/><path class="cls-1" d="M17.74,96.26v49.42A172.9,172.9,0,0,1,34.27,133.5,66.93,66.93,0,0,1,140.55,90.71a277.86,277.86,0,0,1,58.32-4.51l-109-48.1Z" transform="translate(-17.74 -16.35)"/><path class="cls-1" d="M100.33,77.28A66.94,66.94,0,0,0,34.27,133.5,289.81,289.81,0,0,1,140.55,90.71,66.63,66.63,0,0,0,100.33,77.28Z" transform="translate(-17.74 -16.35)"/><path class="cls-1" d="M140.55,90.71A289.81,289.81,0,0,0,34.27,133.5a172.9,172.9,0,0,0-16.52,12.18v9.11a129,129,0,0,1,15.66-10.53c21-12.39,62.89-31.73,123.84-35.27a348.4,348.4,0,0,1,41.63.12V86.2A277.86,277.86,0,0,0,140.55,90.71Z" transform="translate(-17.74 -16.35)"/><path class="cls-1" d="M157.25,109C96.3,112.52,54.43,131.86,33.41,144.26a129,129,0,0,0-15.66,10.53H198.87V109.1A348.4,348.4,0,0,0,157.25,109Z" transform="translate(-17.74 -16.35)"/></svg>